<svg width="28" height="28" viewBox="0 0 28 28" fill="none" xmlns="http://www.w3.org/2000/svg">
<path fill-rule="evenodd" clip-rule="evenodd" d="M27.9872 13.2297C27.9637 12.8291 27.9402 12.4352 27.9188 12.0544C27.9124 11.9598 27.906 11.8651 27.8996 11.7727C27.8868 11.6802 27.8761 11.5878 27.8633 11.4976C27.8377 11.3171 27.8142 11.141 27.7907 10.9715C27.7031 10.8351 27.718 10.3201 27.5471 10.2034C27.5386 9.99874 27.5365 9.92611 27.451 9.73903C27.5685 9.79186 27.404 9.51894 27.4916 9.53655C27.4126 9.38469 27.4446 9.169 27.3613 9.11618C27.4019 9.34067 27.4873 9.46612 27.4211 9.55636C27.3891 9.34287 27.2823 9.13819 27.3229 8.97312C27.2609 8.81465 27.0836 8.54394 27.1071 8.38988C27.0238 8.40308 27.0558 8.1984 26.9747 8.13017C26.9405 8.13017 26.9512 8.1984 26.9255 8.15218C26.8422 8.03333 26.8529 7.83745 26.7739 7.74501C26.7867 7.78683 26.7995 7.82644 26.7653 7.82864C26.7141 7.7296 26.7568 7.7164 26.7055 7.61736C26.6457 7.63056 26.7333 7.77582 26.7311 7.84405C26.8102 7.89027 26.9576 8.27983 26.9341 8.34586C26.8636 8.24021 26.8081 8.22041 26.8187 8.08175C26.7632 8.07735 26.8102 8.16318 26.776 8.17859C26.8166 8.29083 26.8721 8.27103 26.9127 8.39428C26.8593 8.38988 26.8145 8.32385 26.7632 8.29964C26.8016 8.42289 26.8636 8.36346 26.9042 8.47571C26.8849 8.51973 26.8123 8.39648 26.8358 8.50212C26.8508 8.51313 26.8615 8.52633 26.8679 8.54174C26.8572 8.54394 26.8465 8.54614 26.8358 8.55054C26.8145 8.56155 26.791 8.57475 26.7696 8.58576C26.7739 8.57035 26.7824 8.55935 26.7974 8.55274C26.7418 8.46031 26.7525 8.4405 26.7418 8.34366C26.7012 8.36126 26.7333 8.51313 26.7568 8.59236C26.7098 8.61877 26.6628 8.64298 26.6137 8.66719C26.6094 8.66719 26.6008 8.66279 26.5923 8.65399C26.5838 8.62097 26.5731 8.59016 26.5624 8.55715C26.5603 8.51973 26.5539 8.48231 26.5197 8.4537C26.4791 8.35466 26.447 8.25782 26.4898 8.18299C26.3766 8.12577 26.2463 7.67458 26.2612 7.55353C26.2185 7.56233 26.1693 7.50291 26.1266 7.43248C26.1266 7.40607 26.1266 7.38186 26.1309 7.35545C26.1352 7.32023 26.1074 7.30703 26.0711 7.31583C26.0455 7.2498 26.0348 7.19698 26.0497 7.18818C25.9963 7.13756 25.9451 7.08473 25.8917 7.02751C25.8746 6.98349 25.8575 6.93948 25.8383 6.89546C25.8425 6.89546 25.8468 6.89766 25.8511 6.89986C25.7848 6.7524 25.7165 6.61594 25.6439 6.48389C25.6439 6.48169 25.6417 6.47948 25.6396 6.47728C25.4815 6.17576 25.2978 5.88304 25.0949 5.61233C25.0244 5.48907 24.9518 5.35922 24.8749 5.21616C24.8514 5.23597 24.8215 5.22276 24.7916 5.19195C24.7766 5.05109 24.6356 4.90803 24.5203 4.78038C24.4925 4.68354 24.4476 4.5911 24.39 4.50086C24.3942 4.49426 24.3985 4.48766 24.4071 4.48106C24.3665 4.42603 24.3494 4.41943 24.3366 4.42603C24.3195 4.40182 24.3002 4.37981 24.2832 4.35781C24.2063 4.26096 24.1208 4.16633 24.0418 4.07169C23.9585 3.97925 23.8794 3.88681 23.8175 3.78997C23.6252 3.47964 23.433 3.16051 23.2151 2.85678C22.9908 2.56406 22.7345 2.28895 22.3991 2.11508C22.3329 2.06005 22.3286 2.15689 22.2688 2.11288C22.0723 1.9236 21.8117 1.75193 21.5489 1.56925C21.2755 1.40418 21.0021 1.22371 20.7415 1.06964C20.3783 0.836347 20.0622 0.539223 19.6542 0.382959C19.4149 0.299324 19.1992 0.239899 18.9963 0.222292C18.7933 0.206886 18.6054 0.224493 18.4281 0.281717C18.0735 0.127653 17.5715 0.297123 17.2532 0.0440182C17.1742 0.0550228 17.1656 0.138657 17.0353 0.0946392C16.9413 0.074831 16.952 0.0308128 16.9071 0C16.8858 0.101242 16.9392 0.0902374 16.8644 0.162867C17.14 0.187078 17.2596 0.237698 17.5095 0.211288C17.5715 0.239899 17.5864 0.277315 17.6868 0.301525C18.2422 0.310329 18.9044 0.36315 19.6029 0.605251C20.2737 0.847351 20.8312 1.34696 21.3225 1.49002C21.4122 1.56485 21.3161 1.62207 21.3716 1.6925C21.6408 1.76733 21.7497 2.02044 22.0167 2.18771C22.2004 2.31316 22.429 2.33077 22.6277 2.49143C22.8242 2.6609 22.9588 2.82817 23.0997 3.00424C23.2343 3.18472 23.3732 3.374 23.5761 3.59189C23.5761 3.60509 23.5804 3.6161 23.5825 3.6293C23.4842 3.54567 23.4159 3.46644 23.26 3.34318C23.2813 3.30357 23.3411 3.40041 23.3668 3.3784C23.2535 3.25735 23.1531 3.18252 23.0677 3.10549C22.9823 3.02845 22.9118 2.94702 22.8498 2.82377C22.8028 2.8986 22.6768 2.74894 22.617 2.78415C22.7494 2.91401 22.9203 3.07687 22.9182 3.21333C22.7879 3.1407 22.8092 3.01965 22.7323 3.01525C22.8135 3.17371 22.9096 3.25955 23.0228 3.34098C23.1361 3.42242 23.2493 3.51266 23.3774 3.66232C23.3604 3.68213 23.339 3.67992 23.3155 3.67552C23.3817 3.79657 23.5142 3.87801 23.6124 3.95064C23.6338 3.98585 23.6594 4.01887 23.6829 4.05188C23.6658 4.04087 23.6487 4.03207 23.6274 4.02767C23.6487 4.07389 23.6765 4.12231 23.6936 4.16853C23.6744 4.15752 23.6573 4.15092 23.6466 4.15312C23.6701 4.17733 23.6915 4.20154 23.7107 4.22575C23.7149 4.24996 23.7171 4.27417 23.7107 4.29398C23.5398 4.19714 23.3817 4.15092 23.2279 4.1135C23.2044 4.07829 23.1873 4.04308 23.1745 4.01226L23.1361 4.05188C23.1596 4.07169 23.1745 4.08929 23.1873 4.1047C23.1638 4.1003 23.1425 4.0937 23.119 4.08929C23.1083 4.07829 23.0976 4.06729 23.0891 4.05408C23.1083 4.03427 23.072 3.94403 23.0442 4.00566C23.0741 4.03647 23.0805 4.05848 23.0698 4.07609C23.0164 4.04308 22.9545 4.02327 22.9118 3.97925C22.8648 3.93083 22.8477 3.8538 22.8092 3.79877C22.7558 3.72394 22.5956 3.72394 22.5593 3.80978C22.5465 3.83839 22.5337 3.8626 22.5187 3.88901C22.4696 3.8626 22.4205 3.83179 22.3713 3.79877C22.3906 3.70634 22.3777 3.6117 22.3372 3.51706C22.3307 3.50385 22.288 3.50165 22.2624 3.50165C22.2517 3.50165 22.2346 3.51266 22.2303 3.52366C22.2303 3.52806 22.2261 3.53246 22.2239 3.53907C22.1492 3.50605 22.0723 3.46203 22.053 3.3696C22.0317 3.39381 22.021 3.41802 22.0296 3.44883C22.0872 3.48845 22.1428 3.52146 22.209 3.58969C22.209 3.59629 22.209 3.60289 22.2111 3.60509C22.2432 3.63811 22.2581 3.67552 22.2709 3.71294C22.1193 3.56328 21.9783 3.43782 21.8394 3.34318C21.8074 3.32118 21.7754 3.30357 21.7454 3.28376C21.7497 3.27936 21.754 3.27496 21.7583 3.27055C21.7497 3.25955 21.7412 3.24855 21.7326 3.23754C21.7241 3.24634 21.7155 3.25295 21.7091 3.26175C21.6087 3.20233 21.5126 3.15611 21.4186 3.11649C21.3844 3.08128 21.3524 3.04606 21.3268 3.01525C21.2926 2.98884 21.2541 2.96683 21.2157 2.94262C20.6518 2.4122 19.9127 1.89939 19.1031 1.52303C18.2187 1.10266 17.2681 0.847351 16.4735 0.759315C16.2919 0.671278 16.121 0.605251 15.9331 0.565634C15.7451 0.523817 15.5443 0.493004 15.305 0.493004C15.0594 0.26631 14.5766 0.233297 14.1067 0.259708C13.9892 0.26631 13.8717 0.272913 13.7585 0.279516C13.6453 0.288319 13.5342 0.299324 13.4317 0.303726C13.2245 0.310329 13.045 0.303726 12.9126 0.257507C12.6883 0.545826 11.9321 0.475397 11.6672 0.378557C11.6352 0.482 11.5241 0.528219 11.3938 0.545826C11.2635 0.565634 11.1118 0.563433 10.9922 0.55463C10.9837 0.515013 11.1674 0.429178 10.9751 0.473196C10.8833 0.484201 10.8918 0.528219 10.8491 0.556831C10.7551 0.512812 10.6376 0.493004 10.58 0.418173C10.4069 0.442383 10.3962 0.515013 10.2232 0.539223C10.2553 0.473196 10.2724 0.402767 10.3727 0.356548C10.612 0.257507 10.6654 0.334539 10.8042 0.33894C10.785 0.270712 10.6974 0.270712 10.8277 0.220091C10.9239 0.378557 11.1183 0.116648 11.2656 0.246502C11.1802 0.268511 11.114 0.294922 11.0905 0.33894C11.2656 0.275114 11.4793 0.213488 11.6331 0.160667C11.5839 0.16947 11.5113 0.165068 11.5818 0.140858C10.7338 0.107845 9.94125 0.26631 9.19575 0.534822C8.44811 0.805534 7.74532 1.18409 7.03827 1.63528C6.92719 1.62207 6.76698 1.6991 6.61104 1.76293C6.23722 2.08867 5.95098 2.28895 6.01507 2.60808C6.4722 2.26694 6.81397 1.95221 7.62784 1.52963C7.8265 1.50322 8.00166 1.53404 8.10419 1.66169C7.51035 2.06666 6.7563 2.29775 6.24577 2.77975C6.17314 2.85018 6.1646 2.9052 6.09197 2.96463C5.64979 3.32778 5.39132 3.46424 5.08158 3.70413C4.4792 4.17073 3.97294 4.8244 3.48377 5.40764C3.37696 5.53749 3.17403 5.59472 3.16121 5.81041C3.3086 5.66075 3.46027 5.50228 3.5863 5.34381C3.7166 5.18755 3.83409 5.04009 3.90885 4.90803C4.07547 4.76938 4.29976 4.5801 4.51337 4.36881C4.7398 4.17073 4.95982 3.95064 5.15421 3.78777C5.26529 3.72394 5.36996 3.65792 5.47036 3.59189C5.57289 3.52806 5.66902 3.46424 5.763 3.39821C5.94885 3.26175 6.13042 3.1297 6.31626 2.99104C6.68794 2.71372 7.09167 2.42981 7.64493 2.1833C7.76668 2.28455 7.8799 2.19211 8.0636 2.11508C8.12342 2.26914 8.28362 2.26474 8.48656 2.18771C8.58055 2.09747 8.37121 2.11728 8.46947 2.04245C8.60404 2.03364 8.73221 2.03364 8.79629 2.13709C8.68949 2.1833 8.57627 2.25153 8.50792 2.24053C8.59763 2.34397 8.83047 2.21852 8.89242 2.36818C8.70658 2.47162 8.53355 2.59047 8.36693 2.70712C8.20459 2.83257 8.04652 2.95582 7.89272 3.08128C7.58511 3.33658 7.28392 3.58088 6.93146 3.78777C6.80116 3.78997 6.69222 3.73275 6.55123 3.76136C6.5491 3.90882 6.83106 3.77897 6.92933 3.8582C6.8567 3.96824 6.74348 4.07609 6.64095 4.18834C6.61104 4.22355 6.58114 4.25876 6.55123 4.29178C6.54482 4.29178 6.53842 4.29618 6.52987 4.29838C6.39743 4.33139 6.24363 4.37761 6.18382 4.52067C6.17314 4.54488 6.16032 4.56689 6.14964 4.5889C6.04924 4.66813 5.95739 4.74737 5.87408 4.8266C5.86981 4.8266 5.86554 4.831 5.85913 4.8332C5.85059 4.84641 5.8399 4.85521 5.83136 4.86622C5.81641 4.88162 5.79718 4.89703 5.78223 4.91464C5.67542 5.00047 5.53871 5.00487 5.39986 5.00267C5.35073 5.00267 5.3251 5.03128 5.31228 5.0775C5.30374 5.10391 5.29092 5.13253 5.27383 5.15233C5.23111 5.20075 5.19266 5.28659 5.11149 5.19635C5.03672 5.21396 4.99827 5.27338 4.97264 5.33721C4.92565 5.45606 4.86156 5.53969 4.72271 5.53089C4.69708 5.53089 4.6629 5.53969 4.64581 5.5573C4.54969 5.66295 4.40871 5.72897 4.36385 5.87864C4.33608 5.97548 4.25918 5.95567 4.19723 5.96667C4.18655 5.99088 4.178 6.0239 4.16305 6.0305C3.95158 6.09653 3.7935 6.23518 3.64397 6.39365C3.56494 6.47728 3.49231 6.55872 3.3791 6.60494C3.22743 6.66876 3.048 6.72599 3.0779 6.96589C3.08218 6.9967 3.03091 7.03631 3.001 7.06933C2.94974 7.12215 2.89847 7.17057 2.84293 7.21899C2.81516 7.2432 2.78953 7.30042 2.74467 7.2454C2.71476 7.20799 2.63786 7.18598 2.69767 7.11115C2.71476 7.08914 2.72758 7.06053 2.72758 7.03191C2.72758 7.0055 2.71049 6.97909 2.70195 6.95488C2.68913 6.96369 2.67845 6.97029 2.66563 6.97909C2.57164 7.05172 2.51397 7.15737 2.52038 7.26741C2.52465 7.32463 2.5396 7.36645 2.49688 7.41047C2.42639 7.4809 2.3623 7.56233 2.24909 7.56013C2.11238 7.56013 2.21277 7.63716 2.20209 7.68558C2.18073 7.77802 2.12947 7.89907 2.0547 7.93869C1.9778 7.98051 1.9244 8.03553 1.88381 8.09715C1.9009 8.01352 1.92013 7.92988 1.95217 7.84845C2.12733 7.35105 2.55028 6.81622 2.72331 6.32322C2.93478 6.25059 2.76603 6.17576 2.99887 5.99528C2.9711 5.93146 2.93692 5.81041 2.86856 5.84562C2.83866 5.83682 2.80448 5.86543 2.7703 5.89404C2.66777 6.17136 2.50329 6.33202 2.43707 6.59393C1.93081 7.12655 1.64243 7.76041 1.43309 8.4449C1.41387 8.4471 1.39678 8.4493 1.37542 8.4449C1.37755 8.47351 1.3925 8.49552 1.41173 8.50873C1.40746 8.52413 1.40319 8.53734 1.39891 8.55274C1.37969 8.61877 1.3626 8.6848 1.34551 8.75082C1.3092 8.77503 1.27288 8.79704 1.2323 8.81685C1.15967 8.84987 1.11054 8.91589 1.1084 9.01934C1.10413 9.31426 1.09772 9.31646 0.837114 9.47052C0.815753 9.48373 0.792255 9.49033 0.768758 9.49693C0.76235 9.54976 0.73458 9.58057 0.685449 9.58717C0.691858 9.6576 0.798664 9.72363 0.685449 9.80066C0.627774 9.84028 0.576507 9.8975 0.540193 9.95913C0.525241 9.98554 0.510288 10.0097 0.493199 10.034C0.493199 10.023 0.493199 10.0141 0.488927 10.0053C0.484654 10.023 0.478246 10.045 0.471838 10.0648C0.44834 10.0934 0.420571 10.1198 0.379984 10.1418C0.298812 10.1858 0.375712 10.2673 0.407754 10.3267C0.275315 10.4917 0.40989 10.736 0.253953 10.8945C0.253953 11.0112 0.271042 11.1344 0.243273 11.2445C0.211231 11.3699 0.15142 11.4822 0.170645 11.6208C0.185598 11.7221 0.132195 11.7837 0.0382054 11.8123C0.0211165 11.8167 -0.000244717 11.8717 0.00829976 11.8849C0.0681111 11.9796 0.0296609 12.0676 0.00616364 12.1578C0.115106 12.2965 0.0894723 12.4638 0.0830639 12.6222C0.0766556 12.7785 0.12365 12.9458 0.00829976 13.0866C-0.0130614 13.113 0.00829976 13.1747 0.0552944 13.1923C0.108697 13.2143 0.164236 13.2275 0.159964 13.3045C0.159964 13.3639 0.159964 13.4212 0.164236 13.4806C0.179189 13.7227 0.132195 13.9736 0.249681 14.2069C0.264634 14.2355 0.241137 14.2905 0.22832 14.3301C0.215503 14.3654 0.168509 14.3896 0.211231 14.438C0.277451 14.5106 0.260362 14.603 0.253953 14.6889C0.241137 14.8738 0.243273 14.9574 0.283859 15.0322C0.34367 15.1445 0.390665 15.2677 0.495335 15.3536C0.535921 15.3866 0.585052 15.4438 0.587188 15.4922C0.593596 15.6265 0.61923 15.7497 0.681177 15.8642C0.655544 16.0931 0.76235 16.2823 0.858475 16.4738C0.871292 16.498 0.892653 16.5421 0.901197 16.5399C1.06568 16.4958 1.09131 16.6719 1.19171 16.7269C1.29211 16.782 1.39678 16.8326 1.50145 16.8832C1.52067 16.9316 1.5399 16.9822 1.55912 17.0329C1.55271 17.0483 1.55912 17.0615 1.57407 17.0703C1.59116 17.1187 1.60825 17.1715 1.62534 17.2221C1.56553 17.286 1.52494 17.3454 1.58903 17.4576C1.65738 17.5765 1.68088 17.7239 1.71506 17.8604C1.72574 17.9066 1.73856 17.9462 1.77914 17.9594C1.83895 17.9792 1.87527 17.9925 1.83468 18.0717C1.80478 18.1333 1.81973 18.228 1.77914 18.2764C1.67874 18.393 1.81118 18.4568 1.82186 18.5471C1.82614 18.5933 1.89877 18.5889 1.92867 18.5647C2.00771 18.5009 2.07179 18.4216 2.14869 18.3578C2.22346 18.2962 2.18073 18.2522 2.15724 18.1817C2.11024 18.0431 2.13801 17.8956 2.15724 17.7504C2.15724 17.7393 2.17432 17.7305 2.18287 17.7195C2.19141 17.7305 2.21064 17.7416 2.21064 17.7526C2.21705 17.8692 2.32812 17.9132 2.37085 18.0013C2.39221 18.0431 2.28754 18.1113 2.37085 18.1355C2.49901 18.1729 2.55028 18.2632 2.59087 18.3776C2.64 18.5119 2.68699 18.6461 2.74467 18.776C2.80662 18.919 2.88138 19.0599 2.9476 19.2008C2.96469 19.2382 2.99673 19.2822 2.99246 19.3174C2.97323 19.4671 3.04159 19.5771 3.14412 19.6585C3.25306 19.7444 3.25306 19.8522 3.25093 19.9733C3.24879 20.0459 3.23811 20.1229 3.29792 20.178C3.41541 20.2858 3.456 20.4443 3.5393 20.5741C3.57562 20.6313 3.58416 20.5477 3.59912 20.5191C3.6098 20.4971 3.62902 20.4795 3.64397 20.4597C3.65252 20.4707 3.66961 20.4839 3.66961 20.4949C3.66534 20.6666 3.71233 20.836 3.62261 21.0055C3.56067 21.1222 3.59912 21.252 3.67174 21.3753C3.7935 21.5799 3.80846 21.6108 3.99857 21.6768C4.15878 21.7318 4.18655 21.7626 4.19082 21.9145C4.19509 22.0465 4.18014 22.1808 4.30404 22.2732C4.3254 22.2886 4.35317 22.3194 4.35317 22.3437C4.35317 22.5483 4.50056 22.6518 4.62018 22.7728C4.7099 22.8631 4.78253 22.9819 4.91924 23.0127C4.98118 23.147 5.09226 23.2394 5.17771 23.3539C5.2717 23.4815 5.46181 23.4903 5.50881 23.6664C5.51521 23.695 5.54939 23.6862 5.56435 23.6488C5.57503 23.6224 5.57289 23.5916 5.58571 23.5652C5.58998 23.5564 5.59639 23.5476 5.60066 23.5388C5.66688 23.5938 5.74164 23.6488 5.81427 23.7016C5.763 23.6488 5.70319 23.5542 5.64125 23.4727C5.64338 23.4661 5.64765 23.4617 5.64765 23.4551C5.66047 23.3847 5.6092 23.3627 5.54939 23.3451C5.51308 23.3341 5.46608 23.2989 5.45327 23.2658C5.44472 23.2416 5.43191 23.2218 5.42123 23.1998C5.42763 23.1998 5.43404 23.1998 5.44472 23.2042C5.42977 23.1844 5.41695 23.1756 5.40414 23.1668C5.33151 23.0501 5.22257 22.9643 5.1478 22.8499C5.0944 22.7662 5.00255 22.6826 5.00255 22.5968C5.00255 22.4911 5.07517 22.3855 5.11576 22.2798C5.13071 22.2402 5.14353 22.2006 5.16062 22.161C5.16489 22.1478 5.17771 22.1368 5.18839 22.128C5.23538 22.095 5.20121 22.1126 5.21189 22.161C5.23538 22.271 5.29306 22.2974 5.39132 22.2952C5.48317 22.293 5.45754 22.3393 5.43404 22.4009C5.39773 22.4999 5.5024 22.4515 5.53444 22.4823C5.56648 22.5109 5.57289 22.5395 5.5323 22.5439C5.39559 22.5527 5.43404 22.6276 5.46608 22.7046C5.39559 22.7728 5.39346 22.8587 5.41482 22.9467C5.41695 22.9599 5.42763 22.9775 5.43831 22.9819C5.44686 22.9863 5.46395 22.9731 5.47249 22.9643C5.5024 22.9335 5.54726 22.9049 5.5558 22.8675C5.59639 22.7002 5.69465 22.6364 5.85913 22.6364C5.92108 22.6694 5.98302 22.687 6.03216 22.6716C6.01507 22.7112 6.00652 22.7486 6.01934 22.7904C6.00866 22.7838 6.00225 22.7794 6.00011 22.7772C6.00866 22.7882 6.01934 22.797 6.02788 22.808C6.03643 22.8279 6.04924 22.8455 6.07274 22.8653C6.09624 22.8851 6.08769 22.9291 6.07274 22.9687C6.05138 22.9533 6.03002 22.9357 6.00439 22.9203C6.03643 22.8477 5.89331 22.6936 5.88476 22.7816C6.03002 22.7992 5.88049 22.8631 5.9104 22.8939C5.95953 22.9203 6.00011 22.9753 6.04497 23.0281C6.00439 23.1162 5.96807 23.2086 5.9403 23.3011C5.89331 23.4485 5.89544 23.5894 6.03643 23.6906C6.16887 23.7853 6.20305 23.9173 6.17741 24.0736C6.171 24.1154 6.17741 24.1616 6.17314 24.2056C6.171 24.2254 6.17314 24.243 6.17314 24.2607C6.15178 24.2563 6.12828 24.2518 6.10265 24.243C6.12828 24.2695 6.15391 24.2893 6.17955 24.3069C6.18168 24.3201 6.18596 24.3333 6.19023 24.3443C6.02147 24.2584 5.84845 24.1154 5.67329 23.9613C5.53658 23.8381 5.39773 23.7104 5.26743 23.5916C5.14139 23.4683 5.02604 23.3495 4.91283 23.2658C4.95555 23.3055 4.78253 23.2152 4.73553 23.1272C4.73553 23.279 4.98118 23.5498 5.01964 23.7588C5.12217 23.8557 5.18412 23.9371 5.19693 24.0163C5.24179 24.0516 5.28024 24.0758 5.31228 24.0824C5.26102 24.2364 5.89758 24.6634 5.77155 24.7052C5.88476 24.7537 5.9873 24.7691 6.1411 24.8659C6.17528 24.8351 6.11119 24.7999 6.16032 24.7691C6.23936 24.8219 6.30558 24.8527 6.34616 24.8417C6.17955 24.7272 6.11119 24.7933 5.9638 24.7096C6.01934 24.67 5.95526 24.5908 5.8869 24.5842C5.81 24.6084 5.97234 24.6612 5.93817 24.6898C5.89544 24.6612 5.89331 24.714 5.83777 24.6612C5.94671 24.6172 5.61134 24.5028 5.58571 24.3817C5.6092 24.3553 5.63697 24.3443 5.6797 24.3597C5.85699 24.5248 5.80145 24.4037 5.90399 24.4345C5.99157 24.4873 5.94671 24.5292 6.00652 24.5798C6.06847 24.516 6.21586 24.6084 6.32053 24.6942C6.46792 24.7471 6.62172 24.7581 6.76484 24.7757C6.77339 24.7823 6.7798 24.7889 6.78834 24.7955C6.86951 24.8703 6.96564 24.9297 7.05749 24.9936C7.07885 25.009 7.10876 24.9936 7.1109 24.9583C7.11517 24.8725 7.15148 24.7735 7.09167 24.7052C7.0105 24.6128 6.94855 24.4829 6.79048 24.4961C6.7563 24.4984 6.70503 24.4719 6.68367 24.4411C6.65377 24.3971 6.626 24.3509 6.59609 24.3069C6.6025 24.3025 6.61318 24.3003 6.626 24.2959C6.6025 24.2849 6.58541 24.2739 6.56832 24.2629C6.52346 24.1924 6.48074 24.1198 6.43588 24.0472C6.4786 23.9283 6.51705 23.8073 6.56619 23.6906C6.58541 23.6488 6.59609 23.6114 6.58327 23.5696C6.579 23.5586 6.55978 23.541 6.55978 23.541C6.40384 23.6708 6.37821 23.4837 6.30558 23.4265C6.25004 23.3847 6.2479 23.3143 6.25218 23.2482C6.34403 23.2152 6.38034 23.3979 6.48501 23.3539C6.49356 23.3627 6.50424 23.3737 6.51492 23.3825C6.57259 23.4683 6.67299 23.574 6.78621 23.6554C6.90369 23.7434 7.01477 23.8205 7.06817 23.8689C7.05963 23.8491 7.12158 23.8227 7.14294 23.8315C7.20061 23.9239 7.50394 23.9657 7.36296 23.9877C7.45481 24.0538 7.49753 24.023 7.55094 24.0141C7.32451 23.9239 7.14721 23.772 6.98273 23.7522C6.95496 23.6466 6.81184 23.5806 6.70503 23.5101C6.66445 23.4815 6.62813 23.4573 6.60036 23.4309C6.61745 23.4287 6.63881 23.4177 6.6559 23.4111C6.66231 23.4111 6.66658 23.3869 6.66231 23.3803C6.64949 23.3539 6.626 23.3341 6.61745 23.3055C6.60464 23.2658 6.59182 23.2174 6.63881 23.191C6.67513 23.1712 6.71571 23.1624 6.7563 23.1932C6.78834 23.2174 6.82252 23.235 6.8567 23.2548C6.86097 23.2989 6.8567 23.3495 6.87592 23.3803C6.89515 23.4089 6.94428 23.4221 6.98273 23.4287C7.0404 23.4375 7.09808 23.4287 7.15362 23.4485C7.12585 23.4595 7.09594 23.4551 7.1643 23.4947C7.18993 23.4947 7.21984 23.4991 7.24974 23.5079C7.26042 23.5145 7.2711 23.5167 7.28179 23.5189C7.44199 23.5762 7.63211 23.7236 7.75387 23.7456C7.6791 23.695 7.60647 23.6488 7.53598 23.6004C7.57871 23.6004 7.62143 23.6004 7.66629 23.6004C7.67697 23.6004 7.68978 23.585 7.69406 23.574C7.69619 23.5696 7.68765 23.552 7.68124 23.5476C7.62143 23.5057 7.55948 23.5079 7.49967 23.5476C7.49326 23.552 7.49112 23.5608 7.48685 23.5696C7.44627 23.5432 7.40782 23.5145 7.36937 23.4881C7.40782 23.4595 7.44413 23.4265 7.49112 23.4353C7.54026 23.4441 7.59152 23.4419 7.64279 23.4353C7.68765 23.4815 7.73678 23.5255 7.79232 23.552C7.80727 23.5035 7.89271 23.596 7.89912 23.5299C7.90553 23.5145 7.89912 23.4991 7.89272 23.4837C7.97816 23.5299 8.06147 23.5233 8.14905 23.5211C8.2409 23.5189 8.29858 23.5343 8.33276 23.6466C8.34984 23.7038 8.39043 23.7478 8.44597 23.772C8.43743 23.8051 8.46947 23.8447 8.51005 23.8843C8.4182 23.8799 8.38402 23.9701 8.27081 23.9327C8.3178 23.9591 8.35198 23.9855 8.35839 24.0163C8.32208 24.045 8.24304 24.0053 8.21741 24.0494C8.32208 24.0758 8.43743 24.1484 8.5421 24.2474C8.57841 24.1572 8.73007 24.2651 8.7728 24.2959C8.72153 24.3289 8.64249 24.3025 8.57627 24.243C8.59336 24.3443 8.46306 24.2166 8.46092 24.2915C8.55918 24.3641 8.92233 24.3003 9.0035 24.4983C8.77066 24.3773 8.69376 24.4389 8.53782 24.4103C8.45879 24.4917 8.48442 24.5578 8.5485 24.6172L8.56773 24.5688C8.62754 24.5886 8.63395 24.615 8.66813 24.637C8.64463 24.6436 8.62327 24.6524 8.65531 24.6722C8.63181 24.7118 8.619 24.6326 8.55491 24.6216C8.63608 24.6942 8.77066 24.7581 8.84756 24.8351C9.09535 24.9011 9.42218 25.1344 9.62938 25.141C9.54821 25.0882 9.34528 25.0486 9.34955 24.9407C9.43713 24.8747 9.50121 25.0442 9.55675 24.9759C9.4414 24.9077 9.37518 24.9297 9.35168 24.8417C9.388 24.8549 9.38586 24.8197 9.4179 24.8263C9.52257 24.8879 9.63365 24.9848 9.60161 25.031C9.61016 24.9715 9.66783 25.1058 9.69133 25.0442C9.65501 25.0134 9.66783 24.9715 9.66142 24.9341C9.52471 24.8901 9.44354 24.8307 9.4414 24.7559C9.62084 24.7404 9.74046 24.8329 9.87503 24.8461C9.90067 24.8989 9.93271 24.9473 9.9733 24.9892C10.0096 25.0266 10.0481 25.0178 10.0886 25.0024C10.1228 24.9892 10.142 24.9341 10.1933 24.9671C10.2638 25.0112 10.3493 25.0398 10.4069 25.097C10.5372 25.2335 10.6889 25.3259 10.8598 25.3941C10.8598 25.3941 10.8598 25.3963 10.8619 25.3985C10.8576 25.4051 10.8512 25.4117 10.8491 25.4205C10.6868 25.3941 10.5714 25.4359 10.4091 25.3479C10.4155 25.3633 10.4283 25.3699 10.439 25.3809C10.3364 25.3589 10.2318 25.3391 10.125 25.3193C10.0523 25.4337 10.2467 25.3171 10.2382 25.4117C10.1698 25.4293 9.94553 25.3787 9.94125 25.2995C9.99252 25.3237 10.0459 25.3479 10.0951 25.3633C10.0801 25.3215 10.0117 25.2951 9.95193 25.2687C9.9498 25.2687 9.94553 25.2687 9.94339 25.2687C9.90707 25.2511 9.8729 25.2335 9.85795 25.207C9.83658 25.218 9.69346 25.196 9.75755 25.2313C9.75968 25.2313 9.76609 25.2335 9.76823 25.2357C9.55462 25.1872 9.35596 25.1124 9.16584 25.0552C8.92446 24.9715 8.69376 24.9055 8.45451 24.9055C8.40752 24.8021 8.31353 24.7625 8.21527 24.7537C7.96107 24.6766 7.76455 24.5182 7.63211 24.3839C7.55094 24.4829 7.43131 24.2166 7.31169 24.2122C7.31383 24.1836 7.2946 24.166 7.33732 24.1638C7.08313 24.1462 7.06604 23.8601 6.79902 23.7676C6.90156 23.8469 6.65163 23.7941 6.85456 23.9107C6.9101 23.8953 6.82466 23.8095 6.89301 23.8469C6.82893 23.9393 7.05322 24.0516 7.08526 24.1836C7.27965 24.1836 7.37791 24.3597 7.58298 24.4829C7.58725 24.5248 7.58725 24.6524 7.6791 24.6348C7.56375 24.5864 7.72823 24.5864 7.74746 24.5644C7.85854 24.6172 7.94825 24.6942 8.04011 24.7625C7.97602 24.7757 7.92262 24.7955 7.89272 24.8153C7.91835 24.8263 7.94185 24.8351 7.96748 24.8461C7.96748 24.8659 7.96748 24.8769 7.9333 24.9011C8.05292 24.9848 8.08283 24.9363 8.15119 24.9451C8.0636 25.0398 8.45451 25.1432 8.52928 25.2489C8.53782 25.2092 8.572 25.207 8.63608 25.2313C8.61472 25.2511 8.58909 25.2467 8.61686 25.2841C9.17866 25.4844 9.69774 25.6384 10.2125 25.7969C10.4027 25.7837 10.9196 25.8563 10.8598 26.0368C11.4857 26.2415 12.1564 26.2833 12.8592 26.3449C13.0963 26.2591 13.3868 26.3031 13.6026 26.3229C13.5705 26.3185 13.6666 26.2767 13.7265 26.2987C13.9486 26.3735 13.5748 26.4484 13.3889 26.4396C13.5513 26.4374 13.3932 26.5628 13.3612 26.6068C13.0066 26.642 12.7182 26.6266 12.4063 26.6596C12.323 26.6486 12.3145 26.6002 12.2184 26.5936C12.0795 26.6596 11.9407 26.5232 11.7783 26.5188C11.6843 26.5144 11.6074 26.587 11.5156 26.5738C11.4109 26.5606 11.3276 26.4704 11.24 26.4572C11.1866 26.4484 11.0905 26.4682 11.0456 26.4638C11.0499 26.4638 11.0734 26.4307 11.0819 26.433C10.988 26.4175 10.9324 26.4616 10.8512 26.4528C10.8363 26.4528 10.8363 26.3933 10.8299 26.3911C10.7231 26.3339 10.5671 26.3955 10.4432 26.3713C10.3642 26.2965 10.565 26.3141 10.4304 26.2723C10.4091 26.3317 10.2788 26.2877 10.2232 26.3163C10.157 26.1931 9.87076 26.2349 9.93271 26.1446C9.82377 26.1314 9.6721 26.1204 9.52685 26.0852C9.38373 26.05 9.24274 26.0104 9.14875 25.973C9.18293 25.9884 9.17225 26.0126 9.16371 26.0368C8.93514 25.9532 8.86038 25.9267 8.7258 25.9157C8.73221 25.8981 8.75784 25.9047 8.76852 25.8915C8.5955 25.8299 8.43315 25.7837 8.2943 25.7199C8.15546 25.656 8.0337 25.5944 7.93544 25.535C7.89699 25.5438 7.86495 25.5636 7.81795 25.5614C7.76241 25.4822 7.73678 25.491 7.66415 25.5064C7.61929 25.4469 7.67483 25.3897 7.57657 25.3809C7.65561 25.4778 7.43559 25.3809 7.36937 25.3611C7.38432 25.3281 7.29887 25.2995 7.3416 25.2643C7.35228 25.2225 7.43559 25.2885 7.45267 25.2577C7.26042 25.1674 7.23693 25.218 7.18352 25.2907C7.2412 25.3523 7.35869 25.4117 7.4249 25.4734C7.52317 25.4051 7.81368 25.6164 7.86708 25.689C7.82863 25.6714 7.82863 25.7066 7.79445 25.6934C7.79873 25.6714 7.82009 25.6472 7.78591 25.6274C7.56803 25.6494 7.40782 25.4998 7.18139 25.3721C7.2177 25.4734 7.10021 25.3941 7.06604 25.4579C7.30101 25.5746 7.54026 25.6868 7.75173 25.7947C7.6727 25.7155 7.86067 25.7859 7.89912 25.7837C7.94612 25.8365 8.09565 25.9664 8.14691 25.9642C8.11274 25.9443 8.12555 25.9223 8.13623 25.8981C8.22809 26.0412 8.43315 26.0742 8.60191 26.1666C8.40966 26.083 8.48442 26.16 8.33489 26.1248C8.46306 26.1997 8.53141 26.2525 8.65317 26.2239L8.63608 26.2767C8.79202 26.3031 8.97573 26.3845 9.17011 26.4704C9.26838 26.5122 9.36664 26.5584 9.46704 26.5936C9.56957 26.6244 9.6721 26.6464 9.7725 26.6574C9.7725 26.6795 9.75541 26.7081 9.79173 26.7213C10.1442 26.7411 10.6163 26.9942 10.8 26.9502C10.8 27.025 10.6334 27.0162 10.5629 26.9546C10.5629 27.0866 10.7679 27.036 10.8534 27.0338C10.8491 27.0338 10.8534 27.0712 10.847 27.0712C10.9815 27.0712 11.052 26.9986 11.193 27.0118C11.3725 27.0272 11.4109 27.1328 11.648 27.135C11.5882 27.0382 11.8915 27.1637 11.9834 27.1262C11.8061 27.0976 11.9086 27.0888 12.0517 27.1042C12.1949 27.1152 12.3828 27.1306 12.3786 27.1945C12.2696 27.1835 12.2504 27.2297 12.1756 27.2385C12.3593 27.2407 12.2718 27.2627 12.3038 27.3397C12.4533 27.3265 12.4683 27.3793 12.5708 27.3903C12.558 27.3309 12.4234 27.3309 12.3743 27.2869C12.4192 27.2891 12.4469 27.2825 12.4747 27.2737C12.5516 27.3001 12.5986 27.3969 12.6733 27.3199C12.6691 27.3529 12.6798 27.3793 12.7054 27.3969C12.4341 27.4058 12.2483 27.4146 12.0667 27.408C11.8873 27.3881 11.7121 27.3529 11.4643 27.2803C11.3105 27.2869 11.1567 27.2473 11.0029 27.2121C10.847 27.1769 10.691 27.1504 10.5265 27.1571C10.5287 27.1218 10.4197 27.1174 10.439 27.0778C10.0182 27.025 9.62511 26.7367 9.26197 26.7609C9.35168 26.7983 9.48626 26.8159 9.47772 26.8687C9.37518 26.8445 8.90737 26.7345 9.04836 26.6464C8.96932 26.6288 8.89456 26.62 8.78775 26.5716C8.71512 26.6288 8.95223 26.6354 8.93087 26.6839C8.78348 26.6398 8.44811 26.554 8.37548 26.4197C8.08283 26.3207 7.83931 26.1953 7.61929 26.0874C7.40141 25.9752 7.21129 25.8607 7.05322 25.7243C6.99341 25.8013 7.0105 25.656 6.94855 25.6296C6.86311 25.6076 6.93573 25.7265 6.87806 25.6956C6.84815 25.678 6.83747 25.689 6.81184 25.678C6.69222 25.6252 6.72853 25.5746 6.66231 25.524C6.6025 25.5482 6.46792 25.4469 6.35471 25.3809C6.39957 25.2445 6.14964 25.1938 6.03643 25.1168C5.80146 24.9693 5.56221 24.7471 5.32296 24.5512C5.09013 24.3487 4.85729 24.1704 4.69494 24.023C4.92137 24.2915 5.04954 24.3135 5.2247 24.56C5.40627 24.6524 5.58357 24.7955 5.763 24.9473C5.94671 25.0926 6.1411 25.2335 6.33335 25.3457C6.30558 25.3831 6.35044 25.4227 6.34616 25.4623C6.29917 25.4646 6.22227 25.4205 6.17314 25.4205C6.26713 25.5262 6.6324 25.6142 6.77125 25.8277C6.81397 25.7837 6.89515 25.8695 6.96137 25.9091C7.11517 25.8453 7.57016 26.0786 7.73678 26.1842C7.71542 26.2129 7.45695 26.0522 7.53812 26.1292C7.62997 26.1732 7.7261 26.2173 7.7026 26.2701C7.64493 26.2547 7.52957 26.1622 7.51035 26.1975C7.59793 26.2701 7.81368 26.3361 7.71542 26.4197C7.84145 26.4946 7.70046 26.3339 7.83718 26.3955C7.83718 26.4131 7.85427 26.4285 7.89272 26.4418C7.90126 26.5408 7.803 26.499 7.75173 26.5188C7.87349 26.631 7.9098 26.565 7.92903 26.5408C8.00807 26.6332 7.82222 26.5672 7.88844 26.6442C8.0102 26.7389 8.15973 26.7961 8.23236 26.8225C8.19604 26.8049 8.1875 26.7829 8.17896 26.7631C8.23236 26.7961 8.33276 26.7631 8.3413 26.8247C8.30285 26.8137 8.24945 26.7873 8.23663 26.8049C8.40325 26.9216 8.71512 26.9898 8.79843 27.113C8.88601 27.1196 8.75571 27.0382 8.85397 27.0536C9.05049 27.0954 9.00563 27.1769 9.12953 27.2319C9.15516 27.2121 9.11671 27.1262 9.1872 27.1549C9.30042 27.2077 9.5183 27.2165 9.47344 27.2979C9.43499 27.3023 9.21284 27.2451 9.29401 27.2891C9.49267 27.3067 9.61656 27.3815 9.71696 27.3243C9.84726 27.3815 9.66997 27.4146 9.79386 27.4586C9.84299 27.4586 9.81522 27.3903 9.87717 27.4036C9.91348 27.4476 10.2574 27.617 10.1057 27.5004C10.2467 27.5532 10.2745 27.5576 10.4774 27.6104C10.4881 27.584 10.4774 27.54 10.5244 27.5444C10.8042 27.6391 11.0755 27.6677 11.3361 27.7051C11.5967 27.7359 11.8488 27.7711 12.103 27.8195C12.118 27.7887 12.0539 27.7689 12.1073 27.7645C12.2995 27.8041 12.4576 27.8393 12.59 27.7711C12.59 27.7975 12.573 27.8107 12.5537 27.8261C12.6968 27.7997 12.8763 27.8481 13.0044 27.8834C12.9083 27.9538 12.731 27.8834 12.6883 28C12.9318 28 13.0386 27.8503 13.3163 27.8922C13.3633 27.8503 13.2266 27.8195 13.3163 27.8173C13.421 27.8437 13.4509 27.8393 13.5235 27.8019C13.5235 27.8657 13.6282 27.8657 13.6987 27.8878C13.97 27.8041 14.2455 27.9164 14.4891 27.7865C14.6279 27.7887 14.7817 27.7909 14.9419 27.7777C15.1021 27.7579 15.2666 27.7337 15.4268 27.7029C15.7494 27.6435 16.0527 27.5686 16.262 27.4938C16.3026 27.5356 16.4543 27.4674 16.4521 27.5444C16.6294 27.4278 16.764 27.5114 16.8815 27.3925C16.8388 27.4014 16.8003 27.408 16.8046 27.3749C16.8815 27.3375 16.89 27.3397 17.0332 27.2935C17.0438 27.3199 17.046 27.3573 17.1165 27.3287C17.1912 27.1835 17.4903 27.2231 17.6569 27.1945C17.6569 27.157 17.5992 27.1725 17.5715 27.1615C17.6996 27.1174 17.9282 27.0096 17.9902 27.091C17.9132 27.1416 17.8492 27.058 17.8214 27.135C17.8684 27.1218 17.8727 27.1593 17.9047 27.1637C18.2273 26.9304 18.725 26.7719 18.9599 26.6927C19.0433 26.6596 19.0561 26.5826 19.0945 26.565C19.1928 26.521 19.306 26.5584 19.4619 26.444C19.4342 26.4638 19.5068 26.4241 19.5858 26.3801C19.6179 26.3647 19.9233 26.1644 20.0387 26.1886C20.075 26.2239 19.808 26.3383 19.9105 26.3185C20.0195 26.2547 20.0472 26.2151 20.1604 26.1886C20.1241 26.1534 20.1562 26.116 20.2053 26.0874C20.2523 26.0566 20.3185 26.0324 20.3548 26.0346C20.2758 26.1204 20.1391 26.1975 20.1263 26.2723C20.31 26.1512 20.6069 25.8519 20.6688 26.0126C20.6603 25.9972 20.7094 25.9598 20.7287 25.9752C20.6304 26.0918 20.6987 26.094 20.6154 26.1997C20.7692 26.0082 20.9572 25.9201 21.1367 25.8233C21.3139 25.7243 21.4912 25.6318 21.5852 25.4073C21.613 25.4315 21.5767 25.4645 21.6002 25.4888C21.6899 25.4227 21.6472 25.3809 21.7754 25.3061C21.7903 25.3391 21.8309 25.3149 21.848 25.3435C21.9163 25.2819 21.9975 25.2158 22.0231 25.1608C21.9035 25.2643 21.8266 25.2753 21.7711 25.2401C21.974 25.1168 22.0146 24.9803 22.241 24.9187C22.1193 24.9936 22.1919 25.0288 22.068 25.1014C22.1214 25.1146 22.1492 25.1872 22.2474 25.1014C22.2346 25.0772 22.1962 25.0552 22.2303 25.0222C22.2603 25.0992 22.6533 24.8373 22.7964 24.6964C22.7793 24.6194 22.696 24.7184 22.6725 24.6612C22.7174 24.648 22.7793 24.5908 22.8413 24.5292C22.8156 24.6128 22.8306 24.593 22.8883 24.637C22.9844 24.571 22.884 24.5578 22.9566 24.4983C22.9993 24.5534 23.119 24.3971 23.1766 24.4191C23.2493 24.2651 23.3176 24.2717 23.3326 24.3201C23.3967 24.188 23.4479 24.1638 23.4778 24.0538C23.5462 24.0384 23.4928 24.0736 23.5291 24.1066C23.6274 23.9855 23.621 24.0031 23.7235 23.9437C23.7491 23.8909 23.7491 23.8447 23.7705 23.7875C23.841 23.7654 23.8773 23.6862 23.8346 23.7985C24.1272 23.5255 24.0589 23.2834 24.2148 23.169C24.1272 23.0634 24.2746 22.9731 24.3964 22.9005C24.3964 22.8367 24.2832 22.9269 24.3408 22.8543C24.4348 22.8036 24.4882 22.742 24.5587 22.6188C24.6228 22.6298 24.5694 22.7002 24.5886 22.7332C24.6121 22.6496 24.7061 22.5792 24.7018 22.5483C24.6634 22.5836 24.6271 22.6012 24.595 22.6012C24.6463 22.5329 24.6335 22.4977 24.7082 22.4163L24.751 22.4493C24.8492 22.1434 25.1675 21.8529 25.1761 21.6966C25.2273 21.5931 25.2572 21.6614 25.3042 21.6108C25.285 21.5953 25.2615 21.6019 25.238 21.6108C25.2615 21.5205 25.5862 21.2278 25.3918 21.3687C25.4837 21.2278 25.5712 21.2212 25.5862 21.1089C25.5392 21.1794 25.5029 21.1552 25.5392 21.0803C25.5371 21.1376 25.5755 21.1332 25.6225 21.0473C25.614 21.0011 25.6439 20.9307 25.6652 20.8646C25.6588 20.9725 25.7763 20.7392 25.787 20.6864C25.7699 20.7084 25.7507 20.748 25.7357 20.7392C25.7656 20.6732 25.8276 20.4883 25.8959 20.4597C25.9066 20.4905 25.8297 20.5807 25.8575 20.6027C25.9451 20.5125 25.9152 20.4509 25.9664 20.3364C26.0924 20.3408 26.0476 19.9777 26.1864 20.0063C26.0924 20.1207 26.0818 20.2484 26.0604 20.3562C26.0369 20.4619 26.0113 20.5521 25.9066 20.5917C25.9942 20.6468 25.8788 20.7216 25.8276 20.8778C25.8981 20.8712 25.8383 20.9483 25.8553 20.9769C25.9515 20.8382 25.8895 20.8778 25.8959 20.8338C25.9301 20.814 25.9664 20.7216 25.9985 20.7656C25.9792 20.803 25.9451 20.8536 25.96 20.869C26.022 20.7304 26.0796 20.6754 26.133 20.6732C26.1608 20.5785 26.2035 20.5103 26.2591 20.4179C26.3103 20.321 26.3723 20.2022 26.447 20.0129C26.447 19.9381 26.3744 20.0349 26.4129 19.916C26.6842 19.5177 26.7269 19.0643 26.8764 18.7298C26.8486 18.6395 26.7568 18.7562 26.8102 18.5889C26.8636 18.5141 26.8914 18.5493 26.9255 18.5911C26.9683 18.2522 27.1413 18.0849 27.2374 17.7349C27.1306 17.5501 27.3955 17.1033 27.3271 16.8568C27.3122 17.0263 27.2609 17.2375 27.1797 17.3036C27.1498 17.1561 27.2267 16.7423 27.3357 16.8216C27.3186 16.6169 27.4916 16.4782 27.3976 16.3924C27.5279 16.377 27.5877 15.9676 27.5813 15.7277C27.5813 15.7629 27.6091 15.6771 27.6198 15.5869C27.6475 15.3492 27.686 15.0828 27.7138 14.8209C27.7244 14.6163 27.7223 14.4116 27.7052 14.2245C27.7244 14.2245 27.7458 14.2245 27.7714 14.2355C27.7565 14.011 27.7415 13.7887 27.7266 13.5686C27.7309 13.573 27.7351 13.5752 27.7458 13.5686C27.7159 13.4586 27.7244 13.419 27.7095 13.3155C27.7031 13.2407 27.6988 13.1681 27.6924 13.0932C27.7287 13.0008 27.7565 12.8335 27.765 12.7389C27.7693 12.8093 27.8163 12.7807 27.8078 12.8797C27.7821 13.0382 27.7928 13.2341 27.8612 13.3485C27.8483 13.4234 27.8312 13.4256 27.8056 13.3859C27.8505 13.8085 27.7928 14.1233 27.8697 14.5106C27.8078 14.4138 27.8056 14.865 27.874 14.7659C27.8227 15.0102 27.7693 15.3227 27.7415 15.6331C27.7266 15.7893 27.7159 15.9434 27.7138 16.0887C27.7138 16.1613 27.7138 16.2317 27.7138 16.2978C27.7138 16.3638 27.7116 16.4254 27.7138 16.4848C27.7373 16.3044 27.8398 15.9874 27.7907 15.8268C27.8569 15.9214 27.827 15.6683 27.7992 15.6419L27.8526 15.6485C27.9808 14.865 27.9915 14.033 28 13.2297H27.9872Z" fill="#B03A37"/>
</svg>
