<svg width="33" height="32" viewBox="0 0 33 32" xmlns="http://www.w3.org/2000/svg">
<path d="M25.1495 20.0001L28.9275 8.66675H8.48284L7.14951 4.66675H3.33551V6.00008H6.18818L10.6208 19.2987L7.64284 26.0001H26.0022V24.6667H9.69484L11.7688 20.0001H25.1495ZM27.0768 10.0001L24.1882 18.6667H11.8162L8.92751 10.0001H27.0768Z" fill="currentColor"/>
<path d="M13.3355 29.3334C14.0718 29.3334 14.6688 28.7365 14.6688 28.0001C14.6688 27.2637 14.0718 26.6667 13.3355 26.6667C12.5991 26.6667 12.0021 27.2637 12.0021 28.0001C12.0021 28.7365 12.5991 29.3334 13.3355 29.3334Z" fill="currentColor"/>
<path d="M21.3355 29.3334C22.0718 29.3334 22.6688 28.7365 22.6688 28.0001C22.6688 27.2637 22.0718 26.6667 21.3355 26.6667C20.5991 26.6667 20.0021 27.2637 20.0021 28.0001C20.0021 28.7365 20.5991 29.3334 21.3355 29.3334Z" fill="currentColor"/>
</svg>
