<svg width="12" height="12" viewBox="0 0 12 12" xmlns="http://www.w3.org/2000/svg">
<path fill-rule="evenodd" clip-rule="evenodd" d="M1.54835 0.605418C1.288 0.345069 0.86589 0.345069 0.60554 0.605418C0.345191 0.865768 0.345191 1.28788 0.60554 1.54823L5.05723 5.99992L0.605582 10.4516C0.345232 10.7119 0.345232 11.134 0.605582 11.3944C0.865931 11.6547 1.28804 11.6547 1.54839 11.3944L6.00004 6.94273L10.4517 11.3944C10.712 11.6547 11.1342 11.6547 11.3945 11.3944C11.6548 11.134 11.6548 10.7119 11.3945 10.4516L6.94285 5.99992L11.3945 1.54823C11.6549 1.28788 11.6549 0.865768 11.3945 0.605418C11.1342 0.345069 10.7121 0.345069 10.4517 0.605418L6.00004 5.05711L1.54835 0.605418Z" fill="currentColor"/>
</svg>
