<svg width="16" height="16" viewBox="0 0 16 16" xmlns="http://www.w3.org/2000/svg">
<path d="M7.04894 2.92705C7.4408 1.72104 7.63673 1.11803 8 1.11803C8.36327 1.11803 8.5592 1.72104 8.95106 2.92705L9.5716 4.83688C9.6799 5.17021 9.73406 5.33688 9.86549 5.43237C9.99692 5.52786 10.1722 5.52786 10.5227 5.52786H12.5308C13.7988 5.52786 14.4329 5.52786 14.5451 5.87336C14.6574 6.21885 14.1444 6.59153 13.1186 7.33688L11.494 8.51722C11.2104 8.72323 11.0686 8.82624 11.0184 8.98075C10.9682 9.13525 11.0224 9.30192 11.1307 9.63525L11.7512 11.5451C12.1431 12.7511 12.339 13.3541 12.0451 13.5676C11.7512 13.7812 11.2383 13.4085 10.2124 12.6631L8.58778 11.4828C8.30423 11.2768 8.16246 11.1738 8 11.1738C7.83754 11.1738 7.69577 11.2768 7.41221 11.4828L5.78761 12.6631C4.76172 13.4085 4.24877 13.7812 3.95488 13.5676C3.66099 13.3541 3.85692 12.7511 4.24878 11.5451L4.86932 9.63526C4.97762 9.30192 5.03178 9.13525 4.98157 8.98075C4.93137 8.82624 4.7896 8.72323 4.50604 8.51722L2.88144 7.33688C1.85555 6.59152 1.3426 6.21885 1.45486 5.87336C1.56712 5.52786 2.20116 5.52786 3.46923 5.52786H5.47735C5.82783 5.52786 6.00308 5.52786 6.13451 5.43237C6.26594 5.33688 6.3201 5.17021 6.4284 4.83688L7.04894 2.92705Z" fill="currentColor"/>
</svg>
