<svg width="33" height="32" viewBox="0 0 33 32" xmlns="http://www.w3.org/2000/svg">
<path d="M12.6681 21.3334C15.0054 21.3334 17.1367 20.4681 18.7741 19.0487L27.3347 27.6094L28.2774 26.6667L19.7167 18.1061C21.1361 16.4687 22.0014 14.3374 22.0014 12.0001C22.0014 6.84542 17.8227 2.66675 12.6681 2.66675C7.51341 2.66675 3.33475 6.84542 3.33475 12.0001C3.33475 17.1547 7.51341 21.3334 12.6681 21.3334ZM12.6681 4.00008C17.0794 4.00008 20.6681 7.58875 20.6681 12.0001C20.6681 16.4114 17.0794 20.0001 12.6681 20.0001C8.25675 20.0001 4.66808 16.4114 4.66808 12.0001C4.66808 7.58875 8.25675 4.00008 12.6681 4.00008Z" fill="currentColor"/>
</svg>
