<svg width="16" height="16" viewBox="0 0 16 16" xmlns="http://www.w3.org/2000/svg">
<path fill-rule="evenodd" clip-rule="evenodd" d="M9.06734 2.66318C9.95158 1.77894 11.3852 1.77894 12.2695 2.66318L13.3368 3.73056C14.2211 4.61481 14.2211 6.04845 13.3368 6.93269L11.7358 8.53376C10.8557 9.41384 9.43141 9.41799 8.54621 8.54621C9.41793 9.43142 9.41376 10.8557 8.53371 11.7358L6.93266 13.3368C6.04842 14.2211 4.61479 14.2211 3.73055 13.3368L2.66318 12.2694C1.77894 11.3852 1.77894 9.95155 2.66318 9.06731L4.26423 7.46624C5.14425 6.58622 6.56843 6.58201 7.45364 7.45364C6.58207 6.56841 6.58629 5.14426 7.46629 4.26425L9.06734 2.66318ZM11.2021 3.73056C10.9073 3.43581 10.4295 3.43581 10.1347 3.73056L8.53366 5.33163C8.23893 5.62636 8.23891 6.10422 8.53362 6.39897L9.60101 5.33157C9.89575 5.03682 10.3736 5.03682 10.6684 5.33157C10.9631 5.62632 10.9631 6.1042 10.6684 6.39895L9.60099 7.46634C9.89573 7.76109 10.3737 7.76113 10.6684 7.46638L12.2695 5.86532C12.5642 5.57057 12.5642 5.09269 12.2695 4.79794L11.2021 3.73056ZM6.39897 8.53362L5.33153 9.60108C5.03678 9.89583 5.03678 10.3737 5.33153 10.6685C5.62627 10.9632 6.10415 10.9632 6.3989 10.6685L7.46634 9.60099C7.76109 9.89574 7.76109 10.3736 7.46634 10.6684L5.86529 12.2694C5.57054 12.5642 5.09266 12.5642 4.79792 12.2694L3.73055 11.2021C3.4358 10.9073 3.4358 10.4294 3.73055 10.1347L5.3316 8.53362C5.62635 8.23887 6.10423 8.23887 6.39897 8.53362Z" fill="currentColor"/>
</svg>
