<svg width="16" height="17" viewBox="0 0 16 17" xmlns="http://www.w3.org/2000/svg">
<path fill-rule="evenodd" clip-rule="evenodd" d="M8 14.5C11.3137 14.5 14 11.8137 14 8.5C14 5.18629 11.3137 2.5 8 2.5C4.68629 2.5 2 5.18629 2 8.5C2 11.8137 4.68629 14.5 8 14.5ZM8.5 5.5C8.5 5.22386 8.27614 5 8 5C7.72386 5 7.5 5.22386 7.5 5.5V8.08579C7.5 8.48361 7.65804 8.86514 7.93934 9.14645L9.64645 10.8536C9.84171 11.0488 10.1583 11.0488 10.3536 10.8536C10.5488 10.6583 10.5488 10.3417 10.3536 10.1464L8.64645 8.43934C8.55268 8.34557 8.5 8.21839 8.5 8.08579V5.5Z" fill="currentColor"/>
</svg>
