<svg width="78" height="88" viewBox="0 0 78 88" fill="none" xmlns="http://www.w3.org/2000/svg">
<path d="M60.4121 36.881C60.4121 48.7115 50.8262 73.6276 38.9941 73.6276C27.1621 73.6276 17.5762 48.7115 17.5762 36.881C17.5762 25.0506 27.1621 15.4556 38.9941 15.4556C50.8262 15.4556 60.4121 25.0449 60.4121 36.881Z" stroke="black" stroke-width="0.58482" stroke-miterlimit="10"/>
<path d="M50.2305 18.6365C50.2305 18.6365 51.7546 31.4757 39.0001 31.1547C26.2456 30.8338 18.4931 39.2308 18.9802 46.4988" stroke="black" stroke-width="0.58482" stroke-miterlimit="10"/>
<path d="M59.4783 44.5446C59.4783 44.5446 60.63 38.423 55.7883 34.8693C50.9467 31.3156 48.4771 28.4038 49.3079 25.2341" stroke="black" stroke-width="0.58482" stroke-miterlimit="10"/>
<path d="M49.7319 18.3445C50.0929 17.3643 50.2877 16.3211 50.2877 15.2321C50.2877 9.7009 45.234 5.22437 39 5.22437C32.7659 5.22437 27.7123 9.7009 27.7123 15.2321C27.7123 16.3154 27.9071 17.3643 28.2681 18.3387" stroke="black" stroke-width="0.58482" stroke-miterlimit="10"/>
<path d="M19.1176 47.3072C19.1176 47.3072 16.2756 46.0405 16.3731 50.0527C16.4876 54.9534 19.9771 57.5614 22.5555 56.9137" stroke="black" stroke-width="0.58482" stroke-miterlimit="10"/>
<path d="M58.8827 47.3074C58.8827 47.3074 61.7247 46.0407 61.6273 50.053C61.5127 54.9537 58.0232 57.5616 55.4448 56.9139" stroke="black" stroke-width="0.58482" stroke-miterlimit="10"/>
<path d="M34.1018 72.3379C34.1018 72.3379 35.3624 83.0105 29.0653 85.5268" stroke="black" stroke-width="0.58482" stroke-miterlimit="10"/>
<path d="M43.8937 72.3379C43.8937 72.3379 42.6331 83.0105 48.9302 85.5268" stroke="black" stroke-width="0.58482" stroke-miterlimit="10"/>
<path d="M39 87C59.9868 87 77 67.7482 77 44C77 20.2518 59.9868 1 39 1C18.0132 1 1 20.2518 1 44C1 67.7482 18.0132 87 39 87Z" stroke="black" stroke-width="0.58482" stroke-miterlimit="10"/>
<path d="M36.181 64.2732C36.181 64.2732 40.9024 65.603 44.5694 62.2441" stroke="black" stroke-width="0.58482" stroke-miterlimit="10" stroke-linecap="round"/>
<path d="M31.1744 48.9579C31.855 48.9579 32.4067 48.3061 32.4067 47.502C32.4067 46.698 31.855 46.0461 31.1744 46.0461C30.4937 46.0461 29.942 46.698 29.942 47.502C29.942 48.3061 30.4937 48.9579 31.1744 48.9579Z" fill="black"/>
<path d="M45.7962 48.9579C46.4768 48.9579 47.0285 48.3061 47.0285 47.502C47.0285 46.698 46.4768 46.0461 45.7962 46.0461C45.1156 46.0461 44.5638 46.698 44.5638 47.502C44.5638 48.3061 45.1156 48.9579 45.7962 48.9579Z" fill="black"/>
<path d="M33.8091 41.7588C33.8091 41.7588 30.2166 41.5008 27.1569 43.9999" stroke="black" stroke-width="0.58482" stroke-miterlimit="10" stroke-linecap="round"/>
<path d="M49.5032 42.9052C49.5032 42.9052 47.1483 40.1826 43.2177 39.7871" stroke="black" stroke-width="0.58482" stroke-miterlimit="10" stroke-linecap="round"/>
<path d="M37.5275 54.6667C37.5275 54.6667 37.1664 56.9193 38.6051 57.0111" stroke="black" stroke-width="0.58482" stroke-miterlimit="10" stroke-linecap="round"/>
<path d="M50.8438 57.3551C50.8438 57.3551 48.8784 58.4269 48.4602 56.8163C48.0419 55.2056 47.234 53.5377 43.2059 53.7498" stroke="#E5E5E5" stroke-width="0.58482" stroke-miterlimit="10" stroke-linecap="round"/>
<path d="M46.495 59.8599C46.495 59.8599 45.3261 56.7762 46.495 56.3635C51.0215 54.7701 45.8418 51.3425 51.5028 51.8755" stroke="#E5E5E5" stroke-width="0.58482" stroke-miterlimit="10" stroke-linecap="round"/>
<path d="M51.4969 53.2971C51.4969 53.2971 47.7439 51.9157 46.2771 52.1507C44.8103 52.3857 47.1194 54.2715 45.3088 54.4893C41.9683 54.8905 44.0425 56.8164 44.0425 56.8164" stroke="#E5E5E5" stroke-width="0.58482" stroke-miterlimit="10" stroke-linecap="round"/>
</svg>
