<svg width="78" height="88" viewBox="0 0 78 88" fill="none" xmlns="http://www.w3.org/2000/svg">
<g id="Illustration">
<path id="Vector" d="M60.4122 36.8811C60.4122 48.7115 50.8263 73.6277 38.9943 73.6277C27.1622 73.6277 17.582 48.7172 17.582 36.8811C17.582 25.0449 27.168 15.4556 39 15.4556C50.832 15.4556 60.418 25.0449 60.418 36.8811H60.4122Z" stroke="black" stroke-width="0.58482" stroke-miterlimit="10"/>
<path id="Vector_2" d="M50.2305 18.6365C50.2305 18.6365 51.7546 31.4757 39.0001 31.1547C26.2456 30.8338 18.4931 39.2308 18.9802 46.4988" stroke="black" stroke-width="0.58482" stroke-miterlimit="10"/>
<path id="Vector_3" d="M59.4783 44.5446C59.4783 44.5446 60.63 38.423 55.7883 34.8693C50.9467 31.3156 48.4771 28.4038 49.3079 25.2341" stroke="black" stroke-width="0.58482" stroke-miterlimit="10"/>
<path id="Vector_4" d="M49.7319 18.3445C50.0929 17.3643 50.2877 16.3211 50.2877 15.2321C50.2877 9.7009 45.234 5.22437 39 5.22437C32.766 5.22437 27.7123 9.7009 27.7123 15.2321C27.7123 16.3154 27.9071 17.3643 28.2681 18.3387" stroke="black" stroke-width="0.58482" stroke-miterlimit="10"/>
<path id="Vector_5" d="M19.1176 47.3074C19.1176 47.3074 16.2756 46.0407 16.3731 50.053C16.4876 54.9537 19.9771 57.5616 22.5555 56.9139" stroke="black" stroke-width="0.58482" stroke-miterlimit="10"/>
<path id="Vector_6" d="M58.8817 47.3074C58.8817 47.3074 61.7237 46.0407 61.6263 50.053C61.5117 54.9537 58.0223 57.5616 55.4438 56.9139" stroke="black" stroke-width="0.58482" stroke-miterlimit="10"/>
<path id="Vector_7" d="M48.1904 34.2503C42.2829 32.0035 35.7109 32.0035 29.8035 34.2503C23.896 36.4972 18.4699 40.8648 21.0082 50.1561C25.2139 65.5288 35.1551 72.3382 38.994 72.3382C42.833 72.3382 52.7799 65.5288 56.9799 50.1561C59.5182 40.8648 53.8285 36.394 48.1846 34.2503H48.1904ZM33.4648 51.6292C30.64 53.5493 25.3285 51.7438 23.7471 48.5799C22.1656 45.4159 22.5037 41.2317 28.3767 41.3463C34.2498 41.4609 34.817 44.6249 34.817 44.6249C34.817 44.6249 36.2838 49.709 33.4591 51.6292H33.4648ZM54.2525 48.5799C52.6711 51.7438 47.3595 53.5551 44.5348 51.6292C41.71 49.709 43.1768 44.6249 43.1768 44.6249C43.1768 44.6249 43.744 41.4609 49.6171 41.3463C55.4901 41.2317 55.8282 45.4159 54.2468 48.5799H54.2525Z" fill="#FAE1A9"/>
<path id="Vector_8" d="M34.1018 72.3379C34.1018 72.3379 35.3624 83.0105 29.0653 85.5268" stroke="black" stroke-width="0.58482" stroke-miterlimit="10"/>
<path id="Vector_9" d="M43.8927 72.3381C43.8927 72.3381 42.6322 83.0108 48.9292 85.527" stroke="black" stroke-width="0.58482" stroke-miterlimit="10"/>
<path id="Vector_10" d="M39 87C59.9868 87 77 67.7482 77 44C77 20.2518 59.9868 1 39 1C18.0132 1 1 20.2518 1 44C1 67.7482 18.0132 87 39 87Z" stroke="black" stroke-width="0.58482" stroke-miterlimit="10"/>
<path id="Vector_11" d="M36.181 64.2732C36.181 64.2732 40.9024 65.603 44.5694 62.2441" stroke="black" stroke-width="0.58482" stroke-miterlimit="10" stroke-linecap="round"/>
<path id="Vector_12" d="M31.1734 48.9579C31.854 48.9579 32.4057 48.3061 32.4057 47.502C32.4057 46.698 31.854 46.0461 31.1734 46.0461C30.4928 46.0461 29.941 46.698 29.941 47.502C29.941 48.3061 30.4928 48.9579 31.1734 48.9579Z" fill="black"/>
<path id="Vector_13" d="M45.7962 48.9579C46.4768 48.9579 47.0285 48.3061 47.0285 47.502C47.0285 46.698 46.4768 46.0461 45.7962 46.0461C45.1156 46.0461 44.5638 46.698 44.5638 47.502C44.5638 48.3061 45.1156 48.9579 45.7962 48.9579Z" fill="black"/>
<path id="Vector_14" d="M33.8092 41.7588C33.8092 41.7588 30.2166 41.5008 27.1569 43.9999" stroke="black" stroke-width="0.58482" stroke-miterlimit="10" stroke-linecap="round"/>
<path id="Vector_15" d="M49.5023 42.9052C49.5023 42.9052 47.1473 40.1826 43.2167 39.7871" stroke="black" stroke-width="0.58482" stroke-miterlimit="10" stroke-linecap="round"/>
<path id="Vector_16" d="M37.5275 54.6667C37.5275 54.6667 37.1664 56.9193 38.6051 57.0111" stroke="black" stroke-width="0.58482" stroke-miterlimit="10" stroke-linecap="round"/>
</g>
</svg>
