<svg width="78" height="88" viewBox="0 0 78 88" fill="none" xmlns="http://www.w3.org/2000/svg">
<path d="M55.0374 37.7122C55.0374 37.7122 53.1065 36.2678 49.5654 34.9495C43.4689 32.6797 36.7766 32.6167 30.5483 34.4967C25.7811 35.9354 22.9677 37.7122 22.9677 37.7122C20.7217 39.9591 38.9997 39.9476 38.9997 39.9476C38.9997 39.9476 57.2778 39.9591 55.0317 37.7122H55.0374Z" fill="#F2C7BF"/>
<path d="M60.418 36.8811C60.418 48.7115 50.832 73.6277 39 73.6277C27.168 73.6277 17.582 48.7115 17.582 36.8811C17.582 25.0506 27.168 15.4556 39 15.4556C50.832 15.4556 60.418 25.0449 60.418 36.8811Z" stroke="black" stroke-width="0.58482" stroke-miterlimit="10"/>
<path d="M50.2359 18.6365C50.2359 18.6365 51.76 31.4757 39.0054 31.1547C26.2509 30.8338 18.4985 39.2308 18.9855 46.4988" stroke="black" stroke-width="0.58482" stroke-miterlimit="10"/>
<path d="M59.4834 44.5446C59.4834 44.5446 60.6351 38.423 55.7935 34.8693C50.9518 31.3156 48.4822 28.4038 49.3131 25.2341" stroke="black" stroke-width="0.58482" stroke-miterlimit="10"/>
<path d="M49.7305 18.3445C50.0915 17.3643 50.2863 16.3211 50.2863 15.2321C50.2863 9.7009 45.2326 5.22437 38.9986 5.22437C32.7646 5.22437 27.7109 9.7009 27.7109 15.2321C27.7109 16.3154 27.9058 17.3643 28.2667 18.3387" stroke="black" stroke-width="0.58482" stroke-miterlimit="10"/>
<path d="M19.1171 47.3074C19.1171 47.3074 16.2752 46.0407 16.3726 50.053C16.4872 54.9537 19.9766 57.5616 22.555 56.9139" stroke="black" stroke-width="0.58482" stroke-miterlimit="10"/>
<path d="M58.8871 47.3072C58.8871 47.3072 61.7291 46.0405 61.6317 50.0527C61.5171 54.9534 58.0276 57.5614 55.4492 56.9137" stroke="black" stroke-width="0.58482" stroke-miterlimit="10"/>
<path d="M34.1067 72.3379C34.1067 72.3379 35.3672 83.0105 29.0702 85.5268" stroke="black" stroke-width="0.58482" stroke-miterlimit="10"/>
<path d="M43.8989 72.3379C43.8989 72.3379 42.6384 83.0105 48.9354 85.5268" stroke="black" stroke-width="0.58482" stroke-miterlimit="10"/>
<path d="M39 87C59.9868 87 77 67.7482 77 44C77 20.2518 59.9868 1 39 1C18.0132 1 1 20.2518 1 44C1 67.7482 18.0132 87 39 87Z" stroke="black" stroke-width="0.58482" stroke-miterlimit="10"/>
<path d="M36.1807 64.2732C36.1807 64.2732 40.902 65.603 44.5691 62.2441" stroke="black" stroke-width="0.58482" stroke-miterlimit="10" stroke-linecap="round"/>
<path d="M31.1796 48.9579C31.8602 48.9579 32.4119 48.3061 32.4119 47.502C32.4119 46.698 31.8602 46.0461 31.1796 46.0461C30.499 46.0461 29.9473 46.698 29.9473 47.502C29.9473 48.3061 30.499 48.9579 31.1796 48.9579Z" fill="black"/>
<path d="M45.8007 48.9579C46.4813 48.9579 47.033 48.3061 47.033 47.502C47.033 46.698 46.4813 46.0461 45.8007 46.0461C45.1201 46.0461 44.5684 46.698 44.5684 47.502C44.5684 48.3061 45.1201 48.9579 45.8007 48.9579Z" fill="black"/>
<path d="M33.8095 41.7588C33.8095 41.7588 30.2169 41.5008 27.1572 43.9999" stroke="black" stroke-width="0.58482" stroke-miterlimit="10" stroke-linecap="round"/>
<path d="M49.5081 42.9052C49.5081 42.9052 47.1532 40.1826 43.2225 39.7871" stroke="black" stroke-width="0.58482" stroke-miterlimit="10" stroke-linecap="round"/>
<path d="M37.5334 54.6667C37.5334 54.6667 37.1723 56.9193 38.611 57.0111" stroke="black" stroke-width="0.58482" stroke-miterlimit="10" stroke-linecap="round"/>
<path d="M34.9197 57.8882C35.0114 56.8335 34.576 55.7903 33.8254 55.0395C32.4903 53.6867 29.7286 51.3252 26.6918 51.2622C22.4345 51.1762 23.2367 56.8507 26.6918 59.4186C29.6713 61.631 34.6161 61.3502 34.914 57.8882H34.9197Z" fill="#F2C7BF"/>
<path d="M43.0794 57.8882C42.9877 56.8335 43.4231 55.7903 44.1737 55.0395C45.5088 53.6867 48.2705 51.3252 51.3073 51.2622C55.5646 51.1762 54.7624 56.8507 51.3073 59.4186C48.3278 61.631 43.383 61.3502 43.0851 57.8882H43.0794Z" fill="#F2C7BF"/>
<path d="M41.4176 67.8785C39.8591 67.3283 38.1459 67.3283 36.5874 67.8785C35.6534 68.211 34.7997 68.7325 34.7997 69.5293C34.7997 70.9221 36.066 71.4093 37.6531 71.5985C38.547 71.7016 39.458 71.7016 40.3519 71.5985C41.939 71.4093 43.2053 70.9278 43.2053 69.5293C43.2053 68.7325 42.3515 68.211 41.4176 67.8785Z" fill="#F2C7BF"/>
</svg>
