<svg width="44" height="44" viewBox="0 0 44 44" fill="none" xmlns="http://www.w3.org/2000/svg">
<g id="Frame 835">
<g id="Group 724">
<path id="Rectangle 238" d="M7 4C7 2.89543 7.89543 2 9 2H29.7671C30.8727 2 31.929 2.45763 32.6852 3.26424L37.9181 8.84602C38.6132 9.58741 39 10.5656 39 11.5818V40C39 41.1046 38.1046 42 37 42H9C7.89543 42 7 41.1046 7 40V4Z" fill="#D9D9D9"/>
<g id="Group 722">
<g id="Group 723">
<rect id="Rectangle 239" x="5" y="23" width="24" height="12" rx="2" fill="#E20014"/>
<g id="PDF">
<path d="M11 27L12.8106 27.0028C13.2513 27.0028 13.617 27.1311 13.9078 27.3877C14.1986 27.6444 14.3455 27.9651 14.3455 28.3445C14.3455 28.7238 14.1986 29.0446 13.9108 29.3013C13.62 29.5579 13.2543 29.6862 12.8106 29.6862H11.9233V31H11V27ZM12.7807 27.7755H11.9233V28.9163H12.7807C12.9635 28.9163 13.1164 28.8605 13.2393 28.7517C13.3622 28.6402 13.4252 28.5063 13.4252 28.3473C13.4252 28.1855 13.3622 28.0516 13.2393 27.94C13.1164 27.8285 12.9635 27.7755 12.7807 27.7755Z" fill="white"/>
<path d="M15.1729 27H16.7707C17.3942 27 17.9188 27.1953 18.3445 27.5802C18.7672 27.9679 18.98 28.4421 18.98 29C18.98 29.5607 18.7672 30.0349 18.3445 30.4198C17.9188 30.8075 17.3942 31 16.7707 31H15.1729V27ZM16.7707 27.7727H16.0962V30.2301H16.7707C17.1244 30.2301 17.4302 30.113 17.682 29.8731C17.9338 29.636 18.0597 29.3459 18.0597 29.0028C18.0597 28.6597 17.9368 28.3696 17.691 28.1297C17.4452 27.8926 17.1364 27.7727 16.7707 27.7727Z" fill="white"/>
<path d="M19.8374 27H23V27.7727H20.7607V28.6569H22.5084V29.4296H20.7607V31H19.8374V27Z" fill="white"/>
</g>
</g>
</g>
</g>
</g>
</svg>
