<?xml version="1.0" encoding="utf-8"?>
<!-- Generator: Adobe Illustrator 22.0.1, SVG Export Plug-In . SVG Version: 6.00 Build 0)  -->
<svg version="1.0" id="Layer_1" xmlns="http://www.w3.org/2000/svg" xmlns:xlink="http://www.w3.org/1999/xlink" x="0px" y="0px"
	 viewBox="0 0 142.8 35.6" style="enable-background:new 0 0 142.8 35.6;" xml:space="preserve">
<style type="text/css">
	.st0{fill:#E3000B;}
	.st1{fill:#FFFFFF;}
	.st2{clip-path:url(#SVGID_2_);fill:#E3000B;}
	.st3{clip-path:url(#SVGID_2_);fill:#E3040D;}
	.st4{clip-path:url(#SVGID_2_);fill:#E40D0F;}
	.st5{clip-path:url(#SVGID_2_);fill:#E41411;}
	.st6{clip-path:url(#SVGID_2_);fill:#E41913;}
	.st7{clip-path:url(#SVGID_2_);fill:#E41E15;}
	.st8{clip-path:url(#SVGID_2_);fill:#E52217;}
	.st9{clip-path:url(#SVGID_2_);fill:#E52619;}
	.st10{clip-path:url(#SVGID_2_);fill:#E5291B;}
	.st11{clip-path:url(#SVGID_2_);fill:#E62D1D;}
	.st12{clip-path:url(#SVGID_2_);fill:#E6301F;}
	.st13{clip-path:url(#SVGID_2_);fill:#E63321;}
	.st14{clip-path:url(#SVGID_2_);fill:#E73623;}
	.st15{clip-path:url(#SVGID_2_);fill:#E73925;}
	.st16{clip-path:url(#SVGID_2_);fill:#E73C27;}
	.st17{clip-path:url(#SVGID_2_);fill:#E83F29;}
	.st18{clip-path:url(#SVGID_2_);fill:#E8422B;}
	.st19{clip-path:url(#SVGID_2_);fill:#E9452D;}
	.st20{clip-path:url(#SVGID_2_);fill:#E9482F;}
	.st21{clip-path:url(#SVGID_2_);fill:#E94A31;}
	.st22{clip-path:url(#SVGID_2_);fill:#EA4D33;}
	.st23{clip-path:url(#SVGID_2_);fill:#EA5035;}
	.st24{clip-path:url(#SVGID_2_);fill:#EA5337;}
	.st25{clip-path:url(#SVGID_2_);fill:#EB563A;}
	.st26{clip-path:url(#SVGID_2_);fill:#EB583C;}
	.st27{clip-path:url(#SVGID_2_);fill:#EB5B3E;}
	.st28{clip-path:url(#SVGID_2_);fill:#EB5E40;}
	.st29{clip-path:url(#SVGID_2_);fill:#EC6043;}
	.st30{clip-path:url(#SVGID_2_);fill:#EC6345;}
	.st31{clip-path:url(#SVGID_2_);fill:#EC6647;}
	.st32{clip-path:url(#SVGID_2_);fill:#ED6849;}
	.st33{clip-path:url(#SVGID_2_);fill:#ED6B4B;}
	.st34{clip-path:url(#SVGID_2_);fill:#ED6D4E;}
	.st35{clip-path:url(#SVGID_2_);fill:#EE7050;}
	.st36{clip-path:url(#SVGID_2_);fill:#EE7252;}
	.st37{clip-path:url(#SVGID_2_);fill:#EE7555;}
	.st38{clip-path:url(#SVGID_2_);fill:#EF7757;}
	.st39{clip-path:url(#SVGID_2_);fill:#EF7A5A;}
	.st40{clip-path:url(#SVGID_2_);fill:#EF7C5C;}
	.st41{clip-path:url(#SVGID_2_);fill:#F07F5E;}
	.st42{clip-path:url(#SVGID_2_);fill:#F08161;}
	.st43{clip-path:url(#SVGID_2_);fill:#F08363;}
	.st44{clip-path:url(#SVGID_2_);fill:#F18666;}
	.st45{clip-path:url(#SVGID_2_);fill:#F18868;}
	.st46{clip-path:url(#SVGID_2_);fill:#F18A6B;}
	.st47{clip-path:url(#SVGID_2_);fill:#F28D6D;}
	.st48{clip-path:url(#SVGID_2_);fill:#F28F70;}
	.st49{clip-path:url(#SVGID_2_);fill:#F29173;}
	.st50{clip-path:url(#SVGID_2_);fill:#F29475;}
	.st51{clip-path:url(#SVGID_2_);fill:#F39677;}
	.st52{clip-path:url(#SVGID_2_);fill:#F3987A;}
	.st53{clip-path:url(#SVGID_2_);fill:#F39B7C;}
	.st54{clip-path:url(#SVGID_2_);fill:#F49D7F;}
	.st55{clip-path:url(#SVGID_2_);fill:#F49F82;}
	.st56{clip-path:url(#SVGID_2_);fill:#F4A184;}
	.st57{clip-path:url(#SVGID_2_);fill:#F5A387;}
	.st58{clip-path:url(#SVGID_2_);fill:#F5A689;}
	.st59{clip-path:url(#SVGID_2_);fill:#F5A88C;}
	.st60{clip-path:url(#SVGID_2_);fill:#F5AA8F;}
	.st61{clip-path:url(#SVGID_2_);fill:#F6AC91;}
	.st62{clip-path:url(#SVGID_2_);fill:#F6AF94;}
	.st63{clip-path:url(#SVGID_2_);fill:#F6B197;}
	.st64{clip-path:url(#SVGID_2_);fill:#F7B399;}
	.st65{clip-path:url(#SVGID_2_);fill:#F7B59C;}
	.st66{clip-path:url(#SVGID_2_);fill:#F7B79F;}
	.st67{clip-path:url(#SVGID_2_);fill:#F8BAA2;}
	.st68{clip-path:url(#SVGID_2_);fill:#F8BCA4;}
	.st69{clip-path:url(#SVGID_2_);fill:#F8BEA7;}
	.st70{clip-path:url(#SVGID_2_);fill:#F8C0AA;}
	.st71{clip-path:url(#SVGID_2_);fill:#F9C2AC;}
	.st72{clip-path:url(#SVGID_2_);fill:#F9C4AF;}
	.st73{clip-path:url(#SVGID_2_);fill:#F9C6B2;}
	.st74{clip-path:url(#SVGID_2_);fill:#F9C8B4;}
	.st75{clip-path:url(#SVGID_2_);fill:#FACBB7;}
	.st76{clip-path:url(#SVGID_2_);fill:#FACDBA;}
	.st77{clip-path:url(#SVGID_2_);fill:#FACFBC;}
	.st78{clip-path:url(#SVGID_2_);fill:#FBD1BF;}
	.st79{clip-path:url(#SVGID_2_);fill:#FBD3C1;}
	.st80{clip-path:url(#SVGID_2_);fill:#FBD5C4;}
	.st81{clip-path:url(#SVGID_2_);fill:#FBD7C7;}
	.st82{clip-path:url(#SVGID_2_);fill:#FCD9C9;}
	.st83{clip-path:url(#SVGID_2_);fill:#FCDBCC;}
	.st84{clip-path:url(#SVGID_2_);fill:#FCDDCF;}
	.st85{clip-path:url(#SVGID_2_);fill:#FCDFD1;}
	.st86{clip-path:url(#SVGID_2_);fill:#FCE1D4;}
	.st87{clip-path:url(#SVGID_2_);fill:#FCE3D7;}
	.st88{clip-path:url(#SVGID_2_);fill:#FCE4DA;}
	.st89{clip-path:url(#SVGID_2_);fill:#FDE6DC;}
	.st90{clip-path:url(#SVGID_2_);fill:#FDE8DF;}
	.st91{clip-path:url(#SVGID_2_);fill:#FDEAE2;}
	.st92{clip-path:url(#SVGID_2_);fill:#FDECE4;}
	.st93{clip-path:url(#SVGID_2_);fill:#FDEEE7;}
	.st94{clip-path:url(#SVGID_2_);fill:#FEF0EA;}
	.st95{clip-path:url(#SVGID_2_);fill:#FEF2EC;}
	.st96{clip-path:url(#SVGID_2_);fill:#FEF4EF;}
	.st97{clip-path:url(#SVGID_2_);fill:#FEF6F2;}
	.st98{clip-path:url(#SVGID_2_);fill:#FEF7F4;}
	.st99{clip-path:url(#SVGID_2_);fill:#FFF9F7;}
	.st100{clip-path:url(#SVGID_2_);fill:#FFFBFA;}
	.st101{clip-path:url(#SVGID_2_);fill:#FFFDFC;}
	.st102{clip-path:url(#SVGID_2_);fill:#FFFFFF;}
</style>
<path class="st0" d="M55.9,2.9c1.4,0,2.5,1.1,2.5,2.6c0,0.9-0.4,1.6-1,2.1C57,7.9,54,9.8,54,9.8s0.3-0.9,0.8-2
	c-0.8-0.4-1.3-1.3-1.3-2.3C53.4,4,54.5,2.9,55.9,2.9"/>
<path class="st1" d="M44.5,20.8h2.7c1,0,1.7-0.5,2.1-1c0.4-0.4,0.6-1.2,0.6-1.9c0-0.8-0.3-1.6-1-2.1c-0.8-0.6-1.5-0.7-2.2-0.7h-2.3
	V20.8z M40,3.4h12.1v3.7h-7.5v4.3H46c1.7,0,4.2,0,6.2,1.4c2.3,1.6,2.5,4.1,2.5,5c0,1.9-0.9,3.7-2.1,4.8c-1.9,1.6-4.4,1.8-6.2,1.8H40
	V3.4z"/>
<path class="st1" d="M75.5,20.3c0.3-0.4,0.5-0.9,0.7-1.5c0.2-0.6,0.2-1.4,0.2-2.4c0-0.9-0.1-1.7-0.2-2.4c-0.2-0.6-0.4-1.1-0.6-1.5
	c-0.3-0.4-0.6-0.6-1-0.8c-0.4-0.2-0.8-0.2-1.3-0.2c-0.4,0-0.8,0.1-1.2,0.2c-0.3,0.1-0.7,0.4-1,0.8c-0.3,0.4-0.5,0.9-0.7,1.5
	c-0.2,0.7-0.2,1.5-0.2,2.4c0,0.9,0.1,1.7,0.2,2.3c0.2,0.6,0.4,1.1,0.6,1.5c0.3,0.4,0.6,0.6,1,0.8c0.4,0.2,0.8,0.3,1.3,0.3
	c0.4,0,0.8-0.1,1.2-0.2C74.9,20.9,75.2,20.6,75.5,20.3 M65.6,17.5h-2.8v6.8h-4.7V8.5h4.7V14h3c0.4-1.9,1.2-3.4,2.5-4.4
	c1.3-1.1,3-1.6,5-1.6c2.5,0,4.4,0.8,5.8,2.3c1.4,1.5,2.1,3.6,2.1,6.2c0,2.6-0.7,4.7-2.1,6.2c-1.4,1.5-3.3,2.3-5.8,2.3
	c-2.2,0-4-0.6-5.4-1.9C66.6,21.7,65.8,19.9,65.6,17.5"/>
<polygon class="st1" points="90.2,12.3 90.2,24.3 85.9,24.3 85.9,12.3 81.6,12.3 81.6,8.5 94.5,8.5 94.5,12.3 "/>
<polygon class="st1" points="100.3,8.5 100.3,18.3 107.1,8.5 111.2,8.5 111.2,24.3 107.1,24.3 107.1,14.6 100.3,24.3 96.1,24.3 
	96.1,8.5 "/>
<polygon class="st1" points="119.1,8.5 119.1,14.6 124.8,8.5 130.2,8.5 123.3,15.6 130.6,24.3 125.1,24.3 119.7,17.8 119.1,18.5 
	119.1,24.3 114.8,24.3 114.8,8.5 "/>
<path class="st1" d="M142.8,13.3c-0.9-0.9-2.1-1.4-3.5-1.4c-2.9,0-4.3,2.2-4.3,4.5c0,2.6,1.9,4.5,4.5,4.5c1,0,2.2-0.3,3.4-1.4v4.4
	c-0.9,0.4-2.2,1-4,1c-2.4,0-4.5-1-5.9-2.3c-1.2-1.1-2.4-3.1-2.4-6.1c0-2.8,1.1-5,2.7-6.4c1.9-1.7,4-2,5.5-2c1.6,0,2.9,0.3,4.2,1
	V13.3z"/>
<g>
	<defs>
		<path id="SVGID_1_" d="M0,17.1c0,9.4,7.6,17.1,17.1,17.1c9.4,0,17.1-7.6,17.1-17.1C34.1,7.6,26.5,0,17.1,0C7.6,0,0,7.6,0,17.1"/>
	</defs>
	<clipPath id="SVGID_2_">
		<use xlink:href="#SVGID_1_"  style="overflow:visible;"/>
	</clipPath>
	<rect x="0" y="-2.1" class="st2" width="36.1" height="36.1"/>
	<path class="st2" d="M36.1,16c0,10-8.1,18.1-18.1,18.1S0,26,0,16C0,6,8.1-2.1,18.1-2.1S36.1,6,36.1,16"/>
	<path class="st3" d="M36.1,15.9c0,10-8.1,18-18,18c-10,0-18-8.1-18-18c0-10,8.1-18,18-18C28-2.1,36.1,6,36.1,15.9"/>
	<path class="st3" d="M36.1,15.9c0,10-8.1,18-18,18s-18-8.1-18-18c0-10,8.1-18,18-18S36.1,6,36.1,15.9"/>
	<path class="st4" d="M36,15.9c0,9.9-8.1,18-18,18c-9.9,0-18-8.1-18-18c0-9.9,8.1-18,18-18C28-2.1,36,6,36,15.9"/>
	<path class="st5" d="M36,15.9c0,9.9-8,18-18,18c-9.9,0-18-8-18-18c0-9.9,8-18,18-18C28-2.1,36,6,36,15.9"/>
	<path class="st5" d="M36,15.9c0,9.9-8,17.9-17.9,17.9c-9.9,0-17.9-8-17.9-17.9c0-9.9,8-17.9,17.9-17.9C27.9-2.1,36,5.9,36,15.9"/>
	<path class="st6" d="M35.9,15.8c0,9.9-8,17.9-17.9,17.9c-9.9,0-17.9-8-17.9-17.9c0-9.9,8-17.9,17.9-17.9
		C27.9-2.1,35.9,5.9,35.9,15.8"/>
	<path class="st7" d="M35.9,15.8c0,9.9-8,17.9-17.9,17.9s-17.9-8-17.9-17.9c0-9.9,8-17.9,17.9-17.9S35.9,5.9,35.9,15.8"/>
	<path class="st7" d="M35.9,15.8c0,9.9-8,17.9-17.9,17.9s-17.9-8-17.9-17.9c0-9.9,8-17.9,17.9-17.9S35.9,5.9,35.9,15.8"/>
	<path class="st8" d="M35.8,15.8c0,9.9-8,17.8-17.8,17.8c-9.9,0-17.8-8-17.8-17.8c0-9.9,8-17.8,17.8-17.8
		C27.8-2.1,35.8,5.9,35.8,15.8"/>
	<path class="st8" d="M35.8,15.7c0,9.8-8,17.8-17.8,17.8c-9.8,0-17.8-8-17.8-17.8c0-9.8,8-17.8,17.8-17.8
		C27.8-2.1,35.8,5.9,35.8,15.7"/>
	<path class="st9" d="M35.7,15.7c0,9.8-8,17.8-17.8,17.8c-9.8,0-17.8-8-17.8-17.8c0-9.8,8-17.8,17.8-17.8
		C27.8-2.1,35.7,5.9,35.7,15.7"/>
	<path class="st10" d="M35.7,15.7c0,9.8-8,17.8-17.8,17.8c-9.8,0-17.8-8-17.8-17.8c0-9.8,8-17.8,17.8-17.8
		C27.8-2.1,35.7,5.9,35.7,15.7"/>
	<path class="st10" d="M35.7,15.7c0,9.8-7.9,17.7-17.7,17.7c-9.8,0-17.7-7.9-17.7-17.7c0-9.8,7.9-17.7,17.7-17.7
		C27.7-2.1,35.7,5.9,35.7,15.7"/>
	<path class="st11" d="M35.6,15.6c0,9.8-7.9,17.7-17.7,17.7c-9.8,0-17.7-7.9-17.7-17.7c0-9.8,7.9-17.7,17.7-17.7
		C27.7-2.1,35.6,5.9,35.6,15.6"/>
	<path class="st12" d="M35.6,15.6c0,9.8-7.9,17.7-17.7,17.7S0.2,25.4,0.2,15.6c0-9.8,7.9-17.7,17.7-17.7S35.6,5.8,35.6,15.6"/>
	<path class="st12" d="M35.6,15.6c0,9.8-7.9,17.7-17.7,17.7c-9.8,0-17.7-7.9-17.7-17.7c0-9.8,7.9-17.7,17.7-17.7
		C27.7-2.1,35.6,5.8,35.6,15.6"/>
	<path class="st13" d="M35.5,15.6c0,9.7-7.9,17.6-17.6,17.6c-9.7,0-17.6-7.9-17.6-17.6c0-9.7,7.9-17.6,17.6-17.6
		C27.6-2.1,35.5,5.8,35.5,15.6"/>
	<path class="st13" d="M35.5,15.5c0,9.7-7.9,17.6-17.6,17.6S0.3,25.3,0.3,15.5c0-9.7,7.9-17.6,17.6-17.6S35.5,5.8,35.5,15.5"/>
	<path class="st14" d="M35.5,15.5c0,9.7-7.9,17.6-17.6,17.6S0.3,25.2,0.3,15.5c0-9.7,7.9-17.6,17.6-17.6S35.5,5.8,35.5,15.5"/>
	<path class="st15" d="M35.4,15.5c0,9.7-7.9,17.6-17.6,17.6S0.3,25.2,0.3,15.5c0-9.7,7.9-17.6,17.6-17.6S35.4,5.8,35.4,15.5"/>
	<path class="st15" d="M35.4,15.5c0,9.7-7.9,17.5-17.5,17.5C8.2,33,0.3,25.2,0.3,15.5c0-9.7,7.9-17.5,17.5-17.5
		C27.5-2.1,35.4,5.8,35.4,15.5"/>
	<path class="st16" d="M35.4,15.5c0,9.7-7.8,17.5-17.5,17.5C8.2,33,0.3,25.1,0.3,15.5c0-9.7,7.8-17.5,17.5-17.5
		C27.5-2.1,35.4,5.8,35.4,15.5"/>
	<path class="st17" d="M35.3,15.4c0,9.7-7.8,17.5-17.5,17.5c-9.7,0-17.5-7.8-17.5-17.5c0-9.7,7.8-17.5,17.5-17.5
		C27.5-2.1,35.3,5.8,35.3,15.4"/>
	<path class="st17" d="M35.3,15.4c0,9.6-7.8,17.5-17.5,17.5C8.2,32.9,0.4,25,0.4,15.4c0-9.6,7.8-17.5,17.5-17.5
		C27.5-2.1,35.3,5.8,35.3,15.4"/>
	<path class="st18" d="M35.2,15.4c0,9.6-7.8,17.4-17.4,17.4C8.2,32.8,0.4,25,0.4,15.4C0.4,5.8,8.2-2,17.8-2
		C27.4-2,35.2,5.8,35.2,15.4"/>
	<path class="st18" d="M35.2,15.4c0,9.6-7.8,17.4-17.4,17.4C8.2,32.8,0.4,25,0.4,15.4C0.4,5.7,8.2-2,17.8-2
		C27.4-2,35.2,5.7,35.2,15.4"/>
	<path class="st19" d="M35.2,15.3c0,9.6-7.8,17.4-17.4,17.4S0.4,24.9,0.4,15.3C0.4,5.7,8.2-2,17.8-2S35.2,5.7,35.2,15.3"/>
	<path class="st20" d="M35.1,15.3c0,9.6-7.8,17.4-17.4,17.4c-9.6,0-17.4-7.8-17.4-17.4C0.4,5.7,8.2-2,17.8-2
		C27.4-2,35.1,5.7,35.1,15.3"/>
	<path class="st20" d="M35.1,15.3c0,9.6-7.8,17.3-17.3,17.3c-9.6,0-17.3-7.8-17.3-17.3C0.4,5.7,8.2-2,17.8-2
		C27.3-2,35.1,5.7,35.1,15.3"/>
	<path class="st21" d="M35.1,15.3c0,9.6-7.7,17.3-17.3,17.3c-9.6,0-17.3-7.7-17.3-17.3C0.5,5.7,8.2-2,17.8-2
		C27.3-2,35.1,5.7,35.1,15.3"/>
	<path class="st21" d="M35,15.2c0,9.5-7.7,17.3-17.3,17.3c-9.5,0-17.3-7.7-17.3-17.3C0.5,5.7,8.2-2,17.8-2C27.3-2,35,5.7,35,15.2"/>
	<path class="st22" d="M35,15.2c0,9.5-7.7,17.3-17.3,17.3S0.5,24.7,0.5,15.2C0.5,5.7,8.2-2,17.7-2S35,5.7,35,15.2"/>
	<path class="st23" d="M35,15.2c0,9.5-7.7,17.2-17.2,17.2c-9.5,0-17.2-7.7-17.2-17.2C0.5,5.7,8.2-2,17.7-2C27.2-2,35,5.7,35,15.2"/>
	<path class="st23" d="M34.9,15.2c0,9.5-7.7,17.2-17.2,17.2c-9.5,0-17.2-7.7-17.2-17.2S8.2-2,17.7-2C27.2-2,34.9,5.7,34.9,15.2"/>
	<path class="st24" d="M34.9,15.1c0,9.5-7.7,17.2-17.2,17.2c-9.5,0-17.2-7.7-17.2-17.2C0.5,5.7,8.2-2,17.7-2
		C27.2-2,34.9,5.7,34.9,15.1"/>
	<path class="st24" d="M34.8,15.1c0,9.5-7.7,17.2-17.2,17.2c-9.5,0-17.1-7.7-17.1-17.2C0.6,5.7,8.2-2,17.7-2
		C27.2-2,34.8,5.7,34.8,15.1"/>
	<path class="st25" d="M34.8,15.1c0,9.5-7.7,17.1-17.1,17.1S0.6,24.6,0.6,15.1C0.6,5.6,8.2-2,17.7-2S34.8,5.6,34.8,15.1"/>
	<path class="st26" d="M34.8,15.1c0,9.4-7.7,17.1-17.1,17.1S0.6,24.5,0.6,15.1C0.6,5.6,8.2-2,17.7-2S34.8,5.6,34.8,15.1"/>
	<path class="st26" d="M34.7,15.1c0,9.4-7.6,17.1-17.1,17.1S0.6,24.5,0.6,15.1C0.6,5.6,8.2-2,17.7-2S34.7,5.6,34.7,15.1"/>
	<path class="st27" d="M34.7,15c0,9.4-7.6,17-17,17c-9.4,0-17-7.6-17-17c0-9.4,7.6-17,17-17C27.1-2,34.7,5.6,34.7,15"/>
	<path class="st27" d="M34.7,15c0,9.4-7.6,17-17,17c-9.4,0-17-7.6-17-17c0-9.4,7.6-17,17-17C27-2,34.7,5.6,34.7,15"/>
	<path class="st28" d="M34.6,15c0,9.4-7.6,17-17,17c-9.4,0-17-7.6-17-17c0-9.4,7.6-17,17-17C27-2,34.6,5.6,34.6,15"/>
	<path class="st29" d="M34.6,15c0,9.4-7.6,17-17,17c-9.4,0-17-7.6-17-17c0-9.4,7.6-17,17-17C27-2,34.6,5.6,34.6,15"/>
	<path class="st29" d="M34.6,14.9c0,9.4-7.6,16.9-16.9,16.9c-9.4,0-16.9-7.6-16.9-16.9C0.7,5.6,8.3-2,17.6-2
		C27-2,34.6,5.6,34.6,14.9"/>
	<path class="st30" d="M34.5,14.9c0,9.3-7.6,16.9-16.9,16.9S0.7,24.3,0.7,14.9C0.7,5.6,8.3-2,17.6-2S34.5,5.6,34.5,14.9"/>
	<path class="st30" d="M34.5,14.9c0,9.3-7.6,16.9-16.9,16.9S0.7,24.2,0.7,14.9C0.7,5.6,8.3-2,17.6-2S34.5,5.6,34.5,14.9"/>
	<path class="st31" d="M34.5,14.9c0,9.3-7.6,16.9-16.9,16.9c-9.3,0-16.9-7.6-16.9-16.9C0.7,5.5,8.3-2,17.6-2
		C26.9-2,34.5,5.5,34.5,14.9"/>
	<path class="st31" d="M34.4,14.8c0,9.3-7.5,16.8-16.8,16.8c-9.3,0-16.8-7.5-16.8-16.8C0.7,5.5,8.3-2,17.6-2
		C26.9-2,34.4,5.5,34.4,14.8"/>
	<path class="st32" d="M34.4,14.8c0,9.3-7.5,16.8-16.8,16.8c-9.3,0-16.8-7.5-16.8-16.8C0.7,5.5,8.3-2,17.6-2
		C26.9-2,34.4,5.5,34.4,14.8"/>
	<path class="st33" d="M34.3,14.8c0,9.3-7.5,16.8-16.8,16.8c-9.3,0-16.8-7.5-16.8-16.8C0.8,5.5,8.3-2,17.6-2
		C26.8-2,34.3,5.5,34.3,14.8"/>
	<path class="st33" d="M34.3,14.8c0,9.3-7.5,16.8-16.8,16.8C8.3,31.5,0.8,24,0.8,14.8C0.8,5.5,8.3-2,17.5-2
		C26.8-2,34.3,5.5,34.3,14.8"/>
	<path class="st34" d="M34.3,14.7c0,9.2-7.5,16.7-16.7,16.7C8.3,31.5,0.8,24,0.8,14.7C0.8,5.5,8.3-2,17.5-2
		C26.8-2,34.3,5.5,34.3,14.7"/>
	<path class="st34" d="M34.2,14.7c0,9.2-7.5,16.7-16.7,16.7S0.8,24,0.8,14.7C0.8,5.5,8.3-2,17.5-2S34.2,5.5,34.2,14.7"/>
	<path class="st35" d="M34.2,14.7c0,9.2-7.5,16.7-16.7,16.7c-9.2,0-16.7-7.5-16.7-16.7C0.8,5.5,8.3-2,17.5-2
		C26.7-2,34.2,5.5,34.2,14.7"/>
	<path class="st35" d="M34.2,14.7c0,9.2-7.5,16.7-16.7,16.7c-9.2,0-16.7-7.5-16.7-16.7C0.8,5.5,8.3-2,17.5-2
		C26.7-2,34.2,5.5,34.2,14.7"/>
	<path class="st36" d="M34.1,14.7c0,9.2-7.4,16.6-16.6,16.6S0.9,23.8,0.9,14.7C0.9,5.5,8.3-2,17.5-2S34.1,5.5,34.1,14.7"/>
	<path class="st36" d="M34.1,14.6c0,9.2-7.4,16.6-16.6,16.6S0.9,23.8,0.9,14.6C0.9,5.5,8.3-2,17.5-2S34.1,5.5,34.1,14.6"/>
	<path class="st37" d="M34.1,14.6c0,9.2-7.4,16.6-16.6,16.6c-9.2,0-16.6-7.4-16.6-16.6C0.9,5.4,8.3-2,17.5-2
		C26.6-2,34.1,5.4,34.1,14.6"/>
	<path class="st38" d="M34,14.6c0,9.1-7.4,16.6-16.6,16.6c-9.1,0-16.6-7.4-16.6-16.6C0.9,5.4,8.3-2,17.5-2C26.6-2,34,5.4,34,14.6"/>
	<path class="st38" d="M34,14.6c0,9.1-7.4,16.5-16.5,16.5c-9.1,0-16.5-7.4-16.5-16.5C0.9,5.4,8.3-2,17.5-2C26.6-2,34,5.4,34,14.6"/>
	<path class="st39" d="M33.9,14.5c0,9.1-7.4,16.5-16.5,16.5C8.3,31,0.9,23.7,0.9,14.5C0.9,5.4,8.3-2,17.4-2
		C26.6-2,33.9,5.4,33.9,14.5"/>
	<path class="st39" d="M33.9,14.5c0,9.1-7.4,16.5-16.5,16.5C8.3,31,0.9,23.6,0.9,14.5C0.9,5.4,8.3-2,17.4-2
		C26.5-2,33.9,5.4,33.9,14.5"/>
	<path class="st40" d="M33.9,14.5c0,9.1-7.4,16.5-16.5,16.5C8.3,30.9,1,23.6,1,14.5C1,5.4,8.3-2,17.4-2C26.5-2,33.9,5.4,33.9,14.5"
		/>
	<path class="st40" d="M33.8,14.5c0,9.1-7.4,16.4-16.4,16.4S1,23.5,1,14.5C1,5.4,8.3-2,17.4-2S33.8,5.4,33.8,14.5"/>
	<path class="st41" d="M33.8,14.4c0,9.1-7.3,16.4-16.4,16.4S1,23.5,1,14.4C1,5.4,8.3-2,17.4-2S33.8,5.4,33.8,14.4"/>
	<path class="st41" d="M33.8,14.4c0,9-7.3,16.4-16.4,16.4C8.3,30.8,1,23.5,1,14.4C1,5.4,8.3-2,17.4-2C26.4-2,33.8,5.4,33.8,14.4"/>
	<path class="st42" d="M33.7,14.4c0,9-7.3,16.4-16.4,16.4C8.3,30.7,1,23.4,1,14.4C1,5.4,8.3-2,17.4-2C26.4-2,33.7,5.4,33.7,14.4"/>
	<path class="st42" d="M33.7,14.4c0,9-7.3,16.3-16.3,16.3C8.4,30.7,1,23.4,1,14.4C1,5.4,8.4-2,17.4-2C26.4-2,33.7,5.4,33.7,14.4"/>
	<path class="st43" d="M33.7,14.3c0,9-7.3,16.3-16.3,16.3c-9,0-16.3-7.3-16.3-16.3C1.1,5.3,8.4-2,17.4-2C26.4-2,33.7,5.3,33.7,14.3"
		/>
	<path class="st43" d="M33.6,14.3c0,9-7.3,16.3-16.3,16.3c-9,0-16.3-7.3-16.3-16.3C1.1,5.3,8.4-2,17.3-2C26.3-2,33.6,5.3,33.6,14.3"
		/>
	<path class="st44" d="M33.6,14.3c0,9-7.3,16.3-16.3,16.3c-9,0-16.3-7.3-16.3-16.3C1.1,5.3,8.4-2,17.3-2C26.3-2,33.6,5.3,33.6,14.3"
		/>
	<path class="st45" d="M33.6,14.3c0,9-7.3,16.2-16.2,16.2c-9,0-16.2-7.3-16.2-16.2C1.1,5.3,8.4-2,17.3-2C26.3-2,33.6,5.3,33.6,14.3"
		/>
	<path class="st45" d="M33.5,14.3c0,8.9-7.3,16.2-16.2,16.2S1.1,23.2,1.1,14.3c0-8.9,7.3-16.2,16.2-16.2S33.5,5.3,33.5,14.3"/>
	<path class="st46" d="M33.5,14.2c0,8.9-7.2,16.2-16.2,16.2c-8.9,0-16.2-7.2-16.2-16.2c0-8.9,7.2-16.2,16.2-16.2
		C26.2-1.9,33.5,5.3,33.5,14.2"/>
	<path class="st46" d="M33.4,14.2c0,8.9-7.2,16.2-16.2,16.2c-8.9,0-16.1-7.2-16.1-16.2c0-8.9,7.2-16.1,16.1-16.1
		C26.2-1.9,33.4,5.3,33.4,14.2"/>
	<path class="st47" d="M33.4,14.2c0,8.9-7.2,16.1-16.1,16.1S1.2,23.1,1.2,14.2c0-8.9,7.2-16.1,16.1-16.1S33.4,5.3,33.4,14.2"/>
	<path class="st47" d="M33.4,14.2c0,8.9-7.2,16.1-16.1,16.1C8.4,30.3,1.2,23,1.2,14.2c0-8.9,7.2-16.1,16.1-16.1
		C26.2-1.9,33.4,5.3,33.4,14.2"/>
	<path class="st48" d="M33.3,14.1c0,8.9-7.2,16.1-16.1,16.1S1.2,23,1.2,14.1c0-8.9,7.2-16.1,16.1-16.1S33.3,5.3,33.3,14.1"/>
	<path class="st48" d="M33.3,14.1c0,8.9-7.2,16-16,16c-8.9,0-16-7.2-16-16c0-8.9,7.2-16,16-16C26.1-1.9,33.3,5.2,33.3,14.1"/>
	<path class="st49" d="M33.3,14.1c0,8.8-7.2,16-16,16c-8.8,0-16-7.2-16-16c0-8.8,7.2-16,16-16C26.1-1.9,33.3,5.2,33.3,14.1"/>
	<path class="st49" d="M33.2,14.1c0,8.8-7.2,16-16,16s-16-7.2-16-16c0-8.8,7.2-16,16-16S33.2,5.2,33.2,14.1"/>
	<path class="st50" d="M33.2,14c0,8.8-7.2,16-16,16c-8.8,0-16-7.1-16-16c0-8.8,7.2-16,16-16C26-1.9,33.2,5.2,33.2,14"/>
	<path class="st50" d="M33.2,14C33.2,22.8,26,30,17.2,30S1.3,22.8,1.3,14c0-8.8,7.1-15.9,15.9-15.9S33.2,5.2,33.2,14"/>
	<path class="st51" d="M33.1,14c0,8.8-7.1,15.9-15.9,15.9C8.4,29.9,1.3,22.8,1.3,14c0-8.8,7.1-15.9,15.9-15.9
		C26-1.9,33.1,5.2,33.1,14"/>
	<path class="st51" d="M33.1,14c0,8.8-7.1,15.9-15.9,15.9C8.4,29.9,1.3,22.7,1.3,14c0-8.8,7.1-15.9,15.9-15.9
		C26-1.9,33.1,5.2,33.1,14"/>
	<path class="st52" d="M33.1,13.9c0,8.8-7.1,15.9-15.9,15.9c-8.8,0-15.9-7.1-15.9-15.9c0-8.8,7.1-15.9,15.9-15.9
		C25.9-1.9,33.1,5.2,33.1,13.9"/>
	<path class="st52" d="M33,13.9c0,8.7-7.1,15.8-15.8,15.8c-8.8,0-15.8-7.1-15.8-15.8c0-8.7,7.1-15.8,15.8-15.8
		C25.9-1.9,33,5.2,33,13.9"/>
	<path class="st53" d="M33,13.9c0,8.7-7.1,15.8-15.8,15.8c-8.7,0-15.8-7.1-15.8-15.8c0-8.7,7.1-15.8,15.8-15.8
		C25.9-1.9,33,5.2,33,13.9"/>
	<path class="st53" d="M32.9,13.9c0,8.7-7.1,15.8-15.8,15.8c-8.7,0-15.8-7.1-15.8-15.8c0-8.7,7.1-15.8,15.8-15.8
		C25.9-1.9,32.9,5.2,32.9,13.9"/>
	<path class="st54" d="M32.9,13.9c0,8.7-7.1,15.8-15.8,15.8c-8.7,0-15.8-7.1-15.8-15.8c0-8.7,7.1-15.8,15.8-15.8
		C25.8-1.9,32.9,5.1,32.9,13.9"/>
	<path class="st54" d="M32.9,13.8c0,8.7-7,15.7-15.7,15.7c-8.7,0-15.7-7-15.7-15.7c0-8.7,7-15.7,15.7-15.7
		C25.8-1.9,32.9,5.1,32.9,13.8"/>
	<path class="st55" d="M32.8,13.8c0,8.7-7,15.7-15.7,15.7s-15.7-7-15.7-15.7c0-8.7,7-15.7,15.7-15.7S32.8,5.1,32.8,13.8"/>
	<path class="st55" d="M32.8,13.8c0,8.7-7,15.7-15.7,15.7c-8.7,0-15.7-7-15.7-15.7c0-8.7,7-15.7,15.7-15.7
		C25.8-1.9,32.8,5.1,32.8,13.8"/>
	<path class="st56" d="M32.8,13.8c0,8.7-7,15.7-15.7,15.7c-8.6,0-15.7-7-15.7-15.7c0-8.6,7-15.7,15.7-15.7
		C25.8-1.9,32.8,5.1,32.8,13.8"/>
	<path class="st56" d="M32.7,13.7c0,8.6-7,15.6-15.6,15.6s-15.6-7-15.6-15.6c0-8.6,7-15.6,15.6-15.6S32.7,5.1,32.7,13.7"/>
	<path class="st57" d="M32.7,13.7c0,8.6-7,15.6-15.6,15.6c-8.6,0-15.6-7-15.6-15.6c0-8.6,7-15.6,15.6-15.6
		C25.7-1.9,32.7,5.1,32.7,13.7"/>
	<path class="st57" d="M32.7,13.7c0,8.6-7,15.6-15.6,15.6c-8.6,0-15.6-7-15.6-15.6c0-8.6,7-15.6,15.6-15.6
		C25.7-1.9,32.7,5.1,32.7,13.7"/>
	<path class="st58" d="M32.6,13.7c0,8.6-7,15.6-15.6,15.6c-8.6,0-15.6-7-15.6-15.6c0-8.6,7-15.6,15.6-15.6
		C25.7-1.9,32.6,5.1,32.6,13.7"/>
	<path class="st58" d="M32.6,13.6c0,8.6-7,15.5-15.5,15.5c-8.6,0-15.5-7-15.5-15.5c0-8.6,7-15.5,15.5-15.5
		C25.6-1.9,32.6,5.1,32.6,13.6"/>
	<path class="st58" d="M32.5,13.6c0,8.6-6.9,15.5-15.5,15.5S1.5,22.2,1.5,13.6C1.5,5,8.5-1.9,17-1.9S32.5,5,32.5,13.6"/>
	<path class="st59" d="M32.5,13.6c0,8.6-6.9,15.5-15.5,15.5c-8.6,0-15.5-6.9-15.5-15.5C1.5,5,8.5-1.9,17-1.9
		C25.6-1.9,32.5,5,32.5,13.6"/>
	<path class="st59" d="M32.5,13.6C32.5,22.1,25.6,29,17,29S1.6,22.1,1.6,13.6C1.6,5,8.5-1.9,17-1.9S32.5,5,32.5,13.6"/>
	<path class="st60" d="M32.4,13.5C32.4,22.1,25.5,29,17,29S1.6,22.1,1.6,13.5C1.6,5,8.5-1.9,17-1.9S32.4,5,32.4,13.5"/>
	<path class="st60" d="M32.4,13.5c0,8.5-6.9,15.4-15.4,15.4C8.5,28.9,1.6,22,1.6,13.5C1.6,5,8.5-1.9,17-1.9
		C25.5-1.9,32.4,5,32.4,13.5"/>
	<path class="st61" d="M32.4,13.5c0,8.5-6.9,15.4-15.4,15.4C8.5,28.9,1.6,22,1.6,13.5C1.6,5,8.5-1.9,17-1.9
		C25.5-1.9,32.4,5,32.4,13.5"/>
	<path class="st61" d="M32.3,13.5c0,8.5-6.9,15.4-15.4,15.4C8.5,28.8,1.6,22,1.6,13.5C1.6,5,8.5-1.9,17-1.9
		C25.5-1.9,32.3,5,32.3,13.5"/>
	<path class="st62" d="M32.3,13.4c0,8.5-6.9,15.3-15.3,15.3c-8.5,0-15.3-6.9-15.3-15.3C1.6,5,8.5-1.9,17-1.9
		C25.4-1.9,32.3,5,32.3,13.4"/>
	<path class="st62" d="M32.3,13.4c0,8.5-6.9,15.3-15.3,15.3c-8.5,0-15.3-6.9-15.3-15.3C1.7,5,8.5-1.9,17-1.9
		C25.4-1.9,32.3,5,32.3,13.4"/>
	<path class="st63" d="M32.2,13.4c0,8.4-6.8,15.3-15.3,15.3c-8.4,0-15.3-6.8-15.3-15.3C1.7,5,8.5-1.9,16.9-1.9
		C25.4-1.9,32.2,5,32.2,13.4"/>
	<path class="st63" d="M32.2,13.4c0,8.4-6.8,15.3-15.3,15.3c-8.4,0-15.3-6.8-15.3-15.3C1.7,5,8.5-1.9,16.9-1.9
		C25.4-1.9,32.2,5,32.2,13.4"/>
	<path class="st64" d="M32.2,13.4c0,8.4-6.8,15.2-15.2,15.2S1.7,21.8,1.7,13.4c0-8.4,6.8-15.2,15.2-15.2S32.2,4.9,32.2,13.4"/>
	<path class="st64" d="M32.1,13.3c0,8.4-6.8,15.2-15.2,15.2c-8.4,0-15.2-6.8-15.2-15.2c0-8.4,6.8-15.2,15.2-15.2
		C25.3-1.9,32.1,4.9,32.1,13.3"/>
	<path class="st64" d="M32.1,13.3c0,8.4-6.8,15.2-15.2,15.2c-8.4,0-15.2-6.8-15.2-15.2c0-8.4,6.8-15.2,15.2-15.2
		C25.3-1.9,32.1,4.9,32.1,13.3"/>
	<path class="st65" d="M32,13.3c0,8.4-6.8,15.2-15.2,15.2S1.7,21.7,1.7,13.3c0-8.4,6.8-15.1,15.1-15.1S32,4.9,32,13.3"/>
	<path class="st65" d="M32,13.3c0,8.4-6.8,15.1-15.1,15.1c-8.4,0-15.1-6.8-15.1-15.1c0-8.4,6.8-15.1,15.1-15.1
		C25.2-1.9,32,4.9,32,13.3"/>
	<path class="st66" d="M32,13.2c0,8.3-6.8,15.1-15.1,15.1c-8.3,0-15.1-6.8-15.1-15.1c0-8.3,6.8-15.1,15.1-15.1
		C25.2-1.9,32,4.9,32,13.2"/>
	<path class="st66" d="M31.9,13.2c0,8.3-6.7,15.1-15.1,15.1c-8.3,0-15.1-6.7-15.1-15.1c0-8.3,6.7-15.1,15.1-15.1
		C25.2-1.9,31.9,4.9,31.9,13.2"/>
	<path class="st67" d="M31.9,13.2c0,8.3-6.7,15-15,15c-8.3,0-15-6.7-15-15c0-8.3,6.7-15,15-15C25.2-1.9,31.9,4.9,31.9,13.2"/>
	<path class="st67" d="M31.9,13.2c0,8.3-6.7,15-15,15c-8.3,0-15-6.7-15-15c0-8.3,6.7-15,15-15C25.1-1.9,31.9,4.9,31.9,13.2"/>
	<path class="st67" d="M31.8,13.1c0,8.3-6.7,15-15,15c-8.3,0-15-6.7-15-15c0-8.3,6.7-15,15-15C25.1-1.9,31.8,4.9,31.8,13.1"/>
	<path class="st68" d="M31.8,13.1c0,8.3-6.7,15-15,15s-15-6.7-15-15c0-8.3,6.7-15,15-15S31.8,4.9,31.8,13.1"/>
	<path class="st68" d="M31.8,13.1c0,8.3-6.7,14.9-14.9,14.9S1.9,21.4,1.9,13.1c0-8.3,6.7-14.9,14.9-14.9S31.8,4.8,31.8,13.1"/>
	<path class="st69" d="M31.7,13.1C31.7,21.3,25,28,16.8,28C8.6,28,1.9,21.3,1.9,13.1c0-8.2,6.7-14.9,14.9-14.9
		C25-1.8,31.7,4.8,31.7,13.1"/>
	<path class="st69" d="M31.7,13c0,8.2-6.7,14.9-14.9,14.9C8.6,27.9,1.9,21.3,1.9,13c0-8.2,6.7-14.9,14.9-14.9
		C25-1.8,31.7,4.8,31.7,13"/>
	<path class="st70" d="M31.6,13c0,8.2-6.7,14.9-14.9,14.9S1.9,21.2,1.9,13c0-8.2,6.7-14.9,14.9-14.9S31.6,4.8,31.6,13"/>
	<path class="st70" d="M31.6,13c0,8.2-6.6,14.8-14.8,14.8C8.6,27.8,1.9,21.2,1.9,13c0-8.2,6.6-14.8,14.8-14.8
		C25-1.8,31.6,4.8,31.6,13"/>
	<path class="st70" d="M31.6,13c0,8.2-6.6,14.8-14.8,14.8S1.9,21.2,1.9,13c0-8.2,6.6-14.8,14.8-14.8S31.6,4.8,31.6,13"/>
	<path class="st71" d="M31.5,13c0,8.2-6.6,14.8-14.8,14.8C8.6,27.7,2,21.1,2,13C2,4.8,8.6-1.8,16.7-1.8C24.9-1.8,31.5,4.8,31.5,13"
		/>
	<path class="st71" d="M31.5,12.9c0,8.2-6.6,14.8-14.8,14.8C8.6,27.7,2,21.1,2,12.9C2,4.8,8.6-1.8,16.7-1.8
		C24.9-1.8,31.5,4.8,31.5,12.9"/>
	<path class="st72" d="M31.5,12.9c0,8.1-6.6,14.7-14.7,14.7C8.6,27.6,2,21,2,12.9C2,4.8,8.6-1.8,16.7-1.8
		C24.9-1.8,31.5,4.8,31.5,12.9"/>
	<path class="st72" d="M31.4,12.9c0,8.1-6.6,14.7-14.7,14.7C8.6,27.6,2,21,2,12.9C2,4.8,8.6-1.8,16.7-1.8
		C24.8-1.8,31.4,4.8,31.4,12.9"/>
	<path class="st72" d="M31.4,12.9c0,8.1-6.6,14.7-14.7,14.7C8.6,27.5,2,21,2,12.9C2,4.7,8.6-1.8,16.7-1.8
		C24.8-1.8,31.4,4.7,31.4,12.9"/>
	<path class="st73" d="M31.4,12.8c0,8.1-6.6,14.7-14.7,14.7C8.6,27.5,2,20.9,2,12.8C2,4.7,8.6-1.8,16.7-1.8
		C24.8-1.8,31.4,4.7,31.4,12.8"/>
	<path class="st73" d="M31.3,12.8c0,8.1-6.6,14.6-14.6,14.6S2,20.9,2,12.8C2,4.7,8.6-1.8,16.7-1.8S31.3,4.7,31.3,12.8"/>
	<path class="st74" d="M31.3,12.8c0,8.1-6.5,14.6-14.6,14.6c-8.1,0-14.6-6.5-14.6-14.6c0-8.1,6.5-14.6,14.6-14.6
		C24.7-1.8,31.3,4.7,31.3,12.8"/>
	<path class="st74" d="M31.3,12.8c0,8.1-6.5,14.6-14.6,14.6S2.1,20.8,2.1,12.8c0-8.1,6.5-14.6,14.6-14.6S31.3,4.7,31.3,12.8"/>
	<path class="st74" d="M31.2,12.7c0,8-6.5,14.6-14.6,14.6c-8,0-14.6-6.5-14.6-14.6c0-8,6.5-14.6,14.6-14.6
		C24.7-1.8,31.2,4.7,31.2,12.7"/>
	<path class="st75" d="M31.2,12.7c0,8-6.5,14.5-14.5,14.5c-8,0-14.5-6.5-14.5-14.5c0-8,6.5-14.5,14.5-14.5
		C24.7-1.8,31.2,4.7,31.2,12.7"/>
	<path class="st75" d="M31.1,12.7c0,8-6.5,14.5-14.5,14.5S2.1,20.7,2.1,12.7c0-8,6.5-14.5,14.5-14.5S31.1,4.7,31.1,12.7"/>
	<path class="st76" d="M31.1,12.7c0,8-6.5,14.5-14.5,14.5c-8,0-14.5-6.5-14.5-14.5c0-8,6.5-14.5,14.5-14.5
		C24.6-1.8,31.1,4.7,31.1,12.7"/>
	<path class="st76" d="M31.1,12.6c0,8-6.5,14.5-14.5,14.5S2.2,20.6,2.2,12.6c0-8,6.5-14.5,14.5-14.5S31.1,4.7,31.1,12.6"/>
	<path class="st76" d="M31,12.6c0,8-6.5,14.4-14.4,14.4c-8,0-14.4-6.5-14.4-14.4c0-8,6.5-14.4,14.4-14.4C24.6-1.8,31,4.7,31,12.6"/>
	<path class="st77" d="M31,12.6c0,8-6.5,14.4-14.4,14.4c-8,0-14.4-6.5-14.4-14.4c0-8,6.4-14.4,14.4-14.4C24.6-1.8,31,4.6,31,12.6"/>
	<path class="st77" d="M31,12.6C31,20.5,24.5,27,16.6,27S2.2,20.5,2.2,12.6c0-7.9,6.4-14.4,14.4-14.4S31,4.6,31,12.6"/>
	<path class="st77" d="M30.9,12.6c0,7.9-6.4,14.4-14.4,14.4c-7.9,0-14.4-6.4-14.4-14.4c0-7.9,6.4-14.4,14.4-14.4
		C24.5-1.8,30.9,4.6,30.9,12.6"/>
	<path class="st78" d="M30.9,12.5c0,7.9-6.4,14.3-14.3,14.3S2.2,20.4,2.2,12.5c0-7.9,6.4-14.3,14.3-14.3S30.9,4.6,30.9,12.5"/>
	<path class="st78" d="M30.9,12.5c0,7.9-6.4,14.3-14.3,14.3c-7.9,0-14.3-6.4-14.3-14.3c0-7.9,6.4-14.3,14.3-14.3
		C24.5-1.8,30.9,4.6,30.9,12.5"/>
	<path class="st79" d="M30.8,12.5c0,7.9-6.4,14.3-14.3,14.3c-7.9,0-14.3-6.4-14.3-14.3c0-7.9,6.4-14.3,14.3-14.3
		C24.4-1.8,30.8,4.6,30.8,12.5"/>
	<path class="st79" d="M30.8,12.5c0,7.9-6.4,14.3-14.3,14.3S2.3,20.3,2.3,12.5c0-7.9,6.4-14.3,14.3-14.3S30.8,4.6,30.8,12.5"/>
	<path class="st79" d="M30.7,12.4c0,7.9-6.4,14.2-14.2,14.2c-7.9,0-14.2-6.4-14.2-14.2c0-7.9,6.4-14.2,14.2-14.2
		C24.4-1.8,30.7,4.6,30.7,12.4"/>
	<path class="st80" d="M30.7,12.4c0,7.8-6.4,14.2-14.2,14.2c-7.8,0-14.2-6.4-14.2-14.2c0-7.8,6.4-14.2,14.2-14.2
		C24.4-1.8,30.7,4.6,30.7,12.4"/>
	<path class="st80" d="M30.7,12.4c0,7.8-6.3,14.2-14.2,14.2c-7.8,0-14.2-6.3-14.2-14.2c0-7.8,6.3-14.2,14.2-14.2
		C24.3-1.8,30.7,4.6,30.7,12.4"/>
	<path class="st80" d="M30.6,12.4c0,7.8-6.3,14.2-14.2,14.2S2.3,20.2,2.3,12.4c0-7.8,6.3-14.1,14.2-14.1S30.6,4.6,30.6,12.4"/>
	<path class="st81" d="M30.6,12.3c0,7.8-6.3,14.1-14.1,14.1c-7.8,0-14.1-6.3-14.1-14.1c0-7.8,6.3-14.1,14.1-14.1
		C24.3-1.8,30.6,4.5,30.6,12.3"/>
	<path class="st81" d="M30.6,12.3c0,7.8-6.3,14.1-14.1,14.1c-7.8,0-14.1-6.3-14.1-14.1c0-7.8,6.3-14.1,14.1-14.1
		C24.3-1.8,30.6,4.5,30.6,12.3"/>
	<path class="st81" d="M30.5,12.3c0,7.8-6.3,14.1-14.1,14.1c-7.8,0-14.1-6.3-14.1-14.1c0-7.8,6.3-14.1,14.1-14.1
		C24.2-1.8,30.5,4.5,30.5,12.3"/>
	<path class="st82" d="M30.5,12.3c0,7.8-6.3,14-14,14c-7.8,0-14-6.3-14-14c0-7.8,6.3-14,14-14C24.2-1.8,30.5,4.5,30.5,12.3"/>
	<path class="st82" d="M30.5,12.2c0,7.7-6.3,14-14,14s-14-6.3-14-14c0-7.7,6.3-14,14-14S30.5,4.5,30.5,12.2"/>
	<path class="st82" d="M30.4,12.2c0,7.7-6.3,14-14,14c-7.7,0-14-6.3-14-14c0-7.7,6.3-14,14-14C24.2-1.8,30.4,4.5,30.4,12.2"/>
	<path class="st83" d="M30.4,12.2c0,7.7-6.3,14-14,14s-14-6.3-14-14c0-7.7,6.3-14,14-14S30.4,4.5,30.4,12.2"/>
	<path class="st83" d="M30.4,12.2c0,7.7-6.2,13.9-13.9,13.9S2.5,19.9,2.5,12.2c0-7.7,6.2-13.9,13.9-13.9S30.4,4.5,30.4,12.2"/>
	<path class="st83" d="M30.3,12.2c0,7.7-6.2,13.9-13.9,13.9c-7.7,0-13.9-6.2-13.9-13.9c0-7.7,6.2-13.9,13.9-13.9
		C24.1-1.8,30.3,4.5,30.3,12.2"/>
	<path class="st84" d="M30.3,12.1c0,7.7-6.2,13.9-13.9,13.9C8.7,26,2.5,19.8,2.5,12.1c0-7.7,6.2-13.9,13.9-13.9
		C24.1-1.8,30.3,4.5,30.3,12.1"/>
	<path class="st84" d="M30.2,12.1C30.2,19.8,24,26,16.4,26C8.7,26,2.5,19.8,2.5,12.1c0-7.7,6.2-13.9,13.9-13.9
		C24-1.8,30.2,4.4,30.2,12.1"/>
	<path class="st84" d="M30.2,12.1c0,7.6-6.2,13.8-13.8,13.8c-7.6,0-13.8-6.2-13.8-13.8c0-7.6,6.2-13.8,13.8-13.8
		C24-1.8,30.2,4.4,30.2,12.1"/>
	<path class="st85" d="M30.2,12.1c0,7.6-6.2,13.8-13.8,13.8c-7.6,0-13.8-6.2-13.8-13.8c0-7.6,6.2-13.8,13.8-13.8
		C24-1.8,30.2,4.4,30.2,12.1"/>
	<path class="st85" d="M30.1,12c0,7.6-6.2,13.8-13.8,13.8C8.7,25.8,2.6,19.7,2.6,12c0-7.6,6.2-13.8,13.8-13.8
		C24-1.8,30.1,4.4,30.1,12"/>
	<path class="st85" d="M30.1,12c0,7.6-6.2,13.8-13.8,13.8S2.6,19.6,2.6,12c0-7.6,6.2-13.8,13.8-13.8S30.1,4.4,30.1,12"/>
	<path class="st86" d="M30.1,12c0,7.6-6.2,13.7-13.7,13.7C8.7,25.7,2.6,19.6,2.6,12c0-7.6,6.2-13.7,13.7-13.7
		C23.9-1.8,30.1,4.4,30.1,12"/>
	<path class="st86" d="M30,12c0,7.6-6.1,13.7-13.7,13.7C8.7,25.7,2.6,19.5,2.6,12c0-7.6,6.1-13.7,13.7-13.7C23.9-1.7,30,4.4,30,12"
		/>
	<path class="st86" d="M30,11.9c0,7.6-6.1,13.7-13.7,13.7S2.6,19.5,2.6,11.9c0-7.6,6.1-13.7,13.7-13.7S30,4.4,30,11.9"/>
	<path class="st87" d="M30,11.9c0,7.5-6.1,13.7-13.7,13.7c-7.5,0-13.7-6.1-13.7-13.7c0-7.5,6.1-13.7,13.7-13.7
		C23.8-1.7,30,4.4,30,11.9"/>
	<path class="st87" d="M29.9,11.9c0,7.5-6.1,13.6-13.6,13.6c-7.5,0-13.6-6.1-13.6-13.6c0-7.5,6.1-13.6,13.6-13.6
		C23.8-1.7,29.9,4.4,29.9,11.9"/>
	<path class="st87" d="M29.9,11.9c0,7.5-6.1,13.6-13.6,13.6c-7.5,0-13.6-6.1-13.6-13.6c0-7.5,6.1-13.6,13.6-13.6
		C23.8-1.7,29.9,4.4,29.9,11.9"/>
	<path class="st88" d="M29.8,11.8c0,7.5-6.1,13.6-13.6,13.6c-7.5,0-13.6-6.1-13.6-13.6c0-7.5,6.1-13.6,13.6-13.6
		C23.8-1.7,29.8,4.3,29.8,11.8"/>
	<path class="st88" d="M29.8,11.8c0,7.5-6.1,13.6-13.6,13.6c-7.5,0-13.6-6.1-13.6-13.6c0-7.5,6.1-13.6,13.6-13.6
		C23.7-1.7,29.8,4.3,29.8,11.8"/>
	<path class="st88" d="M29.8,11.8c0,7.5-6.1,13.5-13.5,13.5c-7.5,0-13.5-6.1-13.5-13.5c0-7.5,6.1-13.5,13.5-13.5
		C23.7-1.7,29.8,4.3,29.8,11.8"/>
	<path class="st89" d="M29.7,11.8c0,7.5-6,13.5-13.5,13.5c-7.5,0-13.5-6-13.5-13.5c0-7.5,6-13.5,13.5-13.5
		C23.7-1.7,29.7,4.3,29.7,11.8"/>
	<path class="st89" d="M29.7,11.8c0,7.4-6,13.5-13.5,13.5c-7.4,0-13.5-6-13.5-13.5c0-7.4,6-13.5,13.5-13.5
		C23.7-1.7,29.7,4.3,29.7,11.8"/>
	<path class="st89" d="M29.7,11.7c0,7.4-6,13.5-13.5,13.5s-13.5-6-13.5-13.5c0-7.4,6-13.5,13.5-13.5S29.7,4.3,29.7,11.7"/>
	<path class="st89" d="M29.6,11.7c0,7.4-6,13.4-13.4,13.4c-7.4,0-13.4-6-13.4-13.4c0-7.4,6-13.4,13.4-13.4
		C23.6-1.7,29.6,4.3,29.6,11.7"/>
	<path class="st90" d="M29.6,11.7c0,7.4-6,13.4-13.4,13.4c-7.4,0-13.4-6-13.4-13.4c0-7.4,6-13.4,13.4-13.4
		C23.6-1.7,29.6,4.3,29.6,11.7"/>
	<path class="st90" d="M29.6,11.7c0,7.4-6,13.4-13.4,13.4C8.8,25,2.8,19,2.8,11.7c0-7.4,6-13.4,13.4-13.4
		C23.6-1.7,29.6,4.3,29.6,11.7"/>
	<path class="st90" d="M29.5,11.6c0,7.4-6,13.4-13.4,13.4C8.8,25,2.8,19,2.8,11.6c0-7.4,6-13.4,13.4-13.4
		C23.5-1.7,29.5,4.3,29.5,11.6"/>
	<path class="st91" d="M29.5,11.6c0,7.4-6,13.3-13.3,13.3S2.8,19,2.8,11.6c0-7.4,6-13.3,13.3-13.3S29.5,4.2,29.5,11.6"/>
	<path class="st91" d="M29.5,11.6c0,7.3-6,13.3-13.3,13.3c-7.3,0-13.3-6-13.3-13.3c0-7.3,6-13.3,13.3-13.3
		C23.5-1.7,29.5,4.2,29.5,11.6"/>
	<path class="st91" d="M29.4,11.6c0,7.3-5.9,13.3-13.3,13.3c-7.3,0-13.3-5.9-13.3-13.3c0-7.3,5.9-13.3,13.3-13.3
		C23.5-1.7,29.4,4.2,29.4,11.6"/>
	<path class="st91" d="M29.4,11.5c0,7.3-5.9,13.3-13.3,13.3c-7.3,0-13.3-5.9-13.3-13.3c0-7.3,5.9-13.3,13.3-13.3
		C23.4-1.7,29.4,4.2,29.4,11.5"/>
	<path class="st92" d="M29.3,11.5c0,7.3-5.9,13.2-13.2,13.2c-7.3,0-13.2-5.9-13.2-13.2c0-7.3,5.9-13.2,13.2-13.2
		C23.4-1.7,29.3,4.2,29.3,11.5"/>
	<path class="st92" d="M29.3,11.5c0,7.3-5.9,13.2-13.2,13.2S2.9,18.8,2.9,11.5c0-7.3,5.9-13.2,13.2-13.2S29.3,4.2,29.3,11.5"/>
	<path class="st92" d="M29.3,11.5c0,7.3-5.9,13.2-13.2,13.2c-7.3,0-13.2-5.9-13.2-13.2c0-7.3,5.9-13.2,13.2-13.2
		C23.4-1.7,29.3,4.2,29.3,11.5"/>
	<path class="st92" d="M29.2,11.4c0,7.3-5.9,13.2-13.2,13.2S2.9,18.7,2.9,11.4c0-7.3,5.9-13.2,13.2-13.2S29.2,4.2,29.2,11.4"/>
	<path class="st93" d="M29.2,11.4c0,7.2-5.9,13.1-13.1,13.1C8.8,24.5,3,18.7,3,11.4C3,4.2,8.8-1.7,16.1-1.7
		C23.3-1.7,29.2,4.2,29.2,11.4"/>
	<path class="st93" d="M29.2,11.4c0,7.2-5.9,13.1-13.1,13.1C8.8,24.5,3,18.6,3,11.4C3,4.2,8.8-1.7,16.1-1.7
		C23.3-1.7,29.2,4.2,29.2,11.4"/>
	<path class="st93" d="M29.1,11.4c0,7.2-5.9,13.1-13.1,13.1C8.8,24.4,3,18.6,3,11.4C3,4.2,8.8-1.7,16.1-1.7
		C23.3-1.7,29.1,4.2,29.1,11.4"/>
	<path class="st93" d="M29.1,11.4c0,7.2-5.8,13-13,13c-7.2,0-13-5.8-13-13c0-7.2,5.8-13,13-13C23.3-1.7,29.1,4.1,29.1,11.4"/>
	<path class="st94" d="M29.1,11.3c0,7.2-5.8,13-13,13c-7.2,0-13-5.8-13-13c0-7.2,5.8-13,13-13C23.2-1.7,29.1,4.1,29.1,11.3"/>
	<path class="st94" d="M29,11.3c0,7.2-5.8,13-13,13c-7.2,0-13-5.8-13-13c0-7.2,5.8-13,13-13C23.2-1.7,29,4.1,29,11.3"/>
	<path class="st94" d="M29,11.3c0,7.2-5.8,13-13,13s-13-5.8-13-13c0-7.2,5.8-13,13-13S29,4.1,29,11.3"/>
	<path class="st94" d="M29,11.3c0,7.2-5.8,12.9-12.9,12.9c-7.1,0-12.9-5.8-12.9-12.9C3.1,4.1,8.9-1.7,16-1.7
		C23.2-1.7,29,4.1,29,11.3"/>
	<path class="st95" d="M28.9,11.2c0,7.1-5.8,12.9-12.9,12.9c-7.1,0-12.9-5.8-12.9-12.9C3.1,4.1,8.9-1.7,16-1.7
		C23.1-1.7,28.9,4.1,28.9,11.2"/>
	<path class="st95" d="M28.9,11.2c0,7.1-5.8,12.9-12.9,12.9c-7.1,0-12.9-5.8-12.9-12.9C3.1,4.1,8.9-1.7,16-1.7
		C23.1-1.7,28.9,4.1,28.9,11.2"/>
	<path class="st95" d="M28.8,11.2c0,7.1-5.8,12.9-12.9,12.9c-7.1,0-12.9-5.8-12.9-12.9C3.1,4.1,8.9-1.7,16-1.7
		C23.1-1.7,28.8,4.1,28.8,11.2"/>
	<path class="st95" d="M28.8,11.2C28.8,18.3,23.1,24,16,24S3.1,18.3,3.1,11.2C3.1,4.1,8.9-1.7,16-1.7S28.8,4.1,28.8,11.2"/>
	<path class="st96" d="M28.8,11.1C28.8,18.2,23,24,16,24C8.9,24,3.1,18.2,3.1,11.1C3.1,4.1,8.9-1.7,16-1.7
		C23-1.7,28.8,4.1,28.8,11.1"/>
	<path class="st96" d="M28.7,11.1c0,7.1-5.7,12.8-12.8,12.8c-7.1,0-12.8-5.7-12.8-12.8c0-7.1,5.7-12.8,12.8-12.8
		C23-1.7,28.7,4.1,28.7,11.1"/>
	<path class="st96" d="M28.7,11.1c0,7.1-5.7,12.8-12.8,12.8c-7.1,0-12.8-5.7-12.8-12.8C3.2,4,8.9-1.7,15.9-1.7
		C23-1.7,28.7,4,28.7,11.1"/>
	<path class="st96" d="M28.7,11.1c0,7-5.7,12.7-12.7,12.7c-7,0-12.7-5.7-12.7-12.7c0-7,5.7-12.7,12.7-12.7C23-1.7,28.7,4,28.7,11.1"
		/>
	<path class="st96" d="M28.6,11c0,7-5.7,12.7-12.7,12.7c-7,0-12.7-5.7-12.7-12.7c0-7,5.7-12.7,12.7-12.7C22.9-1.7,28.6,4,28.6,11"/>
	<path class="st97" d="M28.6,11c0,7-5.7,12.7-12.7,12.7S3.2,18,3.2,11c0-7,5.7-12.7,12.7-12.7S28.6,4,28.6,11"/>
	<path class="st97" d="M28.6,11c0,7-5.7,12.7-12.7,12.7C8.9,23.7,3.2,18,3.2,11c0-7,5.7-12.7,12.7-12.7C22.9-1.7,28.6,4,28.6,11"/>
	<path class="st97" d="M28.5,11c0,7-5.7,12.6-12.6,12.6C8.9,23.6,3.2,18,3.2,11c0-7,5.7-12.6,12.6-12.6C22.9-1.7,28.5,4,28.5,11"/>
	<path class="st97" d="M28.5,11c0,7-5.6,12.6-12.6,12.6c-7,0-12.6-5.6-12.6-12.6c0-7,5.6-12.6,12.6-12.6C22.8-1.7,28.5,4,28.5,11"/>
	<path class="st97" d="M28.4,10.9c0,7-5.6,12.6-12.6,12.6c-7,0-12.6-5.6-12.6-12.6c0-7,5.6-12.6,12.6-12.6
		C22.8-1.7,28.4,4,28.4,10.9"/>
	<path class="st98" d="M28.4,10.9c0,6.9-5.6,12.6-12.6,12.6S3.3,17.8,3.3,10.9C3.3,4,8.9-1.7,15.8-1.7S28.4,4,28.4,10.9"/>
	<path class="st98" d="M28.4,10.9c0,6.9-5.6,12.5-12.5,12.5c-6.9,0-12.5-5.6-12.5-12.5C3.3,4,8.9-1.7,15.8-1.7
		C22.8-1.7,28.4,4,28.4,10.9"/>
	<path class="st98" d="M28.3,10.9c0,6.9-5.6,12.5-12.5,12.5S3.3,17.8,3.3,10.9c0-6.9,5.6-12.5,12.5-12.5S28.3,3.9,28.3,10.9"/>
	<path class="st98" d="M28.3,10.8c0,6.9-5.6,12.5-12.5,12.5S3.3,17.7,3.3,10.8c0-6.9,5.6-12.5,12.5-12.5S28.3,3.9,28.3,10.8"/>
	<path class="st98" d="M28.3,10.8c0,6.9-5.6,12.5-12.5,12.5c-6.9,0-12.5-5.6-12.5-12.5c0-6.9,5.6-12.5,12.5-12.5
		C22.7-1.6,28.3,3.9,28.3,10.8"/>
	<path class="st98" d="M28.2,10.8c0,6.9-5.6,12.4-12.4,12.4c-6.9,0-12.4-5.6-12.4-12.4c0-6.9,5.6-12.4,12.4-12.4
		C22.7-1.6,28.2,3.9,28.2,10.8"/>
	<path class="st99" d="M28.2,10.8c0,6.9-5.6,12.4-12.4,12.4c-6.9,0-12.4-5.6-12.4-12.4c0-6.9,5.6-12.4,12.4-12.4
		C22.6-1.6,28.2,3.9,28.2,10.8"/>
	<path class="st99" d="M28.2,10.7c0,6.8-5.5,12.4-12.4,12.4c-6.8,0-12.4-5.5-12.4-12.4c0-6.8,5.5-12.4,12.4-12.4
		C22.6-1.6,28.2,3.9,28.2,10.7"/>
	<path class="st99" d="M28.1,10.7c0,6.8-5.5,12.4-12.4,12.4c-6.8,0-12.4-5.5-12.4-12.4c0-6.8,5.5-12.4,12.4-12.4
		C22.6-1.6,28.1,3.9,28.1,10.7"/>
	<path class="st99" d="M28.1,10.7c0,6.8-5.5,12.3-12.3,12.3C8.9,23,3.4,17.5,3.4,10.7c0-6.8,5.5-12.3,12.3-12.3
		C22.6-1.6,28.1,3.9,28.1,10.7"/>
	<path class="st99" d="M28.1,10.7c0,6.8-5.5,12.3-12.3,12.3C9,23,3.4,17.5,3.4,10.7C3.4,3.9,9-1.6,15.7-1.6
		C22.5-1.6,28.1,3.9,28.1,10.7"/>
	<path class="st99" d="M28,10.6c0,6.8-5.5,12.3-12.3,12.3C9,22.9,3.5,17.4,3.5,10.6C3.5,3.9,9-1.6,15.7-1.6C22.5-1.6,28,3.9,28,10.6
		"/>
	<path class="st100" d="M28,10.6c0,6.8-5.5,12.3-12.3,12.3C9,22.9,3.5,17.4,3.5,10.6C3.5,3.9,9-1.6,15.7-1.6
		C22.5-1.6,28,3.9,28,10.6"/>
	<path class="st100" d="M27.9,10.6c0,6.8-5.5,12.2-12.2,12.2C9,22.8,3.5,17.4,3.5,10.6C3.5,3.8,9-1.6,15.7-1.6
		C22.5-1.6,27.9,3.8,27.9,10.6"/>
	<path class="st100" d="M27.9,10.6c0,6.7-5.5,12.2-12.2,12.2S3.5,17.3,3.5,10.6C3.5,3.8,9-1.6,15.7-1.6S27.9,3.8,27.9,10.6"/>
	<path class="st100" d="M27.9,10.6c0,6.7-5.5,12.2-12.2,12.2C9,22.7,3.5,17.3,3.5,10.6C3.5,3.8,9-1.6,15.7-1.6
		C22.4-1.6,27.9,3.8,27.9,10.6"/>
	<path class="st100" d="M27.8,10.5c0,6.7-5.4,12.2-12.2,12.2S3.5,17.2,3.5,10.5C3.5,3.8,9-1.6,15.7-1.6S27.8,3.8,27.8,10.5"/>
	<path class="st100" d="M27.8,10.5c0,6.7-5.4,12.1-12.1,12.1C9,22.6,3.5,17.2,3.5,10.5C3.5,3.8,9-1.6,15.7-1.6
		C22.4-1.6,27.8,3.8,27.8,10.5"/>
	<path class="st100" d="M27.8,10.5c0,6.7-5.4,12.1-12.1,12.1C9,22.6,3.6,17.2,3.6,10.5C3.6,3.8,9-1.6,15.7-1.6
		C22.3-1.6,27.8,3.8,27.8,10.5"/>
	<path class="st101" d="M27.7,10.5c0,6.7-5.4,12.1-12.1,12.1S3.6,17.1,3.6,10.5C3.6,3.8,9-1.6,15.7-1.6S27.7,3.8,27.7,10.5"/>
	<path class="st101" d="M27.7,10.4c0,6.7-5.4,12-12,12c-6.7,0-12-5.4-12-12c0-6.7,5.4-12,12-12C22.3-1.6,27.7,3.8,27.7,10.4"/>
	<path class="st101" d="M27.7,10.4c0,6.6-5.4,12-12,12s-12-5.4-12-12c0-6.6,5.4-12,12-12S27.7,3.8,27.7,10.4"/>
	<path class="st101" d="M27.6,10.4c0,6.6-5.4,12-12,12c-6.6,0-12-5.4-12-12c0-6.6,5.4-12,12-12C22.2-1.6,27.6,3.8,27.6,10.4"/>
	<path class="st101" d="M27.6,10.4c0,6.6-5.4,12-12,12c-6.6,0-12-5.4-12-12c0-6.6,5.4-12,12-12C22.2-1.6,27.6,3.8,27.6,10.4"/>
	<path class="st101" d="M27.5,10.3c0,6.6-5.3,11.9-11.9,11.9C9,22.3,3.7,16.9,3.7,10.3C3.7,3.7,9-1.6,15.6-1.6
		C22.2-1.6,27.5,3.7,27.5,10.3"/>
	<path class="st101" d="M27.5,10.3c0,6.6-5.3,11.9-11.9,11.9C9,22.2,3.7,16.9,3.7,10.3C3.7,3.7,9-1.6,15.6-1.6
		C22.2-1.6,27.5,3.7,27.5,10.3"/>
	<path class="st101" d="M27.5,10.3c0,6.6-5.3,11.9-11.9,11.9C9,22.2,3.7,16.9,3.7,10.3C3.7,3.7,9-1.6,15.6-1.6
		C22.2-1.6,27.5,3.7,27.5,10.3"/>
	<path class="st101" d="M27.4,10.3c0,6.6-5.3,11.9-11.9,11.9C9,22.1,3.7,16.8,3.7,10.3C3.7,3.7,9-1.6,15.6-1.6
		C22.1-1.6,27.4,3.7,27.4,10.3"/>
	<path class="st101" d="M27.4,10.2c0,6.5-5.3,11.8-11.8,11.8S3.7,16.8,3.7,10.2C3.7,3.7,9-1.6,15.6-1.6S27.4,3.7,27.4,10.2"/>
	<path class="st102" d="M27.4,10.2c0,6.5-5.3,11.8-11.8,11.8C9,22,3.7,16.7,3.7,10.2C3.7,3.7,9-1.6,15.5-1.6
		C22.1-1.6,27.4,3.7,27.4,10.2"/>
	<path class="st102" d="M27.3,10.2c0,6.5-5.3,11.8-11.8,11.8C9,22,3.7,16.7,3.7,10.2C3.7,3.7,9-1.6,15.5-1.6
		C22.1-1.6,27.3,3.7,27.3,10.2"/>
	<path class="st102" d="M27.3,10.2c0,6.5-5.3,11.8-11.8,11.8C9,21.9,3.8,16.7,3.8,10.2C3.8,3.7,9-1.6,15.5-1.6
		C22-1.6,27.3,3.7,27.3,10.2"/>
	<path class="st102" d="M27.3,10.2c0,6.5-5.3,11.7-11.7,11.7C9,21.9,3.8,16.6,3.8,10.2C3.8,3.7,9-1.6,15.5-1.6
		C22-1.6,27.3,3.7,27.3,10.2"/>
	<path class="st102" d="M27.2,10.1c0,6.5-5.2,11.7-11.7,11.7S3.8,16.6,3.8,10.1C3.8,3.7,9-1.6,15.5-1.6S27.2,3.7,27.2,10.1"/>
	<path class="st102" d="M27.2,10.1c0,6.5-5.2,11.7-11.7,11.7C9,21.8,3.8,16.6,3.8,10.1C3.8,3.6,9-1.6,15.5-1.6
		C22-1.6,27.2,3.6,27.2,10.1"/>
	<path class="st102" d="M27.2,10.1c0,6.4-5.2,11.7-11.7,11.7S3.8,16.5,3.8,10.1C3.8,3.6,9-1.6,15.5-1.6S27.2,3.6,27.2,10.1"/>
	<path class="st102" d="M27.1,10.1c0,6.4-5.2,11.6-11.6,11.6C9,21.7,3.8,16.5,3.8,10.1C3.8,3.6,9-1.6,15.5-1.6
		C21.9-1.6,27.1,3.6,27.1,10.1"/>
	<path class="st102" d="M27.1,10c0,6.4-5.2,11.6-11.6,11.6C9.1,21.6,3.9,16.4,3.9,10c0-6.4,5.2-11.6,11.6-11.6
		C21.9-1.6,27.1,3.6,27.1,10"/>
	<path class="st102" d="M27,10c0,6.4-5.2,11.6-11.6,11.6S3.9,16.4,3.9,10c0-6.4,5.2-11.6,11.6-11.6S27,3.6,27,10"/>
	<path class="st102" d="M27,10c0,6.4-5.2,11.6-11.6,11.6C9.1,21.5,3.9,16.4,3.9,10c0-6.4,5.2-11.6,11.6-11.6C21.8-1.6,27,3.6,27,10"
		/>
</g>
<path class="st0" d="M25.1,11.5c0,5.9-4.8,10.6-10.6,10.6c-5.9,0-10.6-4.8-10.6-10.6c0-5.9,4.8-10.6,10.6-10.6
	C20.4,0.9,25.1,5.7,25.1,11.5"/>
<polygon class="st1" points="19.8,18.5 14.9,14.6 12.9,8.8 17.9,12.5 "/>
<polygon class="st1" points="19.3,18.8 13.1,18.4 8.2,14.7 14.4,15 "/>
<polygon class="st1" points="20.2,18.1 18.4,12.1 20.1,6.2 22,12.1 "/>
<path class="st1" d="M43.1,33.3v-3.1h-1.7v0.4c0,0.3,0,0.6,0,0.8c0,0.3-0.1,0.5-0.1,0.8c-0.1,0.2-0.1,0.5-0.2,0.7
	c-0.1,0.2-0.1,0.4-0.2,0.5H43.1z M39.6,33.3h0.5c0.1-0.1,0.1-0.3,0.2-0.5c0.1-0.2,0.1-0.4,0.2-0.7c0.1-0.3,0.1-0.5,0.1-0.8
	c0-0.3,0.1-0.6,0.1-0.8v-0.9h3.2v3.7h0.6v2h-0.7v-1.3h-3.5v1.3h-0.7V33.3z"/>
<polygon class="st1" points="45.2,29.5 45.9,29.5 45.9,33.1 48,29.5 48.9,29.5 48.9,33.9 48.2,33.9 48.2,30.3 46.1,33.9 45.2,33.9 
	"/>
<path class="st1" d="M51.8,34c-0.3,0-0.6-0.1-0.9-0.2c-0.3-0.1-0.5-0.3-0.6-0.5c-0.2-0.2-0.3-0.4-0.4-0.7c-0.1-0.3-0.1-0.6-0.1-0.9
	c0-0.3,0-0.6,0.1-0.9c0.1-0.3,0.2-0.5,0.4-0.7c0.2-0.2,0.4-0.4,0.6-0.5c0.3-0.1,0.6-0.2,0.9-0.2c0.2,0,0.5,0,0.7,0.1
	c0.2,0.1,0.4,0.2,0.6,0.3c0.2,0.1,0.3,0.3,0.4,0.5c0.1,0.2,0.2,0.4,0.2,0.7H53c-0.1-0.3-0.2-0.5-0.4-0.6c-0.2-0.2-0.4-0.2-0.7-0.2
	c-0.3,0-0.5,0-0.7,0.1c-0.2,0.1-0.3,0.2-0.4,0.4c-0.1,0.2-0.2,0.3-0.2,0.5c0,0.2-0.1,0.4-0.1,0.6c0,0.2,0,0.4,0.1,0.6
	c0,0.2,0.1,0.4,0.2,0.5c0.1,0.1,0.2,0.3,0.4,0.4c0.2,0.1,0.4,0.1,0.6,0.1c0.4,0,0.6-0.1,0.8-0.3c0.2-0.2,0.3-0.4,0.4-0.8h0.7
	c-0.1,0.5-0.3,1-0.6,1.3C52.8,33.9,52.4,34,51.8,34"/>
<polygon class="st1" points="55.7,30.2 54.1,30.2 54.1,29.5 58,29.5 58,30.2 56.4,30.2 56.4,33.9 55.7,33.9 "/>
<path class="st1" d="M60.7,33.4c0.2,0,0.4,0,0.6-0.1c0.2-0.1,0.3-0.2,0.4-0.4c0.1-0.2,0.2-0.3,0.2-0.5c0-0.2,0.1-0.4,0.1-0.6
	c0-0.2,0-0.4-0.1-0.6c-0.1-0.2-0.1-0.4-0.2-0.5c-0.1-0.2-0.3-0.3-0.4-0.4c-0.2-0.1-0.4-0.1-0.6-0.1c-0.2,0-0.4,0-0.6,0.1
	c-0.2,0.1-0.3,0.2-0.4,0.4c-0.1,0.2-0.2,0.3-0.2,0.5c0,0.2-0.1,0.4-0.1,0.6c0,0.2,0,0.4,0.1,0.6c0.1,0.2,0.1,0.4,0.2,0.5
	c0.1,0.2,0.3,0.3,0.4,0.4C60.2,33.3,60.4,33.4,60.7,33.4 M58.6,29.5h0.7v0.6h0c0.1-0.2,0.3-0.4,0.6-0.5c0.3-0.1,0.5-0.2,0.8-0.2
	c0.3,0,0.6,0.1,0.9,0.2c0.3,0.1,0.5,0.3,0.6,0.5c0.2,0.2,0.3,0.5,0.4,0.7c0.1,0.3,0.1,0.6,0.1,0.9c0,0.3,0,0.6-0.1,0.9
	c-0.1,0.3-0.2,0.5-0.4,0.7c-0.2,0.2-0.4,0.4-0.6,0.5c-0.3,0.1-0.5,0.2-0.9,0.2c-0.1,0-0.2,0-0.4,0c-0.1,0-0.3-0.1-0.4-0.1
	s-0.3-0.1-0.4-0.2c-0.1-0.1-0.2-0.2-0.3-0.3h0v2.3h-0.7V29.5z"/>
<polygon class="st1" points="63.6,29.5 64.4,29.5 64.4,33.1 66.4,29.5 67.4,29.5 67.4,33.9 66.6,33.9 66.6,30.3 64.6,33.9 
	63.6,33.9 "/>
<path class="st1" d="M70.5,33.4c0.2,0,0.3,0,0.5-0.1c0.2-0.1,0.3-0.2,0.4-0.3c0.1-0.1,0.2-0.3,0.3-0.5c0.1-0.2,0.1-0.4,0.1-0.7
	c0-0.5-0.1-0.9-0.4-1.2c-0.2-0.3-0.6-0.4-1-0.4c-0.4,0-0.7,0.1-1,0.4c-0.2,0.3-0.4,0.7-0.4,1.2c0,0.5,0.1,0.9,0.4,1.2
	C69.7,33.3,70,33.4,70.5,33.4 M70.4,34c-0.6,0-1-0.1-1.4-0.4c-0.3-0.3-0.6-0.7-0.7-1.3c0-0.2-0.1-0.5-0.1-0.8c0-0.2,0-0.4,0-0.7
	c0-0.2,0-0.4,0.1-0.7c0-0.2,0.1-0.4,0.2-0.6c0.1-0.2,0.2-0.4,0.3-0.6c0.2-0.3,0.4-0.5,0.7-0.7c0.3-0.1,0.6-0.2,1-0.3
	c0.3,0,0.5,0,0.7-0.1c0.2,0,0.3-0.1,0.3-0.2h0.7c0,0.2-0.1,0.4-0.1,0.5c-0.1,0.1-0.2,0.2-0.4,0.3c-0.2,0.1-0.3,0.1-0.6,0.1
	c-0.2,0-0.5,0-0.8,0.1c-0.2,0-0.5,0.1-0.6,0.2c-0.2,0.1-0.3,0.2-0.5,0.4c-0.1,0.2-0.2,0.3-0.3,0.6C69,30,69,30.3,68.9,30.5h0
	c0.1-0.3,0.3-0.5,0.6-0.7c0.3-0.2,0.6-0.3,1-0.3c0.6,0,1.1,0.2,1.5,0.6c0.4,0.4,0.5,0.9,0.5,1.7c0,0.4-0.1,0.7-0.1,1
	c-0.1,0.3-0.2,0.5-0.4,0.7s-0.4,0.3-0.6,0.4C71,34,70.7,34,70.4,34"/>
<path class="st1" d="M75.5,33.3c0.6,0,0.9-0.2,0.9-0.7c0-0.5-0.3-0.7-0.9-0.7h-1.3v1.4H75.5z M73.4,29.5h0.7v1.7h1.6
	c0.4,0,0.8,0.1,1,0.4c0.3,0.2,0.4,0.6,0.4,1c0,0.4-0.1,0.7-0.4,1c-0.2,0.2-0.6,0.4-1,0.4h-2.3V29.5z"/>
<path class="st1" d="M81.6,33.4c0.2,0,0.3,0,0.5-0.1c0.2-0.1,0.3-0.2,0.4-0.3c0.1-0.1,0.2-0.3,0.3-0.5c0.1-0.2,0.1-0.4,0.1-0.7
	c0-0.3,0-0.5-0.1-0.7c-0.1-0.2-0.2-0.4-0.3-0.5c-0.1-0.1-0.2-0.2-0.4-0.3c-0.2-0.1-0.3-0.1-0.5-0.1c-0.2,0-0.3,0-0.5,0.1
	c-0.2,0.1-0.3,0.2-0.4,0.3c-0.1,0.1-0.2,0.3-0.3,0.5c-0.1,0.2-0.1,0.4-0.1,0.7c0,0.5,0.1,0.9,0.4,1.2C80.9,33.2,81.2,33.4,81.6,33.4
	 M81.6,34c-0.3,0-0.6-0.1-0.8-0.2c-0.2-0.1-0.5-0.2-0.6-0.4c-0.2-0.2-0.3-0.4-0.4-0.7c-0.1-0.3-0.2-0.5-0.2-0.8h-0.9v2H78v-4.4h0.7
	v1.8h0.9c0-0.3,0.1-0.5,0.2-0.8c0.1-0.2,0.2-0.4,0.4-0.6c0.2-0.2,0.4-0.3,0.6-0.4c0.2-0.1,0.5-0.1,0.8-0.1c0.3,0,0.6,0.1,0.9,0.2
	c0.3,0.1,0.5,0.3,0.6,0.5c0.2,0.2,0.3,0.4,0.4,0.7c0.1,0.3,0.1,0.6,0.1,0.9c0,0.3,0,0.6-0.1,0.9c-0.1,0.3-0.2,0.5-0.4,0.7
	c-0.2,0.2-0.4,0.4-0.6,0.5C82.2,33.9,82,34,81.6,34"/>
<polygon class="st1" points="88,33.9 84.6,33.9 84.6,29.5 85.3,29.5 85.3,33.3 87.3,33.3 87.3,29.5 88.1,29.5 88.1,33.3 88.7,33.3 
	88.7,35.2 88,35.2 "/>
<polygon class="st1" points="89.4,29.5 90.1,29.5 90.1,33.1 92.2,29.5 93.1,29.5 93.1,33.9 92.4,33.9 92.4,30.3 90.3,33.9 
	89.4,33.9 "/>
<path class="st1" d="M97,31.6v-1.4h-1.3c-0.3,0-0.5,0.1-0.7,0.2c-0.1,0.1-0.2,0.3-0.2,0.5c0,0.2,0.1,0.4,0.2,0.5
	c0.1,0.1,0.4,0.2,0.7,0.2H97z M95.1,32.2c-0.3,0-0.6-0.2-0.8-0.4c-0.2-0.2-0.3-0.5-0.3-0.9c0-0.4,0.1-0.7,0.4-1
	c0.2-0.2,0.6-0.4,1-0.4h2.2v4.4H97v-1.7h-1l-1.3,1.7h-1L95.1,32.2z"/>
<polygon class="st1" points="101.2,29.5 101.9,29.5 101.9,31.6 103.9,29.5 104.9,29.5 103.1,31.3 105.1,33.9 104.2,33.9 102.6,31.8 
	101.9,32.4 101.9,33.9 101.2,33.9 "/>
<path class="st1" d="M107.6,33.4c0.2,0,0.4,0,0.5-0.1c0.2-0.1,0.3-0.2,0.4-0.3c0.1-0.1,0.2-0.3,0.3-0.5c0.1-0.2,0.1-0.4,0.1-0.7
	c0-0.3,0-0.5-0.1-0.7c-0.1-0.2-0.2-0.4-0.3-0.5c-0.1-0.1-0.3-0.2-0.4-0.3c-0.2-0.1-0.3-0.1-0.5-0.1c-0.2,0-0.4,0-0.5,0.1
	c-0.2,0.1-0.3,0.2-0.4,0.3c-0.1,0.1-0.2,0.3-0.3,0.5c-0.1,0.2-0.1,0.4-0.1,0.7c0,0.3,0,0.5,0.1,0.7c0.1,0.2,0.2,0.4,0.3,0.5
	c0.1,0.1,0.3,0.2,0.4,0.3C107.2,33.3,107.4,33.4,107.6,33.4 M107.6,34c-0.4,0-0.7-0.1-0.9-0.2c-0.3-0.1-0.5-0.3-0.7-0.5
	c-0.2-0.2-0.3-0.4-0.4-0.7c-0.1-0.3-0.1-0.6-0.1-0.9c0-0.3,0-0.6,0.1-0.9c0.1-0.3,0.2-0.5,0.4-0.7c0.2-0.2,0.4-0.4,0.7-0.5
	c0.3-0.1,0.6-0.2,0.9-0.2c0.3,0,0.6,0.1,0.9,0.2c0.3,0.1,0.5,0.3,0.7,0.5c0.2,0.2,0.3,0.4,0.4,0.7c0.1,0.3,0.1,0.6,0.1,0.9
	c0,0.3,0,0.6-0.1,0.9c-0.1,0.3-0.2,0.5-0.4,0.7s-0.4,0.4-0.7,0.5C108.2,33.9,107.9,34,107.6,34"/>
<path class="st1" d="M112.4,34c-0.3,0-0.6-0.1-0.9-0.2c-0.3-0.1-0.5-0.3-0.6-0.5c-0.2-0.2-0.3-0.4-0.4-0.7c-0.1-0.3-0.1-0.6-0.1-0.9
	c0-0.3,0-0.6,0.1-0.9c0.1-0.3,0.2-0.5,0.4-0.7c0.2-0.2,0.4-0.4,0.6-0.5c0.3-0.1,0.6-0.2,0.9-0.2c0.2,0,0.5,0,0.7,0.1
	c0.2,0.1,0.4,0.2,0.6,0.3c0.2,0.1,0.3,0.3,0.4,0.5c0.1,0.2,0.2,0.4,0.2,0.7h-0.7c-0.1-0.3-0.2-0.5-0.4-0.6c-0.2-0.2-0.4-0.2-0.7-0.2
	c-0.3,0-0.5,0-0.7,0.1c-0.2,0.1-0.3,0.2-0.4,0.4c-0.1,0.2-0.2,0.3-0.2,0.5c0,0.2-0.1,0.4-0.1,0.6c0,0.2,0,0.4,0.1,0.6
	c0,0.2,0.1,0.4,0.2,0.5c0.1,0.1,0.2,0.3,0.4,0.4c0.2,0.1,0.4,0.1,0.6,0.1c0.4,0,0.6-0.1,0.8-0.3c0.2-0.2,0.3-0.4,0.4-0.8h0.7
	c-0.1,0.5-0.3,1-0.6,1.3C113.4,33.9,113,34,112.4,34"/>
<polygon class="st1" points="115.2,29.5 116.2,29.5 117.6,33.1 117.6,33.1 118.9,29.5 119.9,29.5 119.9,33.9 119.2,33.9 119.2,30.4 
	117.9,33.9 117.2,33.9 115.9,30.4 115.9,33.9 115.2,33.9 "/>
<path class="st1" d="M124.1,31.3c0-0.2,0-0.3-0.1-0.5c-0.1-0.2-0.2-0.3-0.3-0.4c-0.1-0.1-0.2-0.2-0.4-0.3s-0.3-0.1-0.5-0.1
	c-0.2,0-0.4,0-0.5,0.1c-0.1,0.1-0.3,0.2-0.4,0.3c-0.1,0.1-0.2,0.2-0.3,0.4c-0.1,0.1-0.1,0.3-0.1,0.5H124.1z M122.9,34
	c-0.4,0-0.7-0.1-0.9-0.2c-0.3-0.1-0.5-0.3-0.7-0.5c-0.2-0.2-0.3-0.4-0.4-0.7c-0.1-0.3-0.1-0.6-0.1-0.9c0-0.3,0.1-0.6,0.2-0.9
	c0.1-0.3,0.2-0.5,0.4-0.7c0.2-0.2,0.4-0.4,0.7-0.5s0.5-0.2,0.8-0.2c0.4,0,0.7,0.1,1,0.2c0.3,0.2,0.5,0.4,0.6,0.6
	c0.2,0.2,0.3,0.5,0.3,0.8s0.1,0.6,0.1,0.8h-3.3c0,0.2,0,0.4,0.1,0.5c0.1,0.2,0.1,0.3,0.2,0.5c0.1,0.1,0.3,0.2,0.4,0.3
	c0.2,0.1,0.4,0.1,0.6,0.1c0.3,0,0.6-0.1,0.8-0.2c0.2-0.1,0.3-0.4,0.4-0.6h0.7c-0.1,0.5-0.3,0.9-0.6,1.1
	C123.8,33.9,123.4,34,122.9,34"/>
<polygon class="st1" points="126.7,30.2 125.2,30.2 125.2,29.5 129,29.5 129,30.2 127.4,30.2 127.4,33.9 126.7,33.9 "/>
<polygon class="st1" points="129.6,29.5 130.4,29.5 130.4,33.1 132.4,29.5 133.3,29.5 133.3,33.9 132.6,33.9 132.6,30.3 130.6,33.9 
	129.6,33.9 "/>
<polygon class="st1" points="134.5,29.5 135.2,29.5 135.2,31.6 137.2,29.5 138.2,29.5 136.4,31.3 138.4,33.9 137.5,33.9 135.9,31.8 
	135.2,32.4 135.2,33.9 134.5,33.9 "/>
<polygon class="st1" points="139,29.5 139.7,29.5 139.7,33.1 141.8,29.5 142.7,29.5 142.7,33.9 142,33.9 142,30.3 139.9,33.9 
	139,33.9 "/>
</svg>
