<svg enable-background="new 0 0 143.2 34.2" viewBox="0 0 143.2 34.2" xmlns="http://www.w3.org/2000/svg" xmlns:xlink="http://www.w3.org/1999/xlink"><clipPath id="a"><path d="m0 17.1c0 9.4 7.6 17.1 17.1 17.1 9.4 0 17.1-7.6 17.1-17.1-.1-9.5-7.7-17.1-17.1-17.1-9.5 0-17.1 7.6-17.1 17.1"/></clipPath><clipPath id="b"><path d="m0 17.1c0 9.4 7.6 17.1 17.1 17.1 9.4 0 17.1-7.6 17.1-17.1-.1-9.5-7.7-17.1-17.1-17.1-9.5 0-17.1 7.6-17.1 17.1"/></clipPath><clipPath id="c"><path d="m0 17.1c0 9.4 7.6 17.1 17.1 17.1 9.4 0 17.1-7.6 17.1-17.1-.1-9.5-7.7-17.1-17.1-17.1-9.5 0-17.1 7.6-17.1 17.1"/></clipPath><clipPath id="d"><path d="m0 17.1c0 9.4 7.6 17.1 17.1 17.1 9.4 0 17.1-7.6 17.1-17.1-.1-9.5-7.7-17.1-17.1-17.1-9.5 0-17.1 7.6-17.1 17.1"/></clipPath><clipPath id="e"><path d="m0 17.1c0 9.4 7.6 17.1 17.1 17.1 9.4 0 17.1-7.6 17.1-17.1-.1-9.5-7.7-17.1-17.1-17.1-9.5 0-17.1 7.6-17.1 17.1"/></clipPath><clipPath id="f"><path d="m0 17.1c0 9.4 7.6 17.1 17.1 17.1 9.4 0 17.1-7.6 17.1-17.1-.1-9.5-7.7-17.1-17.1-17.1-9.5 0-17.1 7.6-17.1 17.1"/></clipPath><clipPath id="g"><path d="m0 17.1c0 9.4 7.6 17.1 17.1 17.1 9.4 0 17.1-7.6 17.1-17.1-.1-9.5-7.7-17.1-17.1-17.1-9.5 0-17.1 7.6-17.1 17.1"/></clipPath><clipPath id="h"><path d="m0 17.1c0 9.4 7.6 17.1 17.1 17.1 9.4 0 17.1-7.6 17.1-17.1-.1-9.5-7.7-17.1-17.1-17.1-9.5 0-17.1 7.6-17.1 17.1"/></clipPath><clipPath id="i"><path d="m0 17.1c0 9.4 7.6 17.1 17.1 17.1 9.4 0 17.1-7.6 17.1-17.1-.1-9.5-7.7-17.1-17.1-17.1-9.5 0-17.1 7.6-17.1 17.1"/></clipPath><clipPath id="j"><path d="m0 17.1c0 9.4 7.6 17.1 17.1 17.1 9.4 0 17.1-7.6 17.1-17.1-.1-9.5-7.7-17.1-17.1-17.1-9.5 0-17.1 7.6-17.1 17.1"/></clipPath><clipPath id="k"><path d="m0 17.1c0 9.4 7.6 17.1 17.1 17.1 9.4 0 17.1-7.6 17.1-17.1-.1-9.5-7.7-17.1-17.1-17.1-9.5 0-17.1 7.6-17.1 17.1"/></clipPath><clipPath id="l"><path d="m0 17.1c0 9.4 7.6 17.1 17.1 17.1 9.4 0 17.1-7.6 17.1-17.1-.1-9.5-7.7-17.1-17.1-17.1-9.5 0-17.1 7.6-17.1 17.1"/></clipPath><clipPath id="m"><path d="m0 17.1c0 9.4 7.6 17.1 17.1 17.1 9.4 0 17.1-7.6 17.1-17.1-.1-9.5-7.7-17.1-17.1-17.1-9.5 0-17.1 7.6-17.1 17.1"/></clipPath><clipPath id="n"><path d="m0 17.1c0 9.4 7.6 17.1 17.1 17.1 9.4 0 17.1-7.6 17.1-17.1-.1-9.5-7.7-17.1-17.1-17.1-9.5 0-17.1 7.6-17.1 17.1"/></clipPath><clipPath id="o"><path d="m0 17.1c0 9.4 7.6 17.1 17.1 17.1 9.4 0 17.1-7.6 17.1-17.1-.1-9.5-7.7-17.1-17.1-17.1-9.5 0-17.1 7.6-17.1 17.1"/></clipPath><clipPath id="p"><path d="m0 17.1c0 9.4 7.6 17.1 17.1 17.1 9.4 0 17.1-7.6 17.1-17.1-.1-9.5-7.7-17.1-17.1-17.1-9.5 0-17.1 7.6-17.1 17.1"/></clipPath><clipPath id="q"><path d="m0 17.1c0 9.4 7.6 17.1 17.1 17.1 9.4 0 17.1-7.6 17.1-17.1-.1-9.5-7.7-17.1-17.1-17.1-9.5 0-17.1 7.6-17.1 17.1"/></clipPath><clipPath id="r"><path d="m0 17.1c0 9.4 7.6 17.1 17.1 17.1 9.4 0 17.1-7.6 17.1-17.1-.1-9.5-7.7-17.1-17.1-17.1-9.5 0-17.1 7.6-17.1 17.1"/></clipPath><clipPath id="s"><path d="m0 17.1c0 9.4 7.6 17.1 17.1 17.1 9.4 0 17.1-7.6 17.1-17.1-.1-9.5-7.7-17.1-17.1-17.1-9.5 0-17.1 7.6-17.1 17.1"/></clipPath><clipPath id="t"><path d="m0 17.1c0 9.4 7.6 17.1 17.1 17.1 9.4 0 17.1-7.6 17.1-17.1-.1-9.5-7.7-17.1-17.1-17.1-9.5 0-17.1 7.6-17.1 17.1"/></clipPath><clipPath id="u"><path d="m0 17.1c0 9.4 7.6 17.1 17.1 17.1 9.4 0 17.1-7.6 17.1-17.1-.1-9.5-7.7-17.1-17.1-17.1-9.5 0-17.1 7.6-17.1 17.1"/></clipPath><clipPath id="v"><path d="m0 17.1c0 9.4 7.6 17.1 17.1 17.1 9.4 0 17.1-7.6 17.1-17.1-.1-9.5-7.7-17.1-17.1-17.1-9.5 0-17.1 7.6-17.1 17.1"/></clipPath><clipPath id="w"><path d="m0 17.1c0 9.4 7.6 17.1 17.1 17.1 9.4 0 17.1-7.6 17.1-17.1-.1-9.5-7.7-17.1-17.1-17.1-9.5 0-17.1 7.6-17.1 17.1"/></clipPath><clipPath id="x"><path d="m0 17.1c0 9.4 7.6 17.1 17.1 17.1 9.4 0 17.1-7.6 17.1-17.1-.1-9.5-7.7-17.1-17.1-17.1-9.5 0-17.1 7.6-17.1 17.1"/></clipPath><clipPath id="y"><path d="m0 17.1c0 9.4 7.6 17.1 17.1 17.1 9.4 0 17.1-7.6 17.1-17.1-.1-9.5-7.7-17.1-17.1-17.1-9.5 0-17.1 7.6-17.1 17.1"/></clipPath><clipPath id="z"><path d="m0 17.1c0 9.4 7.6 17.1 17.1 17.1 9.4 0 17.1-7.6 17.1-17.1-.1-9.5-7.7-17.1-17.1-17.1-9.5 0-17.1 7.6-17.1 17.1"/></clipPath><clipPath id="A"><path d="m0 17.1c0 9.4 7.6 17.1 17.1 17.1 9.4 0 17.1-7.6 17.1-17.1-.1-9.5-7.7-17.1-17.1-17.1-9.5 0-17.1 7.6-17.1 17.1"/></clipPath><clipPath id="B"><path d="m0 17.1c0 9.4 7.6 17.1 17.1 17.1 9.4 0 17.1-7.6 17.1-17.1-.1-9.5-7.7-17.1-17.1-17.1-9.5 0-17.1 7.6-17.1 17.1"/></clipPath><clipPath id="C"><path d="m0 17.1c0 9.4 7.6 17.1 17.1 17.1 9.4 0 17.1-7.6 17.1-17.1-.1-9.5-7.7-17.1-17.1-17.1-9.5 0-17.1 7.6-17.1 17.1"/></clipPath><clipPath id="D"><path d="m0 17.1c0 9.4 7.6 17.1 17.1 17.1 9.4 0 17.1-7.6 17.1-17.1-.1-9.5-7.7-17.1-17.1-17.1-9.5 0-17.1 7.6-17.1 17.1"/></clipPath><clipPath id="E"><path d="m0 17.1c0 9.4 7.6 17.1 17.1 17.1 9.4 0 17.1-7.6 17.1-17.1-.1-9.5-7.7-17.1-17.1-17.1-9.5 0-17.1 7.6-17.1 17.1"/></clipPath><clipPath id="F"><path d="m0 17.1c0 9.4 7.6 17.1 17.1 17.1 9.4 0 17.1-7.6 17.1-17.1-.1-9.5-7.7-17.1-17.1-17.1-9.5 0-17.1 7.6-17.1 17.1"/></clipPath><clipPath id="G"><path d="m0 17.1c0 9.4 7.6 17.1 17.1 17.1 9.4 0 17.1-7.6 17.1-17.1-.1-9.5-7.7-17.1-17.1-17.1-9.5 0-17.1 7.6-17.1 17.1"/></clipPath><clipPath id="H"><path d="m0 17.1c0 9.4 7.6 17.1 17.1 17.1 9.4 0 17.1-7.6 17.1-17.1-.1-9.5-7.7-17.1-17.1-17.1-9.5 0-17.1 7.6-17.1 17.1"/></clipPath><clipPath id="I"><path d="m0 17.1c0 9.4 7.6 17.1 17.1 17.1 9.4 0 17.1-7.6 17.1-17.1-.1-9.5-7.7-17.1-17.1-17.1-9.5 0-17.1 7.6-17.1 17.1"/></clipPath><clipPath id="J"><path d="m0 17.1c0 9.4 7.6 17.1 17.1 17.1 9.4 0 17.1-7.6 17.1-17.1-.1-9.5-7.7-17.1-17.1-17.1-9.5 0-17.1 7.6-17.1 17.1"/></clipPath><clipPath id="K"><path d="m0 17.1c0 9.4 7.6 17.1 17.1 17.1 9.4 0 17.1-7.6 17.1-17.1-.1-9.5-7.7-17.1-17.1-17.1-9.5 0-17.1 7.6-17.1 17.1"/></clipPath><clipPath id="L"><path d="m0 17.1c0 9.4 7.6 17.1 17.1 17.1 9.4 0 17.1-7.6 17.1-17.1-.1-9.5-7.7-17.1-17.1-17.1-9.5 0-17.1 7.6-17.1 17.1"/></clipPath><clipPath id="M"><path d="m0 17.1c0 9.4 7.6 17.1 17.1 17.1 9.4 0 17.1-7.6 17.1-17.1-.1-9.5-7.7-17.1-17.1-17.1-9.5 0-17.1 7.6-17.1 17.1"/></clipPath><clipPath id="N"><path d="m0 17.1c0 9.4 7.6 17.1 17.1 17.1 9.4 0 17.1-7.6 17.1-17.1-.1-9.5-7.7-17.1-17.1-17.1-9.5 0-17.1 7.6-17.1 17.1"/></clipPath><clipPath id="O"><path d="m0 17.1c0 9.4 7.6 17.1 17.1 17.1 9.4 0 17.1-7.6 17.1-17.1-.1-9.5-7.7-17.1-17.1-17.1-9.5 0-17.1 7.6-17.1 17.1"/></clipPath><clipPath id="P"><path d="m0 17.1c0 9.4 7.6 17.1 17.1 17.1 9.4 0 17.1-7.6 17.1-17.1-.1-9.5-7.7-17.1-17.1-17.1-9.5 0-17.1 7.6-17.1 17.1"/></clipPath><clipPath id="Q"><path d="m0 17.1c0 9.4 7.6 17.1 17.1 17.1 9.4 0 17.1-7.6 17.1-17.1-.1-9.5-7.7-17.1-17.1-17.1-9.5 0-17.1 7.6-17.1 17.1"/></clipPath><clipPath id="R"><path d="m0 17.1c0 9.4 7.6 17.1 17.1 17.1 9.4 0 17.1-7.6 17.1-17.1-.1-9.5-7.7-17.1-17.1-17.1-9.5 0-17.1 7.6-17.1 17.1"/></clipPath><clipPath id="S"><path d="m0 17.1c0 9.4 7.6 17.1 17.1 17.1 9.4 0 17.1-7.6 17.1-17.1-.1-9.5-7.7-17.1-17.1-17.1-9.5 0-17.1 7.6-17.1 17.1"/></clipPath><clipPath id="T"><path d="m0 17.1c0 9.4 7.6 17.1 17.1 17.1 9.4 0 17.1-7.6 17.1-17.1-.1-9.5-7.7-17.1-17.1-17.1-9.5 0-17.1 7.6-17.1 17.1"/></clipPath><clipPath id="U"><path d="m0 17.1c0 9.4 7.6 17.1 17.1 17.1 9.4 0 17.1-7.6 17.1-17.1-.1-9.5-7.7-17.1-17.1-17.1-9.5 0-17.1 7.6-17.1 17.1"/></clipPath><clipPath id="V"><path d="m0 17.1c0 9.4 7.6 17.1 17.1 17.1 9.4 0 17.1-7.6 17.1-17.1-.1-9.5-7.7-17.1-17.1-17.1-9.5 0-17.1 7.6-17.1 17.1"/></clipPath><clipPath id="W"><path d="m0 17.1c0 9.4 7.6 17.1 17.1 17.1 9.4 0 17.1-7.6 17.1-17.1-.1-9.5-7.7-17.1-17.1-17.1-9.5 0-17.1 7.6-17.1 17.1"/></clipPath><clipPath id="X"><path d="m0 17.1c0 9.4 7.6 17.1 17.1 17.1 9.4 0 17.1-7.6 17.1-17.1-.1-9.5-7.7-17.1-17.1-17.1-9.5 0-17.1 7.6-17.1 17.1"/></clipPath><clipPath id="Y"><path d="m0 17.1c0 9.4 7.6 17.1 17.1 17.1 9.4 0 17.1-7.6 17.1-17.1-.1-9.5-7.7-17.1-17.1-17.1-9.5 0-17.1 7.6-17.1 17.1"/></clipPath><clipPath id="Z"><path d="m0 17.1c0 9.4 7.6 17.1 17.1 17.1 9.4 0 17.1-7.6 17.1-17.1-.1-9.5-7.7-17.1-17.1-17.1-9.5 0-17.1 7.6-17.1 17.1"/></clipPath><clipPath id="aa"><path d="m0 17.1c0 9.4 7.6 17.1 17.1 17.1 9.4 0 17.1-7.6 17.1-17.1-.1-9.5-7.7-17.1-17.1-17.1-9.5 0-17.1 7.6-17.1 17.1"/></clipPath><clipPath id="ab"><path d="m0 17.1c0 9.4 7.6 17.1 17.1 17.1 9.4 0 17.1-7.6 17.1-17.1-.1-9.5-7.7-17.1-17.1-17.1-9.5 0-17.1 7.6-17.1 17.1"/></clipPath><clipPath id="ac"><path d="m0 17.1c0 9.4 7.6 17.1 17.1 17.1 9.4 0 17.1-7.6 17.1-17.1-.1-9.5-7.7-17.1-17.1-17.1-9.5 0-17.1 7.6-17.1 17.1"/></clipPath><clipPath id="ad"><path d="m0 17.1c0 9.4 7.6 17.1 17.1 17.1 9.4 0 17.1-7.6 17.1-17.1-.1-9.5-7.7-17.1-17.1-17.1-9.5 0-17.1 7.6-17.1 17.1"/></clipPath><clipPath id="ae"><path d="m0 17.1c0 9.4 7.6 17.1 17.1 17.1 9.4 0 17.1-7.6 17.1-17.1-.1-9.5-7.7-17.1-17.1-17.1-9.5 0-17.1 7.6-17.1 17.1"/></clipPath><clipPath id="af"><path d="m0 17.1c0 9.4 7.6 17.1 17.1 17.1 9.4 0 17.1-7.6 17.1-17.1-.1-9.5-7.7-17.1-17.1-17.1-9.5 0-17.1 7.6-17.1 17.1"/></clipPath><clipPath id="ag"><path d="m0 17.1c0 9.4 7.6 17.1 17.1 17.1 9.4 0 17.1-7.6 17.1-17.1-.1-9.5-7.7-17.1-17.1-17.1-9.5 0-17.1 7.6-17.1 17.1"/></clipPath><clipPath id="ah"><path d="m0 17.1c0 9.4 7.6 17.1 17.1 17.1 9.4 0 17.1-7.6 17.1-17.1-.1-9.5-7.7-17.1-17.1-17.1-9.5 0-17.1 7.6-17.1 17.1"/></clipPath><clipPath id="ai"><path d="m0 17.1c0 9.4 7.6 17.1 17.1 17.1 9.4 0 17.1-7.6 17.1-17.1-.1-9.5-7.7-17.1-17.1-17.1-9.5 0-17.1 7.6-17.1 17.1"/></clipPath><clipPath id="aj"><path d="m0 17.1c0 9.4 7.6 17.1 17.1 17.1 9.4 0 17.1-7.6 17.1-17.1-.1-9.5-7.7-17.1-17.1-17.1-9.5 0-17.1 7.6-17.1 17.1"/></clipPath><clipPath id="ak"><path d="m0 17.1c0 9.4 7.6 17.1 17.1 17.1 9.4 0 17.1-7.6 17.1-17.1-.1-9.5-7.7-17.1-17.1-17.1-9.5 0-17.1 7.6-17.1 17.1"/></clipPath><clipPath id="al"><path d="m0 17.1c0 9.4 7.6 17.1 17.1 17.1 9.4 0 17.1-7.6 17.1-17.1-.1-9.5-7.7-17.1-17.1-17.1-9.5 0-17.1 7.6-17.1 17.1"/></clipPath><clipPath id="am"><path d="m0 17.1c0 9.4 7.6 17.1 17.1 17.1 9.4 0 17.1-7.6 17.1-17.1-.1-9.5-7.7-17.1-17.1-17.1-9.5 0-17.1 7.6-17.1 17.1"/></clipPath><clipPath id="an"><path d="m0 17.1c0 9.4 7.6 17.1 17.1 17.1 9.4 0 17.1-7.6 17.1-17.1-.1-9.5-7.7-17.1-17.1-17.1-9.5 0-17.1 7.6-17.1 17.1"/></clipPath><clipPath id="ao"><path d="m0 17.1c0 9.4 7.6 17.1 17.1 17.1 9.4 0 17.1-7.6 17.1-17.1-.1-9.5-7.7-17.1-17.1-17.1-9.5 0-17.1 7.6-17.1 17.1"/></clipPath><clipPath id="ap"><path d="m0 17.1c0 9.4 7.6 17.1 17.1 17.1 9.4 0 17.1-7.6 17.1-17.1-.1-9.5-7.7-17.1-17.1-17.1-9.5 0-17.1 7.6-17.1 17.1"/></clipPath><clipPath id="aq"><path d="m0 17.1c0 9.4 7.6 17.1 17.1 17.1 9.4 0 17.1-7.6 17.1-17.1-.1-9.5-7.7-17.1-17.1-17.1-9.5 0-17.1 7.6-17.1 17.1"/></clipPath><clipPath id="ar"><path d="m0 17.1c0 9.4 7.6 17.1 17.1 17.1 9.4 0 17.1-7.6 17.1-17.1-.1-9.5-7.7-17.1-17.1-17.1-9.5 0-17.1 7.6-17.1 17.1"/></clipPath><clipPath id="as"><path d="m0 17.1c0 9.4 7.6 17.1 17.1 17.1 9.4 0 17.1-7.6 17.1-17.1-.1-9.5-7.7-17.1-17.1-17.1-9.5 0-17.1 7.6-17.1 17.1"/></clipPath><clipPath id="at"><path d="m0 17.1c0 9.4 7.6 17.1 17.1 17.1 9.4 0 17.1-7.6 17.1-17.1-.1-9.5-7.7-17.1-17.1-17.1-9.5 0-17.1 7.6-17.1 17.1"/></clipPath><clipPath id="au"><path d="m0 17.1c0 9.4 7.6 17.1 17.1 17.1 9.4 0 17.1-7.6 17.1-17.1-.1-9.5-7.7-17.1-17.1-17.1-9.5 0-17.1 7.6-17.1 17.1"/></clipPath><clipPath id="av"><path d="m0 17.1c0 9.4 7.6 17.1 17.1 17.1 9.4 0 17.1-7.6 17.1-17.1-.1-9.5-7.7-17.1-17.1-17.1-9.5 0-17.1 7.6-17.1 17.1"/></clipPath><clipPath id="aw"><path d="m0 17.1c0 9.4 7.6 17.1 17.1 17.1 9.4 0 17.1-7.6 17.1-17.1-.1-9.5-7.7-17.1-17.1-17.1-9.5 0-17.1 7.6-17.1 17.1"/></clipPath><clipPath id="ax"><path d="m0 17.1c0 9.4 7.6 17.1 17.1 17.1 9.4 0 17.1-7.6 17.1-17.1-.1-9.5-7.7-17.1-17.1-17.1-9.5 0-17.1 7.6-17.1 17.1"/></clipPath><clipPath id="ay"><path d="m0 17.1c0 9.4 7.6 17.1 17.1 17.1 9.4 0 17.1-7.6 17.1-17.1-.1-9.5-7.7-17.1-17.1-17.1-9.5 0-17.1 7.6-17.1 17.1"/></clipPath><clipPath id="az"><path d="m0 17.1c0 9.4 7.6 17.1 17.1 17.1 9.4 0 17.1-7.6 17.1-17.1-.1-9.5-7.7-17.1-17.1-17.1-9.5 0-17.1 7.6-17.1 17.1"/></clipPath><clipPath id="aA"><path d="m0 17.1c0 9.4 7.6 17.1 17.1 17.1 9.4 0 17.1-7.6 17.1-17.1-.1-9.5-7.7-17.1-17.1-17.1-9.5 0-17.1 7.6-17.1 17.1"/></clipPath><clipPath id="aB"><path d="m0 17.1c0 9.4 7.6 17.1 17.1 17.1 9.4 0 17.1-7.6 17.1-17.1-.1-9.5-7.7-17.1-17.1-17.1-9.5 0-17.1 7.6-17.1 17.1"/></clipPath><clipPath id="aC"><path d="m0 17.1c0 9.4 7.6 17.1 17.1 17.1 9.4 0 17.1-7.6 17.1-17.1-.1-9.5-7.7-17.1-17.1-17.1-9.5 0-17.1 7.6-17.1 17.1"/></clipPath><clipPath id="aD"><path d="m0 17.1c0 9.4 7.6 17.1 17.1 17.1 9.4 0 17.1-7.6 17.1-17.1-.1-9.5-7.7-17.1-17.1-17.1-9.5 0-17.1 7.6-17.1 17.1"/></clipPath><clipPath id="aE"><path d="m0 17.1c0 9.4 7.6 17.1 17.1 17.1 9.4 0 17.1-7.6 17.1-17.1-.1-9.5-7.7-17.1-17.1-17.1-9.5 0-17.1 7.6-17.1 17.1"/></clipPath><clipPath id="aF"><path d="m0 17.1c0 9.4 7.6 17.1 17.1 17.1 9.4 0 17.1-7.6 17.1-17.1-.1-9.5-7.7-17.1-17.1-17.1-9.5 0-17.1 7.6-17.1 17.1"/></clipPath><clipPath id="aG"><path d="m0 17.1c0 9.4 7.6 17.1 17.1 17.1 9.4 0 17.1-7.6 17.1-17.1-.1-9.5-7.7-17.1-17.1-17.1-9.5 0-17.1 7.6-17.1 17.1"/></clipPath><clipPath id="aH"><path d="m0 17.1c0 9.4 7.6 17.1 17.1 17.1 9.4 0 17.1-7.6 17.1-17.1-.1-9.5-7.7-17.1-17.1-17.1-9.5 0-17.1 7.6-17.1 17.1"/></clipPath><clipPath id="aI"><path d="m0 17.1c0 9.4 7.6 17.1 17.1 17.1 9.4 0 17.1-7.6 17.1-17.1-.1-9.5-7.7-17.1-17.1-17.1-9.5 0-17.1 7.6-17.1 17.1"/></clipPath><clipPath id="aJ"><path d="m0 17.1c0 9.4 7.6 17.1 17.1 17.1 9.4 0 17.1-7.6 17.1-17.1-.1-9.5-7.7-17.1-17.1-17.1-9.5 0-17.1 7.6-17.1 17.1"/></clipPath><clipPath id="aK"><path d="m0 17.1c0 9.4 7.6 17.1 17.1 17.1 9.4 0 17.1-7.6 17.1-17.1-.1-9.5-7.7-17.1-17.1-17.1-9.5 0-17.1 7.6-17.1 17.1"/></clipPath><clipPath id="aL"><path d="m0 17.1c0 9.4 7.6 17.1 17.1 17.1 9.4 0 17.1-7.6 17.1-17.1-.1-9.5-7.7-17.1-17.1-17.1-9.5 0-17.1 7.6-17.1 17.1"/></clipPath><clipPath id="aM"><path d="m0 17.1c0 9.4 7.6 17.1 17.1 17.1 9.4 0 17.1-7.6 17.1-17.1-.1-9.5-7.7-17.1-17.1-17.1-9.5 0-17.1 7.6-17.1 17.1"/></clipPath><clipPath id="aN"><path d="m0 17.1c0 9.4 7.6 17.1 17.1 17.1 9.4 0 17.1-7.6 17.1-17.1-.1-9.5-7.7-17.1-17.1-17.1-9.5 0-17.1 7.6-17.1 17.1"/></clipPath><clipPath id="aO"><path d="m0 17.1c0 9.4 7.6 17.1 17.1 17.1 9.4 0 17.1-7.6 17.1-17.1-.1-9.5-7.7-17.1-17.1-17.1-9.5 0-17.1 7.6-17.1 17.1"/></clipPath><clipPath id="aP"><path d="m0 17.1c0 9.4 7.6 17.1 17.1 17.1 9.4 0 17.1-7.6 17.1-17.1-.1-9.5-7.7-17.1-17.1-17.1-9.5 0-17.1 7.6-17.1 17.1"/></clipPath><clipPath id="aQ"><path d="m0 17.1c0 9.4 7.6 17.1 17.1 17.1 9.4 0 17.1-7.6 17.1-17.1-.1-9.5-7.7-17.1-17.1-17.1-9.5 0-17.1 7.6-17.1 17.1"/></clipPath><clipPath id="aR"><path d="m0 17.1c0 9.4 7.6 17.1 17.1 17.1 9.4 0 17.1-7.6 17.1-17.1-.1-9.5-7.7-17.1-17.1-17.1-9.5 0-17.1 7.6-17.1 17.1"/></clipPath><clipPath id="aS"><path d="m0 17.1c0 9.4 7.6 17.1 17.1 17.1 9.4 0 17.1-7.6 17.1-17.1-.1-9.5-7.7-17.1-17.1-17.1-9.5 0-17.1 7.6-17.1 17.1"/></clipPath><clipPath id="aT"><path d="m0 17.1c0 9.4 7.6 17.1 17.1 17.1 9.4 0 17.1-7.6 17.1-17.1-.1-9.5-7.7-17.1-17.1-17.1-9.5 0-17.1 7.6-17.1 17.1"/></clipPath><clipPath id="aU"><path d="m0 17.1c0 9.4 7.6 17.1 17.1 17.1 9.4 0 17.1-7.6 17.1-17.1-.1-9.5-7.7-17.1-17.1-17.1-9.5 0-17.1 7.6-17.1 17.1"/></clipPath><clipPath id="aV"><path d="m0 17.1c0 9.4 7.6 17.1 17.1 17.1 9.4 0 17.1-7.6 17.1-17.1-.1-9.5-7.7-17.1-17.1-17.1-9.5 0-17.1 7.6-17.1 17.1"/></clipPath><clipPath id="aW"><path d="m0 17.1c0 9.4 7.6 17.1 17.1 17.1 9.4 0 17.1-7.6 17.1-17.1-.1-9.5-7.7-17.1-17.1-17.1-9.5 0-17.1 7.6-17.1 17.1"/></clipPath><clipPath id="aX"><path d="m0 17.1c0 9.4 7.6 17.1 17.1 17.1 9.4 0 17.1-7.6 17.1-17.1-.1-9.5-7.7-17.1-17.1-17.1-9.5 0-17.1 7.6-17.1 17.1"/></clipPath><clipPath id="aY"><path d="m0 17.1c0 9.4 7.6 17.1 17.1 17.1 9.4 0 17.1-7.6 17.1-17.1-.1-9.5-7.7-17.1-17.1-17.1-9.5 0-17.1 7.6-17.1 17.1"/></clipPath><clipPath id="aZ"><path d="m0 17.1c0 9.4 7.6 17.1 17.1 17.1 9.4 0 17.1-7.6 17.1-17.1-.1-9.5-7.7-17.1-17.1-17.1-9.5 0-17.1 7.6-17.1 17.1"/></clipPath><clipPath id="a0"><path d="m0 17.1c0 9.4 7.6 17.1 17.1 17.1 9.4 0 17.1-7.6 17.1-17.1-.1-9.5-7.7-17.1-17.1-17.1-9.5 0-17.1 7.6-17.1 17.1"/></clipPath><clipPath id="a1"><path d="m0 17.1c0 9.4 7.6 17.1 17.1 17.1 9.4 0 17.1-7.6 17.1-17.1-.1-9.5-7.7-17.1-17.1-17.1-9.5 0-17.1 7.6-17.1 17.1"/></clipPath><clipPath id="a2"><path d="m0 17.1c0 9.4 7.6 17.1 17.1 17.1 9.4 0 17.1-7.6 17.1-17.1-.1-9.5-7.7-17.1-17.1-17.1-9.5 0-17.1 7.6-17.1 17.1"/></clipPath><clipPath id="a3"><path d="m0 17.1c0 9.4 7.6 17.1 17.1 17.1 9.4 0 17.1-7.6 17.1-17.1-.1-9.5-7.7-17.1-17.1-17.1-9.5 0-17.1 7.6-17.1 17.1"/></clipPath><clipPath id="a4"><path d="m0 17.1c0 9.4 7.6 17.1 17.1 17.1 9.4 0 17.1-7.6 17.1-17.1-.1-9.5-7.7-17.1-17.1-17.1-9.5 0-17.1 7.6-17.1 17.1"/></clipPath><clipPath id="a5"><path d="m0 17.1c0 9.4 7.6 17.1 17.1 17.1 9.4 0 17.1-7.6 17.1-17.1-.1-9.5-7.7-17.1-17.1-17.1-9.5 0-17.1 7.6-17.1 17.1"/></clipPath><clipPath id="a6"><path d="m0 17.1c0 9.4 7.6 17.1 17.1 17.1 9.4 0 17.1-7.6 17.1-17.1-.1-9.5-7.7-17.1-17.1-17.1-9.5 0-17.1 7.6-17.1 17.1"/></clipPath><clipPath id="a7"><path d="m0 17.1c0 9.4 7.6 17.1 17.1 17.1 9.4 0 17.1-7.6 17.1-17.1-.1-9.5-7.7-17.1-17.1-17.1-9.5 0-17.1 7.6-17.1 17.1"/></clipPath><clipPath id="a8"><path d="m0 17.1c0 9.4 7.6 17.1 17.1 17.1 9.4 0 17.1-7.6 17.1-17.1-.1-9.5-7.7-17.1-17.1-17.1-9.5 0-17.1 7.6-17.1 17.1"/></clipPath><clipPath id="a9"><path d="m0 17.1c0 9.4 7.6 17.1 17.1 17.1 9.4 0 17.1-7.6 17.1-17.1-.1-9.5-7.7-17.1-17.1-17.1-9.5 0-17.1 7.6-17.1 17.1"/></clipPath><clipPath id="ba"><path d="m0 17.1c0 9.4 7.6 17.1 17.1 17.1 9.4 0 17.1-7.6 17.1-17.1-.1-9.5-7.7-17.1-17.1-17.1-9.5 0-17.1 7.6-17.1 17.1"/></clipPath><clipPath id="bb"><path d="m0 17.1c0 9.4 7.6 17.1 17.1 17.1 9.4 0 17.1-7.6 17.1-17.1-.1-9.5-7.7-17.1-17.1-17.1-9.5 0-17.1 7.6-17.1 17.1"/></clipPath><clipPath id="bc"><path d="m0 17.1c0 9.4 7.6 17.1 17.1 17.1 9.4 0 17.1-7.6 17.1-17.1-.1-9.5-7.7-17.1-17.1-17.1-9.5 0-17.1 7.6-17.1 17.1"/></clipPath><clipPath id="bd"><path d="m0 17.1c0 9.4 7.6 17.1 17.1 17.1 9.4 0 17.1-7.6 17.1-17.1-.1-9.5-7.7-17.1-17.1-17.1-9.5 0-17.1 7.6-17.1 17.1"/></clipPath><clipPath id="be"><path d="m0 17.1c0 9.4 7.6 17.1 17.1 17.1 9.4 0 17.1-7.6 17.1-17.1-.1-9.5-7.7-17.1-17.1-17.1-9.5 0-17.1 7.6-17.1 17.1"/></clipPath><clipPath id="bf"><path d="m0 17.1c0 9.4 7.6 17.1 17.1 17.1 9.4 0 17.1-7.6 17.1-17.1-.1-9.5-7.7-17.1-17.1-17.1-9.5 0-17.1 7.6-17.1 17.1"/></clipPath><clipPath id="bg"><path d="m0 17.1c0 9.4 7.6 17.1 17.1 17.1 9.4 0 17.1-7.6 17.1-17.1-.1-9.5-7.7-17.1-17.1-17.1-9.5 0-17.1 7.6-17.1 17.1"/></clipPath><clipPath id="bh"><path d="m0 17.1c0 9.4 7.6 17.1 17.1 17.1 9.4 0 17.1-7.6 17.1-17.1-.1-9.5-7.7-17.1-17.1-17.1-9.5 0-17.1 7.6-17.1 17.1"/></clipPath><clipPath id="bi"><path d="m0 17.1c0 9.4 7.6 17.1 17.1 17.1 9.4 0 17.1-7.6 17.1-17.1-.1-9.5-7.7-17.1-17.1-17.1-9.5 0-17.1 7.6-17.1 17.1"/></clipPath><clipPath id="bj"><path d="m0 17.1c0 9.4 7.6 17.1 17.1 17.1 9.4 0 17.1-7.6 17.1-17.1-.1-9.5-7.7-17.1-17.1-17.1-9.5 0-17.1 7.6-17.1 17.1"/></clipPath><clipPath id="bk"><path d="m0 17.1c0 9.4 7.6 17.1 17.1 17.1 9.4 0 17.1-7.6 17.1-17.1-.1-9.5-7.7-17.1-17.1-17.1-9.5 0-17.1 7.6-17.1 17.1"/></clipPath><clipPath id="bl"><path d="m0 17.1c0 9.4 7.6 17.1 17.1 17.1 9.4 0 17.1-7.6 17.1-17.1-.1-9.5-7.7-17.1-17.1-17.1-9.5 0-17.1 7.6-17.1 17.1"/></clipPath><clipPath id="bm"><path d="m0 17.1c0 9.4 7.6 17.1 17.1 17.1 9.4 0 17.1-7.6 17.1-17.1-.1-9.5-7.7-17.1-17.1-17.1-9.5 0-17.1 7.6-17.1 17.1"/></clipPath><clipPath id="bn"><path d="m0 17.1c0 9.4 7.6 17.1 17.1 17.1 9.4 0 17.1-7.6 17.1-17.1-.1-9.5-7.7-17.1-17.1-17.1-9.5 0-17.1 7.6-17.1 17.1"/></clipPath><clipPath id="bo"><path d="m0 17.1c0 9.4 7.6 17.1 17.1 17.1 9.4 0 17.1-7.6 17.1-17.1-.1-9.5-7.7-17.1-17.1-17.1-9.5 0-17.1 7.6-17.1 17.1"/></clipPath><clipPath id="bp"><path d="m0 17.1c0 9.4 7.6 17.1 17.1 17.1 9.4 0 17.1-7.6 17.1-17.1-.1-9.5-7.7-17.1-17.1-17.1-9.5 0-17.1 7.6-17.1 17.1"/></clipPath><clipPath id="bq"><path d="m0 17.1c0 9.4 7.6 17.1 17.1 17.1 9.4 0 17.1-7.6 17.1-17.1-.1-9.5-7.7-17.1-17.1-17.1-9.5 0-17.1 7.6-17.1 17.1"/></clipPath><clipPath id="br"><path d="m0 17.1c0 9.4 7.6 17.1 17.1 17.1 9.4 0 17.1-7.6 17.1-17.1-.1-9.5-7.7-17.1-17.1-17.1-9.5 0-17.1 7.6-17.1 17.1"/></clipPath><clipPath id="bs"><path d="m0 17.1c0 9.4 7.6 17.1 17.1 17.1 9.4 0 17.1-7.6 17.1-17.1-.1-9.5-7.7-17.1-17.1-17.1-9.5 0-17.1 7.6-17.1 17.1"/></clipPath><clipPath id="bt"><path d="m0 17.1c0 9.4 7.6 17.1 17.1 17.1 9.4 0 17.1-7.6 17.1-17.1-.1-9.5-7.7-17.1-17.1-17.1-9.5 0-17.1 7.6-17.1 17.1"/></clipPath><clipPath id="bu"><path d="m0 17.1c0 9.4 7.6 17.1 17.1 17.1 9.4 0 17.1-7.6 17.1-17.1-.1-9.5-7.7-17.1-17.1-17.1-9.5 0-17.1 7.6-17.1 17.1"/></clipPath><clipPath id="bv"><path d="m0 17.1c0 9.4 7.6 17.1 17.1 17.1 9.4 0 17.1-7.6 17.1-17.1-.1-9.5-7.7-17.1-17.1-17.1-9.5 0-17.1 7.6-17.1 17.1"/></clipPath><clipPath id="bw"><path d="m0 17.1c0 9.4 7.6 17.1 17.1 17.1 9.4 0 17.1-7.6 17.1-17.1-.1-9.5-7.7-17.1-17.1-17.1-9.5 0-17.1 7.6-17.1 17.1"/></clipPath><clipPath id="bx"><path d="m0 17.1c0 9.4 7.6 17.1 17.1 17.1 9.4 0 17.1-7.6 17.1-17.1-.1-9.5-7.7-17.1-17.1-17.1-9.5 0-17.1 7.6-17.1 17.1"/></clipPath><clipPath id="by"><path d="m0 17.1c0 9.4 7.6 17.1 17.1 17.1 9.4 0 17.1-7.6 17.1-17.1-.1-9.5-7.7-17.1-17.1-17.1-9.5 0-17.1 7.6-17.1 17.1"/></clipPath><clipPath id="bz"><path d="m0 17.1c0 9.4 7.6 17.1 17.1 17.1 9.4 0 17.1-7.6 17.1-17.1-.1-9.5-7.7-17.1-17.1-17.1-9.5 0-17.1 7.6-17.1 17.1"/></clipPath><clipPath id="bA"><path d="m0 17.1c0 9.4 7.6 17.1 17.1 17.1 9.4 0 17.1-7.6 17.1-17.1-.1-9.5-7.7-17.1-17.1-17.1-9.5 0-17.1 7.6-17.1 17.1"/></clipPath><clipPath id="bB"><path d="m0 17.1c0 9.4 7.6 17.1 17.1 17.1 9.4 0 17.1-7.6 17.1-17.1-.1-9.5-7.7-17.1-17.1-17.1-9.5 0-17.1 7.6-17.1 17.1"/></clipPath><clipPath id="bC"><path d="m0 17.1c0 9.4 7.6 17.1 17.1 17.1 9.4 0 17.1-7.6 17.1-17.1-.1-9.5-7.7-17.1-17.1-17.1-9.5 0-17.1 7.6-17.1 17.1"/></clipPath><clipPath id="bD"><path d="m0 17.1c0 9.4 7.6 17.1 17.1 17.1 9.4 0 17.1-7.6 17.1-17.1-.1-9.5-7.7-17.1-17.1-17.1-9.5 0-17.1 7.6-17.1 17.1"/></clipPath><clipPath id="bE"><path d="m0 17.1c0 9.4 7.6 17.1 17.1 17.1 9.4 0 17.1-7.6 17.1-17.1-.1-9.5-7.7-17.1-17.1-17.1-9.5 0-17.1 7.6-17.1 17.1"/></clipPath><clipPath id="bF"><path d="m0 17.1c0 9.4 7.6 17.1 17.1 17.1 9.4 0 17.1-7.6 17.1-17.1-.1-9.5-7.7-17.1-17.1-17.1-9.5 0-17.1 7.6-17.1 17.1"/></clipPath><clipPath id="bG"><path d="m0 17.1c0 9.4 7.6 17.1 17.1 17.1 9.4 0 17.1-7.6 17.1-17.1-.1-9.5-7.7-17.1-17.1-17.1-9.5 0-17.1 7.6-17.1 17.1"/></clipPath><clipPath id="bH"><path d="m0 17.1c0 9.4 7.6 17.1 17.1 17.1 9.4 0 17.1-7.6 17.1-17.1-.1-9.5-7.7-17.1-17.1-17.1-9.5 0-17.1 7.6-17.1 17.1"/></clipPath><clipPath id="bI"><path d="m0 17.1c0 9.4 7.6 17.1 17.1 17.1 9.4 0 17.1-7.6 17.1-17.1-.1-9.5-7.7-17.1-17.1-17.1-9.5 0-17.1 7.6-17.1 17.1"/></clipPath><clipPath id="bJ"><path d="m0 17.1c0 9.4 7.6 17.1 17.1 17.1 9.4 0 17.1-7.6 17.1-17.1-.1-9.5-7.7-17.1-17.1-17.1-9.5 0-17.1 7.6-17.1 17.1"/></clipPath><clipPath id="bK"><path d="m0 17.1c0 9.4 7.6 17.1 17.1 17.1 9.4 0 17.1-7.6 17.1-17.1-.1-9.5-7.7-17.1-17.1-17.1-9.5 0-17.1 7.6-17.1 17.1"/></clipPath><clipPath id="bL"><path d="m0 17.1c0 9.4 7.6 17.1 17.1 17.1 9.4 0 17.1-7.6 17.1-17.1-.1-9.5-7.7-17.1-17.1-17.1-9.5 0-17.1 7.6-17.1 17.1"/></clipPath><clipPath id="bM"><path d="m0 17.1c0 9.4 7.6 17.1 17.1 17.1 9.4 0 17.1-7.6 17.1-17.1-.1-9.5-7.7-17.1-17.1-17.1-9.5 0-17.1 7.6-17.1 17.1"/></clipPath><clipPath id="bN"><path d="m0 17.1c0 9.4 7.6 17.1 17.1 17.1 9.4 0 17.1-7.6 17.1-17.1-.1-9.5-7.7-17.1-17.1-17.1-9.5 0-17.1 7.6-17.1 17.1"/></clipPath><clipPath id="bO"><path d="m0 17.1c0 9.4 7.6 17.1 17.1 17.1 9.4 0 17.1-7.6 17.1-17.1-.1-9.5-7.7-17.1-17.1-17.1-9.5 0-17.1 7.6-17.1 17.1"/></clipPath><clipPath id="bP"><path d="m0 17.1c0 9.4 7.6 17.1 17.1 17.1 9.4 0 17.1-7.6 17.1-17.1-.1-9.5-7.7-17.1-17.1-17.1-9.5 0-17.1 7.6-17.1 17.1"/></clipPath><clipPath id="bQ"><path d="m0 17.1c0 9.4 7.6 17.1 17.1 17.1 9.4 0 17.1-7.6 17.1-17.1-.1-9.5-7.7-17.1-17.1-17.1-9.5 0-17.1 7.6-17.1 17.1"/></clipPath><clipPath id="bR"><path d="m0 17.1c0 9.4 7.6 17.1 17.1 17.1 9.4 0 17.1-7.6 17.1-17.1-.1-9.5-7.7-17.1-17.1-17.1-9.5 0-17.1 7.6-17.1 17.1"/></clipPath><clipPath id="bS"><path d="m0 17.1c0 9.4 7.6 17.1 17.1 17.1 9.4 0 17.1-7.6 17.1-17.1-.1-9.5-7.7-17.1-17.1-17.1-9.5 0-17.1 7.6-17.1 17.1"/></clipPath><clipPath id="bT"><path d="m0 17.1c0 9.4 7.6 17.1 17.1 17.1 9.4 0 17.1-7.6 17.1-17.1-.1-9.5-7.7-17.1-17.1-17.1-9.5 0-17.1 7.6-17.1 17.1"/></clipPath><clipPath id="bU"><path d="m0 17.1c0 9.4 7.6 17.1 17.1 17.1 9.4 0 17.1-7.6 17.1-17.1-.1-9.5-7.7-17.1-17.1-17.1-9.5 0-17.1 7.6-17.1 17.1"/></clipPath><clipPath id="bV"><path d="m0 17.1c0 9.4 7.6 17.1 17.1 17.1 9.4 0 17.1-7.6 17.1-17.1-.1-9.5-7.7-17.1-17.1-17.1-9.5 0-17.1 7.6-17.1 17.1"/></clipPath><clipPath id="bW"><path d="m0 17.1c0 9.4 7.6 17.1 17.1 17.1 9.4 0 17.1-7.6 17.1-17.1-.1-9.5-7.7-17.1-17.1-17.1-9.5 0-17.1 7.6-17.1 17.1"/></clipPath><clipPath id="bX"><path d="m0 17.1c0 9.4 7.6 17.1 17.1 17.1 9.4 0 17.1-7.6 17.1-17.1-.1-9.5-7.7-17.1-17.1-17.1-9.5 0-17.1 7.6-17.1 17.1"/></clipPath><clipPath id="bY"><path d="m0 17.1c0 9.4 7.6 17.1 17.1 17.1 9.4 0 17.1-7.6 17.1-17.1-.1-9.5-7.7-17.1-17.1-17.1-9.5 0-17.1 7.6-17.1 17.1"/></clipPath><clipPath id="bZ"><path d="m0 17.1c0 9.4 7.6 17.1 17.1 17.1 9.4 0 17.1-7.6 17.1-17.1-.1-9.5-7.7-17.1-17.1-17.1-9.5 0-17.1 7.6-17.1 17.1"/></clipPath><clipPath id="b0"><path d="m0 17.1c0 9.4 7.6 17.1 17.1 17.1 9.4 0 17.1-7.6 17.1-17.1-.1-9.5-7.7-17.1-17.1-17.1-9.5 0-17.1 7.6-17.1 17.1"/></clipPath><clipPath id="b1"><path d="m0 17.1c0 9.4 7.6 17.1 17.1 17.1 9.4 0 17.1-7.6 17.1-17.1-.1-9.5-7.7-17.1-17.1-17.1-9.5 0-17.1 7.6-17.1 17.1"/></clipPath><clipPath id="b2"><path d="m0 17.1c0 9.4 7.6 17.1 17.1 17.1 9.4 0 17.1-7.6 17.1-17.1-.1-9.5-7.7-17.1-17.1-17.1-9.5 0-17.1 7.6-17.1 17.1"/></clipPath><clipPath id="b3"><path d="m0 17.1c0 9.4 7.6 17.1 17.1 17.1 9.4 0 17.1-7.6 17.1-17.1-.1-9.5-7.7-17.1-17.1-17.1-9.5 0-17.1 7.6-17.1 17.1"/></clipPath><clipPath id="b4"><path d="m0 17.1c0 9.4 7.6 17.1 17.1 17.1 9.4 0 17.1-7.6 17.1-17.1-.1-9.5-7.7-17.1-17.1-17.1-9.5 0-17.1 7.6-17.1 17.1"/></clipPath><clipPath id="b5"><path d="m0 17.1c0 9.4 7.6 17.1 17.1 17.1 9.4 0 17.1-7.6 17.1-17.1-.1-9.5-7.7-17.1-17.1-17.1-9.5 0-17.1 7.6-17.1 17.1"/></clipPath><clipPath id="b6"><path d="m0 17.1c0 9.4 7.6 17.1 17.1 17.1 9.4 0 17.1-7.6 17.1-17.1-.1-9.5-7.7-17.1-17.1-17.1-9.5 0-17.1 7.6-17.1 17.1"/></clipPath><clipPath id="b7"><path d="m0 17.1c0 9.4 7.6 17.1 17.1 17.1 9.4 0 17.1-7.6 17.1-17.1-.1-9.5-7.7-17.1-17.1-17.1-9.5 0-17.1 7.6-17.1 17.1"/></clipPath><clipPath id="b8"><path d="m0 17.1c0 9.4 7.6 17.1 17.1 17.1 9.4 0 17.1-7.6 17.1-17.1-.1-9.5-7.7-17.1-17.1-17.1-9.5 0-17.1 7.6-17.1 17.1"/></clipPath><clipPath id="b9"><path d="m0 17.1c0 9.4 7.6 17.1 17.1 17.1 9.4 0 17.1-7.6 17.1-17.1-.1-9.5-7.7-17.1-17.1-17.1-9.5 0-17.1 7.6-17.1 17.1"/></clipPath><clipPath id="ca"><path d="m0 17.1c0 9.4 7.6 17.1 17.1 17.1 9.4 0 17.1-7.6 17.1-17.1-.1-9.5-7.7-17.1-17.1-17.1-9.5 0-17.1 7.6-17.1 17.1"/></clipPath><clipPath id="cb"><path d="m0 17.1c0 9.4 7.6 17.1 17.1 17.1 9.4 0 17.1-7.6 17.1-17.1-.1-9.5-7.7-17.1-17.1-17.1-9.5 0-17.1 7.6-17.1 17.1"/></clipPath><clipPath id="cc"><path d="m0 17.1c0 9.4 7.6 17.1 17.1 17.1 9.4 0 17.1-7.6 17.1-17.1-.1-9.5-7.7-17.1-17.1-17.1-9.5 0-17.1 7.6-17.1 17.1"/></clipPath><clipPath id="cd"><path d="m0 17.1c0 9.4 7.6 17.1 17.1 17.1 9.4 0 17.1-7.6 17.1-17.1-.1-9.5-7.7-17.1-17.1-17.1-9.5 0-17.1 7.6-17.1 17.1"/></clipPath><clipPath id="ce"><path d="m0 17.1c0 9.4 7.6 17.1 17.1 17.1 9.4 0 17.1-7.6 17.1-17.1-.1-9.5-7.7-17.1-17.1-17.1-9.5 0-17.1 7.6-17.1 17.1"/></clipPath><clipPath id="cf"><path d="m0 17.1c0 9.4 7.6 17.1 17.1 17.1 9.4 0 17.1-7.6 17.1-17.1-.1-9.5-7.7-17.1-17.1-17.1-9.5 0-17.1 7.6-17.1 17.1"/></clipPath><clipPath id="cg"><path d="m0 17.1c0 9.4 7.6 17.1 17.1 17.1 9.4 0 17.1-7.6 17.1-17.1-.1-9.5-7.7-17.1-17.1-17.1-9.5 0-17.1 7.6-17.1 17.1"/></clipPath><clipPath id="ch"><path d="m0 17.1c0 9.4 7.6 17.1 17.1 17.1 9.4 0 17.1-7.6 17.1-17.1-.1-9.5-7.7-17.1-17.1-17.1-9.5 0-17.1 7.6-17.1 17.1"/></clipPath><clipPath id="ci"><path d="m0 17.1c0 9.4 7.6 17.1 17.1 17.1 9.4 0 17.1-7.6 17.1-17.1-.1-9.5-7.7-17.1-17.1-17.1-9.5 0-17.1 7.6-17.1 17.1"/></clipPath><clipPath id="cj"><path d="m0 17.1c0 9.4 7.6 17.1 17.1 17.1 9.4 0 17.1-7.6 17.1-17.1-.1-9.5-7.7-17.1-17.1-17.1-9.5 0-17.1 7.6-17.1 17.1"/></clipPath><clipPath id="ck"><path d="m0 17.1c0 9.4 7.6 17.1 17.1 17.1 9.4 0 17.1-7.6 17.1-17.1-.1-9.5-7.7-17.1-17.1-17.1-9.5 0-17.1 7.6-17.1 17.1"/></clipPath><clipPath id="cl"><path d="m0 17.1c0 9.4 7.6 17.1 17.1 17.1 9.4 0 17.1-7.6 17.1-17.1-.1-9.5-7.7-17.1-17.1-17.1-9.5 0-17.1 7.6-17.1 17.1"/></clipPath><clipPath id="cm"><path d="m0 17.1c0 9.4 7.6 17.1 17.1 17.1 9.4 0 17.1-7.6 17.1-17.1-.1-9.5-7.7-17.1-17.1-17.1-9.5 0-17.1 7.6-17.1 17.1"/></clipPath><clipPath id="cn"><path d="m0 17.1c0 9.4 7.6 17.1 17.1 17.1 9.4 0 17.1-7.6 17.1-17.1-.1-9.5-7.7-17.1-17.1-17.1-9.5 0-17.1 7.6-17.1 17.1"/></clipPath><clipPath id="co"><path d="m0 17.1c0 9.4 7.6 17.1 17.1 17.1 9.4 0 17.1-7.6 17.1-17.1-.1-9.5-7.7-17.1-17.1-17.1-9.5 0-17.1 7.6-17.1 17.1"/></clipPath><clipPath id="cp"><path d="m0 17.1c0 9.4 7.6 17.1 17.1 17.1 9.4 0 17.1-7.6 17.1-17.1-.1-9.5-7.7-17.1-17.1-17.1-9.5 0-17.1 7.6-17.1 17.1"/></clipPath><clipPath id="cq"><path d="m0 17.1c0 9.4 7.6 17.1 17.1 17.1 9.4 0 17.1-7.6 17.1-17.1-.1-9.5-7.7-17.1-17.1-17.1-9.5 0-17.1 7.6-17.1 17.1"/></clipPath><clipPath id="cr"><path d="m0 17.1c0 9.4 7.6 17.1 17.1 17.1 9.4 0 17.1-7.6 17.1-17.1-.1-9.5-7.7-17.1-17.1-17.1-9.5 0-17.1 7.6-17.1 17.1"/></clipPath><clipPath id="cs"><path d="m0 17.1c0 9.4 7.6 17.1 17.1 17.1 9.4 0 17.1-7.6 17.1-17.1-.1-9.5-7.7-17.1-17.1-17.1-9.5 0-17.1 7.6-17.1 17.1"/></clipPath><clipPath id="ct"><path d="m0 17.1c0 9.4 7.6 17.1 17.1 17.1 9.4 0 17.1-7.6 17.1-17.1-.1-9.5-7.7-17.1-17.1-17.1-9.5 0-17.1 7.6-17.1 17.1"/></clipPath><clipPath id="cu"><path d="m0 17.1c0 9.4 7.6 17.1 17.1 17.1 9.4 0 17.1-7.6 17.1-17.1-.1-9.5-7.7-17.1-17.1-17.1-9.5 0-17.1 7.6-17.1 17.1"/></clipPath><clipPath id="cv"><path d="m0 17.1c0 9.4 7.6 17.1 17.1 17.1 9.4 0 17.1-7.6 17.1-17.1-.1-9.5-7.7-17.1-17.1-17.1-9.5 0-17.1 7.6-17.1 17.1"/></clipPath><clipPath id="cw"><path d="m0 17.1c0 9.4 7.6 17.1 17.1 17.1 9.4 0 17.1-7.6 17.1-17.1-.1-9.5-7.7-17.1-17.1-17.1-9.5 0-17.1 7.6-17.1 17.1"/></clipPath><clipPath id="cx"><path d="m0 17.1c0 9.4 7.6 17.1 17.1 17.1 9.4 0 17.1-7.6 17.1-17.1-.1-9.5-7.7-17.1-17.1-17.1-9.5 0-17.1 7.6-17.1 17.1"/></clipPath><clipPath id="cy"><path d="m0 17.1c0 9.4 7.6 17.1 17.1 17.1 9.4 0 17.1-7.6 17.1-17.1-.1-9.5-7.7-17.1-17.1-17.1-9.5 0-17.1 7.6-17.1 17.1"/></clipPath><clipPath id="cz"><path d="m0 17.1c0 9.4 7.6 17.1 17.1 17.1 9.4 0 17.1-7.6 17.1-17.1-.1-9.5-7.7-17.1-17.1-17.1-9.5 0-17.1 7.6-17.1 17.1"/></clipPath><clipPath id="cA"><path d="m0 17.1c0 9.4 7.6 17.1 17.1 17.1 9.4 0 17.1-7.6 17.1-17.1-.1-9.5-7.7-17.1-17.1-17.1-9.5 0-17.1 7.6-17.1 17.1"/></clipPath><clipPath id="cB"><path d="m0 17.1c0 9.4 7.6 17.1 17.1 17.1 9.4 0 17.1-7.6 17.1-17.1-.1-9.5-7.7-17.1-17.1-17.1-9.5 0-17.1 7.6-17.1 17.1"/></clipPath><clipPath id="cC"><path d="m0 17.1c0 9.4 7.6 17.1 17.1 17.1 9.4 0 17.1-7.6 17.1-17.1-.1-9.5-7.7-17.1-17.1-17.1-9.5 0-17.1 7.6-17.1 17.1"/></clipPath><clipPath id="cD"><path d="m0 17.1c0 9.4 7.6 17.1 17.1 17.1 9.4 0 17.1-7.6 17.1-17.1-.1-9.5-7.7-17.1-17.1-17.1-9.5 0-17.1 7.6-17.1 17.1"/></clipPath><clipPath id="cE"><path d="m0 17.1c0 9.4 7.6 17.1 17.1 17.1 9.4 0 17.1-7.6 17.1-17.1-.1-9.5-7.7-17.1-17.1-17.1-9.5 0-17.1 7.6-17.1 17.1"/></clipPath><clipPath id="cF"><path d="m0 17.1c0 9.4 7.6 17.1 17.1 17.1 9.4 0 17.1-7.6 17.1-17.1-.1-9.5-7.7-17.1-17.1-17.1-9.5 0-17.1 7.6-17.1 17.1"/></clipPath><clipPath id="cG"><path d="m0 17.1c0 9.4 7.6 17.1 17.1 17.1 9.4 0 17.1-7.6 17.1-17.1-.1-9.5-7.7-17.1-17.1-17.1-9.5 0-17.1 7.6-17.1 17.1"/></clipPath><clipPath id="cH"><path d="m0 17.1c0 9.4 7.6 17.1 17.1 17.1 9.4 0 17.1-7.6 17.1-17.1-.1-9.5-7.7-17.1-17.1-17.1-9.5 0-17.1 7.6-17.1 17.1"/></clipPath><clipPath id="cI"><path d="m0 17.1c0 9.4 7.6 17.1 17.1 17.1 9.4 0 17.1-7.6 17.1-17.1-.1-9.5-7.7-17.1-17.1-17.1-9.5 0-17.1 7.6-17.1 17.1"/></clipPath><clipPath id="cJ"><path d="m0 17.1c0 9.4 7.6 17.1 17.1 17.1 9.4 0 17.1-7.6 17.1-17.1-.1-9.5-7.7-17.1-17.1-17.1-9.5 0-17.1 7.6-17.1 17.1"/></clipPath><clipPath id="cK"><path d="m0 17.1c0 9.4 7.6 17.1 17.1 17.1 9.4 0 17.1-7.6 17.1-17.1-.1-9.5-7.7-17.1-17.1-17.1-9.5 0-17.1 7.6-17.1 17.1"/></clipPath><clipPath id="cL"><path d="m0 17.1c0 9.4 7.6 17.1 17.1 17.1 9.4 0 17.1-7.6 17.1-17.1-.1-9.5-7.7-17.1-17.1-17.1-9.5 0-17.1 7.6-17.1 17.1"/></clipPath><clipPath id="cM"><path d="m0 17.1c0 9.4 7.6 17.1 17.1 17.1 9.4 0 17.1-7.6 17.1-17.1-.1-9.5-7.7-17.1-17.1-17.1-9.5 0-17.1 7.6-17.1 17.1"/></clipPath><clipPath id="cN"><path d="m0 17.1c0 9.4 7.6 17.1 17.1 17.1 9.4 0 17.1-7.6 17.1-17.1-.1-9.5-7.7-17.1-17.1-17.1-9.5 0-17.1 7.6-17.1 17.1"/></clipPath><clipPath id="cO"><path d="m0 17.1c0 9.4 7.6 17.1 17.1 17.1 9.4 0 17.1-7.6 17.1-17.1-.1-9.5-7.7-17.1-17.1-17.1-9.5 0-17.1 7.6-17.1 17.1"/></clipPath><clipPath id="cP"><path d="m0 17.1c0 9.4 7.6 17.1 17.1 17.1 9.4 0 17.1-7.6 17.1-17.1-.1-9.5-7.7-17.1-17.1-17.1-9.5 0-17.1 7.6-17.1 17.1"/></clipPath><clipPath id="cQ"><path d="m0 17.1c0 9.4 7.6 17.1 17.1 17.1 9.4 0 17.1-7.6 17.1-17.1-.1-9.5-7.7-17.1-17.1-17.1-9.5 0-17.1 7.6-17.1 17.1"/></clipPath><clipPath id="cR"><path d="m0 17.1c0 9.4 7.6 17.1 17.1 17.1 9.4 0 17.1-7.6 17.1-17.1-.1-9.5-7.7-17.1-17.1-17.1-9.5 0-17.1 7.6-17.1 17.1"/></clipPath><clipPath id="cS"><path d="m0 17.1c0 9.4 7.6 17.1 17.1 17.1 9.4 0 17.1-7.6 17.1-17.1-.1-9.5-7.7-17.1-17.1-17.1-9.5 0-17.1 7.6-17.1 17.1"/></clipPath><clipPath id="cT"><path d="m0 17.1c0 9.4 7.6 17.1 17.1 17.1 9.4 0 17.1-7.6 17.1-17.1-.1-9.5-7.7-17.1-17.1-17.1-9.5 0-17.1 7.6-17.1 17.1"/></clipPath><clipPath id="cU"><path d="m0 17.1c0 9.4 7.6 17.1 17.1 17.1 9.4 0 17.1-7.6 17.1-17.1-.1-9.5-7.7-17.1-17.1-17.1-9.5 0-17.1 7.6-17.1 17.1"/></clipPath><clipPath id="cV"><path d="m0 17.1c0 9.4 7.6 17.1 17.1 17.1 9.4 0 17.1-7.6 17.1-17.1-.1-9.5-7.7-17.1-17.1-17.1-9.5 0-17.1 7.6-17.1 17.1"/></clipPath><clipPath id="cW"><path d="m0 17.1c0 9.4 7.6 17.1 17.1 17.1 9.4 0 17.1-7.6 17.1-17.1-.1-9.5-7.7-17.1-17.1-17.1-9.5 0-17.1 7.6-17.1 17.1"/></clipPath><clipPath id="cX"><path d="m0 17.1c0 9.4 7.6 17.1 17.1 17.1 9.4 0 17.1-7.6 17.1-17.1-.1-9.5-7.7-17.1-17.1-17.1-9.5 0-17.1 7.6-17.1 17.1"/></clipPath><clipPath id="cY"><path d="m0 17.1c0 9.4 7.6 17.1 17.1 17.1 9.4 0 17.1-7.6 17.1-17.1-.1-9.5-7.7-17.1-17.1-17.1-9.5 0-17.1 7.6-17.1 17.1"/></clipPath><clipPath id="cZ"><path d="m0 17.1c0 9.4 7.6 17.1 17.1 17.1 9.4 0 17.1-7.6 17.1-17.1-.1-9.5-7.7-17.1-17.1-17.1-9.5 0-17.1 7.6-17.1 17.1"/></clipPath><clipPath id="c0"><path d="m0 17.1c0 9.4 7.6 17.1 17.1 17.1 9.4 0 17.1-7.6 17.1-17.1-.1-9.5-7.7-17.1-17.1-17.1-9.5 0-17.1 7.6-17.1 17.1"/></clipPath><clipPath id="c1"><path d="m0 17.1c0 9.4 7.6 17.1 17.1 17.1 9.4 0 17.1-7.6 17.1-17.1-.1-9.5-7.7-17.1-17.1-17.1-9.5 0-17.1 7.6-17.1 17.1"/></clipPath><clipPath id="c2"><path d="m0 17.1c0 9.4 7.6 17.1 17.1 17.1 9.4 0 17.1-7.6 17.1-17.1-.1-9.5-7.7-17.1-17.1-17.1-9.5 0-17.1 7.6-17.1 17.1"/></clipPath><clipPath id="c3"><path d="m0 17.1c0 9.4 7.6 17.1 17.1 17.1 9.4 0 17.1-7.6 17.1-17.1-.1-9.5-7.7-17.1-17.1-17.1-9.5 0-17.1 7.6-17.1 17.1"/></clipPath><clipPath id="c4"><path d="m0 17.1c0 9.4 7.6 17.1 17.1 17.1 9.4 0 17.1-7.6 17.1-17.1-.1-9.5-7.7-17.1-17.1-17.1-9.5 0-17.1 7.6-17.1 17.1"/></clipPath><clipPath id="c5"><path d="m0 17.1c0 9.4 7.6 17.1 17.1 17.1 9.4 0 17.1-7.6 17.1-17.1-.1-9.5-7.7-17.1-17.1-17.1-9.5 0-17.1 7.6-17.1 17.1"/></clipPath><clipPath id="c6"><path d="m0 17.1c0 9.4 7.6 17.1 17.1 17.1 9.4 0 17.1-7.6 17.1-17.1-.1-9.5-7.7-17.1-17.1-17.1-9.5 0-17.1 7.6-17.1 17.1"/></clipPath><clipPath id="c7"><path d="m0 17.1c0 9.4 7.6 17.1 17.1 17.1 9.4 0 17.1-7.6 17.1-17.1-.1-9.5-7.7-17.1-17.1-17.1-9.5 0-17.1 7.6-17.1 17.1"/></clipPath><clipPath id="c8"><path d="m0 17.1c0 9.4 7.6 17.1 17.1 17.1 9.4 0 17.1-7.6 17.1-17.1-.1-9.5-7.7-17.1-17.1-17.1-9.5 0-17.1 7.6-17.1 17.1"/></clipPath><clipPath id="c9"><path d="m0 17.1c0 9.4 7.6 17.1 17.1 17.1 9.4 0 17.1-7.6 17.1-17.1-.1-9.5-7.7-17.1-17.1-17.1-9.5 0-17.1 7.6-17.1 17.1"/></clipPath><clipPath id="da"><path d="m0 17.1c0 9.4 7.6 17.1 17.1 17.1 9.4 0 17.1-7.6 17.1-17.1-.1-9.5-7.7-17.1-17.1-17.1-9.5 0-17.1 7.6-17.1 17.1"/></clipPath><clipPath id="db"><path d="m0 17.1c0 9.4 7.6 17.1 17.1 17.1 9.4 0 17.1-7.6 17.1-17.1-.1-9.5-7.7-17.1-17.1-17.1-9.5 0-17.1 7.6-17.1 17.1"/></clipPath><clipPath id="dc"><path d="m0 17.1c0 9.4 7.6 17.1 17.1 17.1 9.4 0 17.1-7.6 17.1-17.1-.1-9.5-7.7-17.1-17.1-17.1-9.5 0-17.1 7.6-17.1 17.1"/></clipPath><clipPath id="dd"><path d="m0 17.1c0 9.4 7.6 17.1 17.1 17.1 9.4 0 17.1-7.6 17.1-17.1-.1-9.5-7.7-17.1-17.1-17.1-9.5 0-17.1 7.6-17.1 17.1"/></clipPath><clipPath id="de"><path d="m0 17.1c0 9.4 7.6 17.1 17.1 17.1 9.4 0 17.1-7.6 17.1-17.1-.1-9.5-7.7-17.1-17.1-17.1-9.5 0-17.1 7.6-17.1 17.1"/></clipPath><clipPath id="df"><path d="m0 17.1c0 9.4 7.6 17.1 17.1 17.1 9.4 0 17.1-7.6 17.1-17.1-.1-9.5-7.7-17.1-17.1-17.1-9.5 0-17.1 7.6-17.1 17.1"/></clipPath><clipPath id="dg"><path d="m0 17.1c0 9.4 7.6 17.1 17.1 17.1 9.4 0 17.1-7.6 17.1-17.1-.1-9.5-7.7-17.1-17.1-17.1-9.5 0-17.1 7.6-17.1 17.1"/></clipPath><clipPath id="dh"><path d="m0 17.1c0 9.4 7.6 17.1 17.1 17.1 9.4 0 17.1-7.6 17.1-17.1-.1-9.5-7.7-17.1-17.1-17.1-9.5 0-17.1 7.6-17.1 17.1"/></clipPath><clipPath id="di"><path d="m0 17.1c0 9.4 7.6 17.1 17.1 17.1 9.4 0 17.1-7.6 17.1-17.1-.1-9.5-7.7-17.1-17.1-17.1-9.5 0-17.1 7.6-17.1 17.1"/></clipPath><clipPath id="dj"><path d="m0 17.1c0 9.4 7.6 17.1 17.1 17.1 9.4 0 17.1-7.6 17.1-17.1-.1-9.5-7.7-17.1-17.1-17.1-9.5 0-17.1 7.6-17.1 17.1"/></clipPath><clipPath id="dk"><path d="m0 17.1c0 9.4 7.6 17.1 17.1 17.1 9.4 0 17.1-7.6 17.1-17.1-.1-9.5-7.7-17.1-17.1-17.1-9.5 0-17.1 7.6-17.1 17.1"/></clipPath><clipPath id="dl"><path d="m0 17.1c0 9.4 7.6 17.1 17.1 17.1 9.4 0 17.1-7.6 17.1-17.1-.1-9.5-7.7-17.1-17.1-17.1-9.5 0-17.1 7.6-17.1 17.1"/></clipPath><clipPath id="dm"><path d="m0 17.1c0 9.4 7.6 17.1 17.1 17.1 9.4 0 17.1-7.6 17.1-17.1-.1-9.5-7.7-17.1-17.1-17.1-9.5 0-17.1 7.6-17.1 17.1"/></clipPath><clipPath id="dn"><path d="m0 17.1c0 9.4 7.6 17.1 17.1 17.1 9.4 0 17.1-7.6 17.1-17.1-.1-9.5-7.7-17.1-17.1-17.1-9.5 0-17.1 7.6-17.1 17.1"/></clipPath><clipPath id="do"><path d="m0 17.1c0 9.4 7.6 17.1 17.1 17.1 9.4 0 17.1-7.6 17.1-17.1-.1-9.5-7.7-17.1-17.1-17.1-9.5 0-17.1 7.6-17.1 17.1"/></clipPath><clipPath id="dp"><path d="m0 17.1c0 9.4 7.6 17.1 17.1 17.1 9.4 0 17.1-7.6 17.1-17.1-.1-9.5-7.7-17.1-17.1-17.1-9.5 0-17.1 7.6-17.1 17.1"/></clipPath><clipPath id="dq"><path d="m0 17.1c0 9.4 7.6 17.1 17.1 17.1 9.4 0 17.1-7.6 17.1-17.1-.1-9.5-7.7-17.1-17.1-17.1-9.5 0-17.1 7.6-17.1 17.1"/></clipPath><clipPath id="dr"><path d="m0 17.1c0 9.4 7.6 17.1 17.1 17.1 9.4 0 17.1-7.6 17.1-17.1-.1-9.5-7.7-17.1-17.1-17.1-9.5 0-17.1 7.6-17.1 17.1"/></clipPath><path d="m50.5 22.6c-.4.5-1.1 1-2.1 1h-2.7v-5.7h2.3c.7 0 1.4 0 2.2.7.6.5.9 1.3.9 2.1s-.3 1.5-.6 1.9m2.7-6.9c-2-1.4-4.5-1.4-6.2-1.4h-1.4v-4.3h7.4v-3.6h-12v20.7h6.3c1.8 0 4.4-.1 6.2-1.8 1.3-1 2.2-2.8 2.2-4.7 0-.8-.1-3.2-2.5-4.9" fill="#181716"/><path d="m56.9 5.9c-1.4 0-2.5 1.1-2.5 2.6 0 1 .5 1.9 1.3 2.3-.4 1.2-.8 2-.8 2s3-1.9 3.4-2.2c.7-.5 1.1-1.3 1.1-2.1 0-1.5-1.1-2.6-2.5-2.6" fill="#e3000b"/><path d="m77.1 21.7c-.2.6-.4 1.1-.7 1.5s-.6.6-1 .8-.8.2-1.2.2c-.5 0-.9-.1-1.3-.3s-.7-.4-1-.8-.5-.8-.6-1.5c-.2-.6-.2-1.4-.2-2.3s.1-1.7.2-2.4c.2-.7.4-1.2.7-1.5.3-.4.6-.7 1-.8.3-.1.7-.2 1.2-.2s.9.1 1.3.2c.4.2.7.4 1 .8s.5.9.6 1.5c.1.7.2 1.5.2 2.4 0 1-.1 1.8-.2 2.4m-2.9-10.8c-2.1 0-3.8.5-5 1.6-1.3 1.1-2.1 2.5-2.5 4.4h-3v-5.5h-4.7v15.8h4.7v-6.8h2.8c.2 2.4 1 4.2 2.3 5.4 1.4 1.3 3.2 1.9 5.4 1.9 2.5 0 4.5-.7 5.8-2.2 1.4-1.5 2.1-3.6 2.1-6.2s-.7-4.7-2.1-6.2-3.3-2.2-5.8-2.2" fill="#181716"/><path d="m82.4 15.2h4.3v11.9h4.3v-11.9h4.2v-3.7h-12.8z" fill="#181716"/><path d="m101 21.2v-9.7h-4.1v15.6h4.1l6.7-9.7v9.7h4.1v-15.6h-4.1z" fill="#181716"/><path d="m130.8 11.4h-5.4l-5.6 6v-5.9h-4.3v15.6h4.3v-5.8l.5-.7 5.3 6.4h5.5l-7.3-8.6z" fill="#181716"/><path d="m139.7 14.8c1.5 0 2.6.5 3.5 1.4v-4.4c-1.2-.6-2.6-1-4.2-1-1.5 0-3.7.3-5.5 2-1.6 1.4-2.7 3.7-2.7 6.4 0 3 1.3 4.9 2.4 6.1 1.4 1.4 3.5 2.3 5.9 2.3 1.8 0 3.1-.5 4-1v-4.4c-1.2 1.1-2.4 1.4-3.4 1.4-2.5.2-4.3-1.7-4.3-4.3 0-2.3 1.5-4.5 4.3-4.5" fill="#181716"/><path clip-path="url(#a)" d="m0-2.1h36.1v36.1h-36.1z" fill="#e3000b"/><path clip-path="url(#b)" d="m36.1 16c0 10-8.1 18.1-18.1 18.1s-18-8.1-18-18.1 8.1-18.1 18.1-18.1 18 8.1 18 18.1" fill="#e3000b"/><path clip-path="url(#c)" d="m36.1 15.9c0 10-8.1 18-18 18-10 0-18-8.1-18-18 0-10 8.1-18 18-18s18 8.1 18 18" fill="#e3040d"/><path clip-path="url(#d)" d="m36.1 15.9c0 10-8.1 18-18 18s-18-8.1-18-18c0-10 8.1-18 18-18s18 8.1 18 18" fill="#e3040d"/><path clip-path="url(#e)" d="m36 15.9c0 9.9-8.1 18-18 18s-18-8.1-18-18 8.1-18 18-18c10 0 18 8.1 18 18" fill="#e40d0f"/><path clip-path="url(#f)" d="m36 15.9c0 9.9-8 18-18 18-9.9 0-18-8-18-18 0-9.9 8-18 18-18s18 8.1 18 18" fill="#e41411"/><path clip-path="url(#g)" d="m36 15.9c0 9.9-8 17.9-17.9 17.9s-17.9-8-17.9-17.9 8-17.9 17.9-17.9c9.8-.1 17.9 7.9 17.9 17.9" fill="#e41411"/><path clip-path="url(#h)" d="m35.9 15.8c0 9.9-8 17.9-17.9 17.9s-17.9-8-17.9-17.9 8-17.9 17.9-17.9 17.9 8 17.9 17.9" fill="#e41913"/><path clip-path="url(#i)" d="m35.9 15.8c0 9.9-8 17.9-17.9 17.9s-17.9-8-17.9-17.9 8-17.9 17.9-17.9 17.9 8 17.9 17.9" fill="#e41e15"/><path clip-path="url(#j)" d="m35.9 15.8c0 9.9-8 17.9-17.9 17.9s-17.9-8-17.9-17.9 8-17.9 17.9-17.9 17.9 8 17.9 17.9" fill="#e41e15"/><path clip-path="url(#k)" d="m35.8 15.8c0 9.9-8 17.8-17.8 17.8-9.9 0-17.8-8-17.8-17.8 0-9.9 8-17.8 17.8-17.8 9.8-.1 17.8 7.9 17.8 17.8" fill="#e52217"/><path clip-path="url(#l)" d="m35.8 15.7c0 9.8-8 17.8-17.8 17.8s-17.8-8-17.8-17.8 8-17.8 17.8-17.8 17.8 8 17.8 17.8" fill="#e52217"/><path clip-path="url(#m)" d="m35.7 15.7c0 9.8-8 17.8-17.8 17.8s-17.8-8-17.8-17.8 8-17.8 17.8-17.8c9.9 0 17.8 8 17.8 17.8" fill="#e52619"/><path clip-path="url(#n)" d="m35.7 15.7c0 9.8-8 17.8-17.8 17.8s-17.8-8-17.8-17.8 8-17.8 17.8-17.8c9.9 0 17.8 8 17.8 17.8" fill="#e5291b"/><path clip-path="url(#o)" d="m35.7 15.7c0 9.8-7.9 17.7-17.7 17.7s-17.7-7.9-17.7-17.7 7.9-17.7 17.7-17.7c9.7-.1 17.7 7.9 17.7 17.7" fill="#e5291b"/><path clip-path="url(#p)" d="m35.6 15.6c0 9.8-7.9 17.7-17.7 17.7s-17.7-7.9-17.7-17.7 7.9-17.7 17.7-17.7 17.7 8 17.7 17.7" fill="#e62d1d"/><path clip-path="url(#q)" d="m35.6 15.6c0 9.8-7.9 17.7-17.7 17.7s-17.7-7.9-17.7-17.7 7.9-17.7 17.7-17.7 17.7 7.9 17.7 17.7" fill="#e6301f"/><path clip-path="url(#r)" d="m35.6 15.6c0 9.8-7.9 17.7-17.7 17.7s-17.7-7.9-17.7-17.7 7.9-17.7 17.7-17.7 17.7 7.9 17.7 17.7" fill="#e6301f"/><path clip-path="url(#s)" d="m35.5 15.6c0 9.7-7.9 17.6-17.6 17.6s-17.6-7.9-17.6-17.6 7.9-17.6 17.6-17.6c9.7-.1 17.6 7.8 17.6 17.6" fill="#e63321"/><path clip-path="url(#t)" d="m35.5 15.5c0 9.7-7.9 17.6-17.6 17.6s-17.6-7.8-17.6-17.6c0-9.7 7.9-17.6 17.6-17.6s17.6 7.9 17.6 17.6" fill="#e63321"/><path clip-path="url(#u)" d="m35.5 15.5c0 9.7-7.9 17.6-17.6 17.6s-17.6-7.9-17.6-17.6 7.9-17.6 17.6-17.6 17.6 7.9 17.6 17.6" fill="#e73623"/><path clip-path="url(#v)" d="m35.4 15.5c0 9.7-7.9 17.6-17.6 17.6s-17.5-7.9-17.5-17.6 7.9-17.6 17.6-17.6 17.5 7.9 17.5 17.6" fill="#e73925"/><path clip-path="url(#w)" d="m35.4 15.5c0 9.7-7.9 17.5-17.5 17.5-9.7 0-17.6-7.8-17.6-17.5s7.9-17.5 17.5-17.5c9.7-.1 17.6 7.8 17.6 17.5" fill="#e73925"/><path clip-path="url(#x)" d="m35.4 15.5c0 9.7-7.8 17.5-17.5 17.5s-17.6-7.9-17.6-17.5c0-9.7 7.8-17.5 17.5-17.5 9.7-.1 17.6 7.8 17.6 17.5" fill="#e73c27"/><path clip-path="url(#y)" d="m35.3 15.4c0 9.7-7.8 17.5-17.5 17.5s-17.5-7.8-17.5-17.5 7.8-17.5 17.5-17.5 17.5 7.9 17.5 17.5" fill="#e83f29"/><path clip-path="url(#z)" d="m35.3 15.4c0 9.6-7.8 17.5-17.5 17.5-9.6 0-17.4-7.9-17.4-17.5s7.8-17.5 17.5-17.5c9.6 0 17.4 7.9 17.4 17.5" fill="#e83f29"/><path clip-path="url(#A)" d="m35.2 15.4c0 9.6-7.8 17.4-17.4 17.4s-17.4-7.8-17.4-17.4 7.8-17.4 17.4-17.4 17.4 7.8 17.4 17.4" fill="#e8422b"/><path clip-path="url(#B)" d="m35.2 15.4c0 9.6-7.8 17.4-17.4 17.4s-17.4-7.8-17.4-17.4c0-9.7 7.8-17.4 17.4-17.4s17.4 7.7 17.4 17.4" fill="#e8422b"/><path clip-path="url(#C)" d="m35.2 15.3c0 9.6-7.8 17.4-17.4 17.4s-17.4-7.8-17.4-17.4 7.8-17.3 17.4-17.3 17.4 7.7 17.4 17.3" fill="#e9452d"/><path clip-path="url(#D)" d="m35.1 15.3c0 9.6-7.8 17.4-17.4 17.4s-17.4-7.8-17.4-17.4c.1-9.6 7.9-17.3 17.5-17.3s17.3 7.7 17.3 17.3" fill="#e9482f"/><path clip-path="url(#E)" d="m35.1 15.3c0 9.6-7.8 17.3-17.3 17.3-9.6 0-17.3-7.8-17.3-17.3-.1-9.6 7.7-17.3 17.3-17.3 9.5 0 17.3 7.7 17.3 17.3" fill="#e9482f"/><path clip-path="url(#F)" d="m35.1 15.3c0 9.6-7.7 17.3-17.3 17.3s-17.3-7.7-17.3-17.3 7.7-17.3 17.3-17.3c9.5 0 17.3 7.7 17.3 17.3" fill="#e94a31"/><path clip-path="url(#G)" d="m35 15.2c0 9.5-7.7 17.3-17.3 17.3-9.5 0-17.3-7.7-17.3-17.3.1-9.5 7.8-17.2 17.4-17.2 9.5 0 17.2 7.7 17.2 17.2" fill="#e94a31"/><path clip-path="url(#H)" d="m35 15.2c0 9.5-7.7 17.3-17.3 17.3s-17.2-7.8-17.2-17.3 7.7-17.2 17.2-17.2 17.3 7.7 17.3 17.2" fill="#ea4d33"/><path clip-path="url(#I)" d="m35 15.2c0 9.5-7.7 17.2-17.2 17.2s-17.2-7.7-17.2-17.2c-.1-9.5 7.6-17.2 17.1-17.2s17.3 7.7 17.3 17.2" fill="#ea5035"/><path clip-path="url(#J)" d="m34.9 15.2c0 9.5-7.7 17.2-17.2 17.2s-17.2-7.7-17.2-17.2 7.7-17.2 17.2-17.2 17.2 7.7 17.2 17.2" fill="#ea5035"/><path clip-path="url(#K)" d="m34.9 15.1c0 9.5-7.7 17.2-17.2 17.2s-17.2-7.7-17.2-17.2c0-9.4 7.7-17.1 17.2-17.1s17.2 7.7 17.2 17.1" fill="#ea5337"/><path clip-path="url(#L)" d="m34.8 15.1c0 9.5-7.7 17.2-17.2 17.2s-17.1-7.7-17.1-17.2c.1-9.4 7.7-17.1 17.2-17.1s17.1 7.7 17.1 17.1" fill="#ea5337"/><path clip-path="url(#M)" d="m34.8 15.1c0 9.5-7.7 17.1-17.1 17.1s-17.1-7.6-17.1-17.1 7.6-17.1 17.1-17.1 17.1 7.6 17.1 17.1" fill="#eb563a"/><path clip-path="url(#N)" d="m34.8 15.1c0 9.4-7.7 17.1-17.1 17.1s-17.1-7.7-17.1-17.1c0-9.5 7.6-17.1 17.1-17.1s17.1 7.6 17.1 17.1" fill="#eb583c"/><path clip-path="url(#O)" d="m34.7 15.1c0 9.4-7.6 17.1-17.1 17.1s-17-7.7-17-17.1c0-9.5 7.6-17.1 17.1-17.1s17 7.6 17 17.1" fill="#eb583c"/><path clip-path="url(#P)" d="m34.7 15c0 9.4-7.6 17-17 17s-17-7.6-17-17 7.6-17 17-17 17 7.6 17 17" fill="#eb5b3e"/><path clip-path="url(#Q)" d="m34.7 15c0 9.4-7.6 17-17 17s-17-7.6-17-17 7.6-17 17-17c9.3 0 17 7.6 17 17" fill="#eb5b3e"/><path clip-path="url(#R)" d="m34.6 15c0 9.4-7.6 17-17 17s-17-7.6-17-17 7.6-17 17-17 17 7.6 17 17" fill="#eb5e40"/><path clip-path="url(#S)" d="m34.6 15c0 9.4-7.6 17-17 17s-17-7.6-17-17 7.6-17 17-17 17 7.6 17 17" fill="#ec6043"/><path clip-path="url(#T)" d="m34.6 14.9c0 9.4-7.6 16.9-16.9 16.9-9.4 0-16.9-7.6-16.9-16.9-.1-9.3 7.5-16.9 16.8-16.9 9.4 0 17 7.6 17 16.9" fill="#ec6043"/><path clip-path="url(#U)" d="m34.5 14.9c0 9.3-7.6 16.9-16.9 16.9s-16.9-7.5-16.9-16.9c0-9.3 7.6-16.9 16.9-16.9s16.9 7.6 16.9 16.9" fill="#ec6345"/><path clip-path="url(#V)" d="m34.5 14.9c0 9.3-7.6 16.9-16.9 16.9s-16.9-7.6-16.9-16.9 7.6-16.9 16.9-16.9 16.9 7.6 16.9 16.9" fill="#ec6345"/><path clip-path="url(#W)" d="m34.5 14.9c0 9.3-7.6 16.9-16.9 16.9s-16.9-7.6-16.9-16.9c0-9.4 7.6-16.9 16.9-16.9s16.9 7.5 16.9 16.9" fill="#ec6647"/><path clip-path="url(#X)" d="m34.4 14.8c0 9.3-7.5 16.8-16.8 16.8s-16.8-7.5-16.8-16.8c-.1-9.3 7.5-16.8 16.8-16.8s16.8 7.5 16.8 16.8" fill="#ec6647"/><path clip-path="url(#Y)" d="m34.4 14.8c0 9.3-7.5 16.8-16.8 16.8s-16.8-7.5-16.8-16.8c-.1-9.3 7.5-16.8 16.8-16.8s16.8 7.5 16.8 16.8" fill="#ed6849"/><path clip-path="url(#Z)" d="m34.3 14.8c0 9.3-7.5 16.8-16.8 16.8s-16.8-7.5-16.8-16.8c.1-9.3 7.6-16.8 16.9-16.8 9.2 0 16.7 7.5 16.7 16.8" fill="#ed6b4b"/><path clip-path="url(#aa)" d="m34.3 14.8c0 9.3-7.5 16.8-16.8 16.8-9.2-.1-16.7-7.6-16.7-16.8 0-9.3 7.5-16.8 16.7-16.8 9.3 0 16.8 7.5 16.8 16.8" fill="#ed6b4b"/><path clip-path="url(#ab)" d="m34.3 14.7c0 9.2-7.5 16.7-16.7 16.7-9.3.1-16.8-7.4-16.8-16.7 0-9.2 7.5-16.7 16.7-16.7 9.3 0 16.8 7.5 16.8 16.7" fill="#ed6d4e"/><path clip-path="url(#ac)" d="m34.2 14.7c0 9.2-7.5 16.7-16.7 16.7s-16.7-7.4-16.7-16.7c0-9.2 7.5-16.7 16.7-16.7s16.7 7.5 16.7 16.7" fill="#ed6d4e"/><path clip-path="url(#ad)" d="m34.2 14.7c0 9.2-7.5 16.7-16.7 16.7s-16.7-7.5-16.7-16.7 7.5-16.7 16.7-16.7 16.7 7.5 16.7 16.7" fill="#ee7050"/><path clip-path="url(#ae)" d="m34.2 14.7c0 9.2-7.5 16.7-16.7 16.7s-16.7-7.5-16.7-16.7 7.5-16.7 16.7-16.7 16.7 7.5 16.7 16.7" fill="#ee7050"/><path clip-path="url(#af)" d="m34.1 14.7c0 9.2-7.4 16.6-16.6 16.6s-16.6-7.5-16.6-16.6c0-9.2 7.4-16.7 16.6-16.7s16.6 7.5 16.6 16.7" fill="#ee7252"/><path clip-path="url(#ag)" d="m34.1 14.6c0 9.2-7.4 16.6-16.6 16.6s-16.6-7.4-16.6-16.6c0-9.1 7.4-16.6 16.6-16.6s16.6 7.5 16.6 16.6" fill="#ee7252"/><path clip-path="url(#ah)" d="m34.1 14.6c0 9.2-7.4 16.6-16.6 16.6s-16.6-7.4-16.6-16.6 7.4-16.6 16.6-16.6c9.1 0 16.6 7.4 16.6 16.6" fill="#ee7555"/><path clip-path="url(#ai)" d="m34 14.6c0 9.1-7.4 16.6-16.6 16.6-9.1 0-16.6-7.4-16.6-16.6.1-9.2 7.5-16.6 16.7-16.6 9.1 0 16.5 7.4 16.5 16.6" fill="#ef7757"/><path clip-path="url(#aj)" d="m34 14.6c0 9.1-7.4 16.5-16.5 16.5s-16.5-7.4-16.5-16.5c-.1-9.2 7.3-16.6 16.5-16.6 9.1 0 16.5 7.4 16.5 16.6" fill="#ef7757"/><path clip-path="url(#ak)" d="m33.9 14.5c0 9.1-7.4 16.5-16.5 16.5s-16.5-7.3-16.5-16.5c0-9.1 7.4-16.5 16.5-16.5 9.2 0 16.5 7.4 16.5 16.5" fill="#ef7a5a"/><path clip-path="url(#al)" d="m33.9 14.5c0 9.1-7.4 16.5-16.5 16.5s-16.5-7.4-16.5-16.5 7.4-16.5 16.5-16.5 16.5 7.4 16.5 16.5" fill="#ef7a5a"/><path clip-path="url(#am)" d="m33.9 14.5c0 9.1-7.4 16.5-16.5 16.5-9.1-.1-16.4-7.4-16.4-16.5s7.3-16.5 16.4-16.5 16.5 7.4 16.5 16.5" fill="#ef7c5c"/><path clip-path="url(#an)" d="m33.8 14.5c0 9.1-7.4 16.4-16.4 16.4s-16.4-7.4-16.4-16.4c0-9.1 7.3-16.5 16.4-16.5s16.4 7.4 16.4 16.5" fill="#ef7c5c"/><path clip-path="url(#ao)" d="m33.8 14.4c0 9.1-7.3 16.4-16.4 16.4s-16.4-7.3-16.4-16.4c0-9 7.3-16.4 16.4-16.4s16.4 7.4 16.4 16.4" fill="#f07f5e"/><path clip-path="url(#ap)" d="m33.8 14.4c0 9-7.3 16.4-16.4 16.4s-16.4-7.3-16.4-16.4c0-9 7.3-16.4 16.4-16.4 9 0 16.4 7.4 16.4 16.4" fill="#f07f5e"/><path clip-path="url(#aq)" d="m33.7 14.4c0 9-7.3 16.4-16.4 16.4-9-.1-16.3-7.4-16.3-16.4s7.3-16.4 16.4-16.4c9 0 16.3 7.4 16.3 16.4" fill="#f08161"/><path clip-path="url(#ar)" d="m33.7 14.4c0 9-7.3 16.3-16.3 16.3s-16.4-7.3-16.4-16.3 7.4-16.4 16.4-16.4 16.3 7.4 16.3 16.4" fill="#f08161"/><path clip-path="url(#as)" d="m33.7 14.3c0 9-7.3 16.3-16.3 16.3s-16.3-7.3-16.3-16.3 7.3-16.3 16.3-16.3 16.3 7.3 16.3 16.3" fill="#f08363"/><path clip-path="url(#at)" d="m33.6 14.3c0 9-7.3 16.3-16.3 16.3s-16.3-7.3-16.3-16.3c.1-9 7.4-16.3 16.3-16.3 9 0 16.3 7.3 16.3 16.3" fill="#f08363"/><path clip-path="url(#au)" d="m33.6 14.3c0 9-7.3 16.3-16.3 16.3s-16.3-7.3-16.3-16.3c.1-9 7.4-16.3 16.3-16.3 9 0 16.3 7.3 16.3 16.3" fill="#f18666"/><path clip-path="url(#av)" d="m33.6 14.3c0 9-7.3 16.2-16.2 16.2-9 0-16.2-7.3-16.2-16.2-.1-9 7.2-16.3 16.1-16.3 9 0 16.3 7.3 16.3 16.3" fill="#f18868"/><path clip-path="url(#aw)" d="m33.5 14.3c0 8.9-7.3 16.2-16.2 16.2s-16.2-7.3-16.2-16.2 7.3-16.2 16.2-16.2 16.2 7.2 16.2 16.2" fill="#f18868"/><path clip-path="url(#ax)" d="m33.5 14.2c0 8.9-7.2 16.2-16.2 16.2-8.9 0-16.2-7.2-16.2-16.2 0-8.9 7.2-16.2 16.2-16.2 8.9.1 16.2 7.3 16.2 16.2" fill="#f18a6b"/><path clip-path="url(#ay)" d="m33.4 14.2c0 8.9-7.2 16.2-16.2 16.2-8.9 0-16.1-7.2-16.1-16.2 0-8.9 7.2-16.1 16.1-16.1 9 0 16.2 7.2 16.2 16.1" fill="#f18a6b"/><path clip-path="url(#az)" d="m33.4 14.2c0 8.9-7.2 16.1-16.1 16.1s-16.1-7.2-16.1-16.1 7.2-16.1 16.1-16.1 16.1 7.2 16.1 16.1" fill="#f28d6d"/><path clip-path="url(#aA)" d="m33.4 14.2c0 8.9-7.2 16.1-16.1 16.1s-16.1-7.3-16.1-16.1c0-8.9 7.2-16.1 16.1-16.1 8.9 0 16.1 7.2 16.1 16.1" fill="#f28d6d"/><path clip-path="url(#aB)" d="m33.3 14.1c0 8.9-7.2 16.1-16.1 16.1s-16-7.2-16-16.1 7.2-16.1 16.1-16.1 16 7.3 16 16.1" fill="#f28f70"/><path clip-path="url(#aC)" d="m33.3 14.1c0 8.9-7.2 16-16 16-8.9 0-16-7.2-16-16 0-8.9 7.2-16 16-16 8.8 0 16 7.1 16 16" fill="#f28f70"/><path clip-path="url(#aD)" d="m33.3 14.1c0 8.8-7.2 16-16 16s-16-7.2-16-16 7.2-16 16-16c8.8 0 16 7.1 16 16" fill="#f29173"/><path clip-path="url(#aE)" d="m33.2 14.1c0 8.8-7.2 16-16 16s-16-7.2-16-16 7.2-16 16-16 16 7.1 16 16" fill="#f29173"/><path clip-path="url(#aF)" d="m33.2 14c0 8.8-7.2 16-16 16s-16-7.1-16-16c0-8.8 7.2-16 16-16 8.8.1 16 7.2 16 16" fill="#f29475"/><path clip-path="url(#aG)" d="m33.2 14c0 8.8-7.2 16-16 16s-15.9-7.2-15.9-16 7.1-15.9 15.9-15.9 16 7.1 16 15.9" fill="#f29475"/><path clip-path="url(#aH)" d="m33.1 14c0 8.8-7.1 15.9-15.9 15.9s-15.9-7.1-15.9-15.9 7.1-15.9 15.9-15.9 15.9 7.1 15.9 15.9" fill="#f39677"/><path clip-path="url(#aI)" d="m33.1 14c0 8.8-7.1 15.9-15.9 15.9s-15.9-7.2-15.9-15.9c0-8.8 7.1-15.9 15.9-15.9s15.9 7.1 15.9 15.9" fill="#f39677"/><path clip-path="url(#aJ)" d="m33.1 13.9c0 8.8-7.1 15.9-15.9 15.9s-15.9-7.1-15.9-15.9 7.1-15.9 15.9-15.9c8.7.1 15.9 7.2 15.9 15.9" fill="#f3987a"/><path clip-path="url(#aK)" d="m33 13.9c0 8.7-7.1 15.8-15.8 15.8-8.8 0-15.8-7.1-15.8-15.8s7.1-15.8 15.8-15.8 15.8 7.1 15.8 15.8" fill="#f3987a"/><path clip-path="url(#aL)" d="m33 13.9c0 8.7-7.1 15.8-15.8 15.8s-15.8-7.1-15.8-15.8 7.1-15.8 15.8-15.8 15.8 7.1 15.8 15.8" fill="#f39b7c"/><path clip-path="url(#aM)" d="m32.9 13.9c0 8.7-7.1 15.8-15.8 15.8s-15.8-7.1-15.8-15.8 7.1-15.8 15.8-15.8c8.8 0 15.8 7.1 15.8 15.8" fill="#f39b7c"/><path clip-path="url(#aN)" d="m32.9 13.9c0 8.7-7.1 15.8-15.8 15.8s-15.8-7.1-15.8-15.8 7.1-15.8 15.8-15.8 15.8 7 15.8 15.8" fill="#f49d7f"/><path clip-path="url(#aO)" d="m32.9 13.8c0 8.7-7 15.7-15.7 15.7s-15.7-7-15.7-15.7 7-15.7 15.7-15.7c8.6 0 15.7 7 15.7 15.7" fill="#f49d7f"/><path clip-path="url(#aP)" d="m32.8 13.8c0 8.7-7 15.7-15.7 15.7s-15.7-7-15.7-15.7 7-15.7 15.7-15.7 15.7 7 15.7 15.7" fill="#f49f82"/><path clip-path="url(#aQ)" d="m32.8 13.8c0 8.7-7 15.7-15.7 15.7s-15.7-7-15.7-15.7 7-15.7 15.7-15.7c8.7 0 15.7 7 15.7 15.7" fill="#f49f82"/><path clip-path="url(#aR)" d="m32.8 13.8c0 8.7-7 15.7-15.7 15.7-8.6 0-15.7-7-15.7-15.7 0-8.6 7-15.7 15.7-15.7 8.7 0 15.7 7 15.7 15.7" fill="#f4a184"/><path clip-path="url(#aS)" d="m32.7 13.7c0 8.6-7 15.6-15.6 15.6s-15.6-7-15.6-15.6 7-15.6 15.6-15.6 15.6 7 15.6 15.6" fill="#f4a184"/><path clip-path="url(#aT)" d="m32.7 13.7c0 8.6-7 15.6-15.6 15.6s-15.6-7-15.6-15.6 7-15.6 15.6-15.6c8.6 0 15.6 7 15.6 15.6" fill="#f5a387"/><path clip-path="url(#aU)" d="m32.7 13.7c0 8.6-7 15.6-15.6 15.6s-15.6-7-15.6-15.6 7-15.6 15.6-15.6c8.6 0 15.6 7 15.6 15.6" fill="#f5a387"/><path clip-path="url(#aV)" d="m32.6 13.7c0 8.6-7 15.6-15.6 15.6s-15.6-7-15.6-15.6 7-15.6 15.6-15.6c8.7 0 15.6 7 15.6 15.6" fill="#f5a689"/><path clip-path="url(#aW)" d="m32.6 13.6c0 8.6-7 15.5-15.5 15.5-8.6 0-15.5-7-15.5-15.5 0-8.6 7-15.5 15.5-15.5 8.5 0 15.5 7 15.5 15.5" fill="#f5a689"/><path clip-path="url(#aX)" d="m32.5 13.6c0 8.6-6.9 15.5-15.5 15.5s-15.5-6.9-15.5-15.5 7-15.5 15.5-15.5 15.5 6.9 15.5 15.5" fill="#f5a689"/><path clip-path="url(#aY)" d="m32.5 13.6c0 8.6-6.9 15.5-15.5 15.5s-15.5-6.9-15.5-15.5 7-15.5 15.5-15.5c8.6 0 15.5 6.9 15.5 15.5" fill="#f5a88c"/><path clip-path="url(#aZ)" d="m32.5 13.6c0 8.5-6.9 15.4-15.5 15.4s-15.4-6.9-15.4-15.4c0-8.6 6.9-15.5 15.4-15.5s15.5 6.9 15.5 15.5" fill="#f5a88c"/><path clip-path="url(#a0)" d="m32.4 13.5c0 8.6-6.9 15.5-15.4 15.5s-15.4-6.9-15.4-15.5c0-8.5 6.9-15.4 15.4-15.4s15.4 6.9 15.4 15.4" fill="#f5aa8f"/><path clip-path="url(#a1)" d="m32.4 13.5c0 8.5-6.9 15.4-15.4 15.4s-15.4-6.9-15.4-15.4 6.9-15.4 15.4-15.4 15.4 6.9 15.4 15.4" fill="#f5aa8f"/><path clip-path="url(#a2)" d="m32.4 13.5c0 8.5-6.9 15.4-15.4 15.4s-15.4-6.9-15.4-15.4 6.9-15.4 15.4-15.4 15.4 6.9 15.4 15.4" fill="#f6ac91"/><path clip-path="url(#a3)" d="m32.3 13.5c0 8.5-6.9 15.4-15.4 15.4-8.4-.1-15.3-6.9-15.3-15.4s6.9-15.4 15.4-15.4 15.3 6.9 15.3 15.4" fill="#f6ac91"/><path clip-path="url(#a4)" d="m32.3 13.4c0 8.5-6.9 15.3-15.3 15.3-8.5 0-15.3-6.9-15.3-15.3-.1-8.4 6.8-15.3 15.3-15.3 8.4 0 15.3 6.9 15.3 15.3" fill="#f6af94"/><path clip-path="url(#a5)" d="m32.3 13.4c0 8.5-6.9 15.3-15.3 15.3-8.5 0-15.3-6.9-15.3-15.3 0-8.4 6.8-15.3 15.3-15.3 8.4 0 15.3 6.9 15.3 15.3" fill="#f6af94"/><path clip-path="url(#a6)" d="m32.2 13.4c0 8.4-6.8 15.3-15.3 15.3-8.4 0-15.3-6.8-15.3-15.3.1-8.4 6.9-15.3 15.3-15.3 8.5 0 15.3 6.9 15.3 15.3" fill="#f6b197"/><path clip-path="url(#a7)" d="m32.2 13.4c0 8.4-6.8 15.3-15.3 15.3-8.4 0-15.3-6.8-15.3-15.3.1-8.4 6.9-15.3 15.3-15.3 8.5 0 15.3 6.9 15.3 15.3" fill="#f6b197"/><path clip-path="url(#a8)" d="m32.2 13.4c0 8.4-6.8 15.2-15.2 15.2s-15.3-6.8-15.3-15.2 6.8-15.2 15.2-15.2 15.3 6.7 15.3 15.2" fill="#f7b399"/><path clip-path="url(#a9)" d="m32.1 13.3c0 8.4-6.8 15.2-15.2 15.2s-15.2-6.8-15.2-15.2 6.8-15.2 15.2-15.2 15.2 6.8 15.2 15.2" fill="#f7b399"/><path clip-path="url(#ba)" d="m32.1 13.3c0 8.4-6.8 15.2-15.2 15.2s-15.2-6.8-15.2-15.2 6.8-15.2 15.2-15.2 15.2 6.8 15.2 15.2" fill="#f7b399"/><path clip-path="url(#bb)" d="m32 13.3c0 8.4-6.8 15.2-15.2 15.2s-15.1-6.8-15.1-15.2 6.8-15.1 15.1-15.1 15.2 6.7 15.2 15.1" fill="#f7b59c"/><path clip-path="url(#bc)" d="m32 13.3c0 8.4-6.8 15.1-15.1 15.1-8.4 0-15.1-6.8-15.1-15.1 0-8.4 6.8-15.1 15.1-15.1 8.3-.1 15.1 6.7 15.1 15.1" fill="#f7b59c"/><path clip-path="url(#bd)" d="m32 13.2c0 8.3-6.8 15.1-15.1 15.1s-15.1-6.8-15.1-15.1 6.8-15.1 15.1-15.1 15.1 6.8 15.1 15.1" fill="#f7b79f"/><path clip-path="url(#be)" d="m31.9 13.2c0 8.3-6.7 15.1-15.1 15.1-8.3 0-15.1-6.7-15.1-15.1 0-8.3 6.7-15.1 15.1-15.1 8.4 0 15.1 6.8 15.1 15.1" fill="#f7b79f"/><path clip-path="url(#bf)" d="m31.9 13.2c0 8.3-6.7 15-15 15s-15-6.7-15-15 6.7-15 15-15c8.3-.1 15 6.7 15 15" fill="#f8baa2"/><path clip-path="url(#bg)" d="m31.9 13.2c0 8.3-6.7 15-15 15s-15-6.7-15-15 6.7-15 15-15c8.2-.1 15 6.7 15 15" fill="#f8baa2"/><path clip-path="url(#bh)" d="m31.8 13.1c0 8.3-6.7 15-15 15s-15-6.7-15-15 6.7-15 15-15c8.3 0 15 6.8 15 15" fill="#f8baa2"/><path clip-path="url(#bi)" d="m31.8 13.1c0 8.3-6.7 15-15 15s-15-6.7-15-15 6.7-15 15-15 15 6.8 15 15" fill="#f8bca4"/><path clip-path="url(#bj)" d="m31.8 13.1c0 8.3-6.7 14.9-14.9 14.9s-15-6.6-15-14.9 6.7-14.9 14.9-14.9 15 6.6 15 14.9" fill="#f8bca4"/><path clip-path="url(#bk)" d="m31.7 13.1c0 8.2-6.7 14.9-14.9 14.9s-14.9-6.7-14.9-14.9 6.7-14.9 14.9-14.9 14.9 6.6 14.9 14.9" fill="#f8bea7"/><path clip-path="url(#bl)" d="m31.7 13c0 8.2-6.7 14.9-14.9 14.9s-14.9-6.6-14.9-14.9c0-8.2 6.7-14.9 14.9-14.9 8.2.1 14.9 6.7 14.9 14.9" fill="#f8bea7"/><path clip-path="url(#bm)" d="m31.6 13c0 8.2-6.7 14.9-14.9 14.9s-14.8-6.7-14.8-14.9 6.7-14.9 14.9-14.9 14.8 6.7 14.8 14.9" fill="#f8c0aa"/><path clip-path="url(#bn)" d="m31.6 13c0 8.2-6.6 14.8-14.8 14.8s-14.9-6.6-14.9-14.8 6.6-14.8 14.8-14.8c8.3 0 14.9 6.6 14.9 14.8" fill="#f8c0aa"/><path clip-path="url(#bo)" d="m31.6 13c0 8.2-6.6 14.8-14.8 14.8s-14.9-6.6-14.9-14.8 6.6-14.8 14.8-14.8 14.9 6.6 14.9 14.8" fill="#f8c0aa"/><path clip-path="url(#bp)" d="m31.5 13c0 8.2-6.6 14.8-14.8 14.8-8.1-.1-14.7-6.7-14.7-14.8 0-8.2 6.6-14.8 14.7-14.8 8.2 0 14.8 6.6 14.8 14.8" fill="#f9c2ac"/><path clip-path="url(#bq)" d="m31.5 12.9c0 8.2-6.6 14.8-14.8 14.8-8.1 0-14.7-6.6-14.7-14.8 0-8.1 6.6-14.7 14.7-14.7 8.2 0 14.8 6.6 14.8 14.7" fill="#f9c2ac"/><path clip-path="url(#br)" d="m31.5 12.9c0 8.1-6.6 14.7-14.7 14.7-8.2 0-14.8-6.6-14.8-14.7s6.6-14.7 14.7-14.7c8.2 0 14.8 6.6 14.8 14.7" fill="#f9c4af"/><path clip-path="url(#bs)" d="m31.4 12.9c0 8.1-6.6 14.7-14.7 14.7s-14.7-6.6-14.7-14.7 6.6-14.7 14.7-14.7 14.7 6.6 14.7 14.7" fill="#f9c4af"/><path clip-path="url(#bt)" d="m31.4 12.9c0 8.1-6.6 14.7-14.7 14.7-8.1-.1-14.7-6.6-14.7-14.7 0-8.2 6.6-14.7 14.7-14.7s14.7 6.5 14.7 14.7" fill="#f9c4af"/><path clip-path="url(#bu)" d="m31.4 12.8c0 8.1-6.6 14.7-14.7 14.7s-14.7-6.6-14.7-14.7 6.6-14.6 14.7-14.6 14.7 6.5 14.7 14.6" fill="#f9c6b2"/><path clip-path="url(#bv)" d="m31.3 12.8c0 8.1-6.6 14.6-14.6 14.6s-14.7-6.5-14.7-14.6 6.6-14.6 14.7-14.6 14.6 6.5 14.6 14.6" fill="#f9c6b2"/><path clip-path="url(#bw)" d="m31.3 12.8c0 8.1-6.5 14.6-14.6 14.6s-14.6-6.5-14.6-14.6 6.5-14.6 14.6-14.6c8 0 14.6 6.5 14.6 14.6" fill="#f9c8b4"/><path clip-path="url(#bx)" d="m31.3 12.8c0 8.1-6.5 14.6-14.6 14.6s-14.6-6.6-14.6-14.6c0-8.1 6.5-14.6 14.6-14.6s14.6 6.5 14.6 14.6" fill="#f9c8b4"/><path clip-path="url(#by)" d="m31.2 12.7c0 8-6.5 14.6-14.6 14.6-8 0-14.6-6.5-14.6-14.6 0-8 6.5-14.6 14.6-14.6 8.1.1 14.6 6.6 14.6 14.6" fill="#f9c8b4"/><path clip-path="url(#bz)" d="m31.2 12.7c0 8-6.5 14.5-14.5 14.5s-14.5-6.5-14.5-14.5 6.5-14.5 14.5-14.5 14.5 6.5 14.5 14.5" fill="#facbb7"/><path clip-path="url(#bA)" d="m31.1 12.7c0 8-6.5 14.5-14.5 14.5s-14.5-6.5-14.5-14.5 6.5-14.5 14.5-14.5 14.5 6.5 14.5 14.5" fill="#facbb7"/><path clip-path="url(#bB)" d="m31.1 12.7c0 8-6.5 14.5-14.5 14.5s-14.5-6.5-14.5-14.5 6.5-14.5 14.5-14.5 14.5 6.5 14.5 14.5" fill="#facdba"/><path clip-path="url(#bC)" d="m31.1 12.6c0 8-6.5 14.5-14.5 14.5s-14.4-6.5-14.4-14.5 6.5-14.5 14.5-14.5 14.4 6.6 14.4 14.5" fill="#facdba"/><path clip-path="url(#bD)" d="m31 12.6c0 8-6.5 14.4-14.4 14.4-8 0-14.4-6.5-14.4-14.4 0-8 6.5-14.4 14.4-14.4 8 0 14.4 6.5 14.4 14.4" fill="#facdba"/><path clip-path="url(#bE)" d="m31 12.6c0 8-6.5 14.4-14.4 14.4-8 0-14.4-6.5-14.4-14.4 0-8 6.4-14.4 14.4-14.4s14.4 6.4 14.4 14.4" fill="#facfbc"/><path clip-path="url(#bF)" d="m31 12.6c0 7.9-6.5 14.4-14.4 14.4s-14.4-6.5-14.4-14.4 6.4-14.4 14.4-14.4 14.4 6.4 14.4 14.4" fill="#facfbc"/><path clip-path="url(#bG)" d="m30.9 12.6c0 7.9-6.4 14.4-14.4 14.4-7.9 0-14.4-6.4-14.4-14.4 0-7.9 6.4-14.4 14.4-14.4s14.4 6.4 14.4 14.4" fill="#facfbc"/><path clip-path="url(#bH)" d="m30.9 12.5c0 7.9-6.4 14.3-14.3 14.3s-14.4-6.4-14.4-14.3 6.4-14.3 14.3-14.3 14.4 6.4 14.4 14.3" fill="#fbd1bf"/><path clip-path="url(#bI)" d="m30.9 12.5c0 7.9-6.4 14.3-14.3 14.3s-14.3-6.4-14.3-14.3 6.4-14.3 14.3-14.3 14.3 6.4 14.3 14.3" fill="#fbd1bf"/><path clip-path="url(#bJ)" d="m30.8 12.5c0 7.9-6.4 14.3-14.3 14.3s-14.3-6.4-14.3-14.3 6.4-14.3 14.3-14.3 14.3 6.4 14.3 14.3" fill="#fbd3c1"/><path clip-path="url(#bK)" d="m30.8 12.5c0 7.9-6.4 14.3-14.3 14.3s-14.2-6.5-14.2-14.3c0-7.9 6.4-14.3 14.3-14.3s14.2 6.4 14.2 14.3" fill="#fbd3c1"/><path clip-path="url(#bL)" d="m30.7 12.4c0 7.9-6.4 14.2-14.2 14.2-7.9 0-14.2-6.4-14.2-14.2 0-7.9 6.4-14.2 14.2-14.2 7.9 0 14.2 6.4 14.2 14.2" fill="#fbd3c1"/><path clip-path="url(#bM)" d="m30.7 12.4c0 7.8-6.4 14.2-14.2 14.2s-14.2-6.4-14.2-14.2 6.4-14.2 14.2-14.2c7.9 0 14.2 6.4 14.2 14.2" fill="#fbd5c4"/><path clip-path="url(#bN)" d="m30.7 12.4c0 7.8-6.3 14.2-14.2 14.2-7.8 0-14.2-6.3-14.2-14.2 0-7.8 6.3-14.2 14.2-14.2 7.8 0 14.2 6.4 14.2 14.2" fill="#fbd5c4"/><path clip-path="url(#bO)" d="m30.6 12.4c0 7.8-6.3 14.2-14.2 14.2s-14.1-6.4-14.1-14.2 6.3-14.1 14.2-14.1 14.1 6.3 14.1 14.1" fill="#fbd5c4"/><path clip-path="url(#bP)" d="m30.6 12.3c0 7.8-6.3 14.1-14.1 14.1s-14.1-6.3-14.1-14.1 6.3-14.1 14.1-14.1 14.1 6.3 14.1 14.1" fill="#fbd7c7"/><path clip-path="url(#bQ)" d="m30.6 12.3c0 7.8-6.3 14.1-14.1 14.1s-14.1-6.3-14.1-14.1 6.3-14.1 14.1-14.1 14.1 6.3 14.1 14.1" fill="#fbd7c7"/><path clip-path="url(#bR)" d="m30.5 12.3c0 7.8-6.3 14.1-14.1 14.1s-14.1-6.3-14.1-14.1 6.3-14.1 14.1-14.1 14.1 6.3 14.1 14.1" fill="#fbd7c7"/><path clip-path="url(#bS)" d="m30.5 12.3c0 7.8-6.3 14-14 14-7.8 0-14-6.3-14-14 0-7.8 6.3-14 14-14 7.7-.1 14 6.2 14 14" fill="#fcd9c9"/><path clip-path="url(#bT)" d="m30.5 12.2c0 7.7-6.3 14-14 14s-14-6.3-14-14 6.3-14 14-14 14 6.3 14 14" fill="#fcd9c9"/><path clip-path="url(#bU)" d="m30.4 12.2c0 7.7-6.3 14-14 14s-14-6.3-14-14 6.3-14 14-14c7.8 0 14 6.3 14 14" fill="#fcd9c9"/><path clip-path="url(#bV)" d="m30.4 12.2c0 7.7-6.3 14-14 14s-14-6.3-14-14 6.3-14 14-14 14 6.3 14 14" fill="#fcdbcc"/><path clip-path="url(#bW)" d="m30.4 12.2c0 7.7-6.2 13.9-13.9 13.9s-14-6.2-14-13.9 6.2-13.9 13.9-13.9 14 6.2 14 13.9" fill="#fcdbcc"/><path clip-path="url(#bX)" d="m30.3 12.2c0 7.7-6.2 13.9-13.9 13.9s-13.9-6.2-13.9-13.9 6.2-13.9 13.9-13.9c7.7-.1 13.9 6.2 13.9 13.9" fill="#fcdbcc"/><path clip-path="url(#bY)" d="m30.3 12.1c0 7.7-6.2 13.9-13.9 13.9s-13.9-6.2-13.9-13.9 6.2-13.9 13.9-13.9 13.9 6.3 13.9 13.9" fill="#fcddcf"/><path clip-path="url(#bZ)" d="m30.2 12.1c0 7.7-6.2 13.9-13.8 13.9-7.7 0-13.9-6.2-13.9-13.9s6.2-13.9 13.9-13.9c7.6 0 13.8 6.2 13.8 13.9" fill="#fcddcf"/><path clip-path="url(#b0)" d="m30.2 12.1c0 7.6-6.2 13.8-13.8 13.8s-13.8-6.2-13.8-13.8 6.2-13.8 13.8-13.8c7.6-.1 13.8 6.1 13.8 13.8" fill="#fcddcf"/><path clip-path="url(#b1)" d="m30.2 12.1c0 7.6-6.2 13.8-13.8 13.8s-13.8-6.2-13.8-13.8 6.2-13.8 13.8-13.8c7.6-.1 13.8 6.1 13.8 13.8" fill="#fcdfd1"/><path clip-path="url(#b2)" d="m30.1 12c0 7.6-6.2 13.8-13.8 13.8s-13.7-6.1-13.7-13.8c0-7.6 6.2-13.8 13.8-13.8s13.7 6.2 13.7 13.8" fill="#fcdfd1"/><path clip-path="url(#b3)" d="m30.1 12c0 7.6-6.2 13.8-13.8 13.8s-13.7-6.2-13.7-13.8 6.2-13.8 13.8-13.8 13.7 6.2 13.7 13.8" fill="#fcdfd1"/><path clip-path="url(#b4)" d="m30.1 12c0 7.6-6.2 13.7-13.7 13.7-7.7 0-13.8-6.1-13.8-13.7s6.2-13.7 13.7-13.7c7.6-.1 13.8 6.1 13.8 13.7" fill="#fce1d4"/><path clip-path="url(#b5)" d="m30 12c0 7.6-6.1 13.7-13.7 13.7s-13.7-6.2-13.7-13.7c0-7.6 6.1-13.7 13.7-13.7s13.7 6.1 13.7 13.7" fill="#fce1d4"/><path clip-path="url(#b6)" d="m30 11.9c0 7.6-6.1 13.7-13.7 13.7s-13.7-6.1-13.7-13.7 6.1-13.7 13.7-13.7 13.7 6.2 13.7 13.7" fill="#fce1d4"/><path clip-path="url(#b7)" d="m30 11.9c0 7.5-6.1 13.7-13.7 13.7-7.5 0-13.7-6.1-13.7-13.7 0-7.5 6.1-13.7 13.7-13.7 7.5.1 13.7 6.2 13.7 13.7" fill="#fce3d7"/><path clip-path="url(#b8)" d="m29.9 11.9c0 7.5-6.1 13.6-13.6 13.6s-13.6-6.1-13.6-13.6 6.1-13.6 13.6-13.6 13.6 6.1 13.6 13.6" fill="#fce3d7"/><path clip-path="url(#b9)" d="m29.9 11.9c0 7.5-6.1 13.6-13.6 13.6s-13.6-6.1-13.6-13.6 6.1-13.6 13.6-13.6 13.6 6.1 13.6 13.6" fill="#fce3d7"/><path clip-path="url(#ca)" d="m29.8 11.8c0 7.5-6.1 13.6-13.6 13.6s-13.6-6.1-13.6-13.6 6.1-13.6 13.6-13.6c7.6.1 13.6 6.1 13.6 13.6" fill="#fce4da"/><path clip-path="url(#cb)" d="m29.8 11.8c0 7.5-6.1 13.6-13.6 13.6s-13.6-6.1-13.6-13.6 6.1-13.6 13.6-13.6c7.5.1 13.6 6.1 13.6 13.6" fill="#fce4da"/><path clip-path="url(#cc)" d="m29.8 11.8c0 7.5-6.1 13.5-13.5 13.5-7.5 0-13.5-6.1-13.5-13.5 0-7.5 6.1-13.5 13.5-13.5s13.5 6 13.5 13.5" fill="#fce4da"/><path clip-path="url(#cd)" d="m29.7 11.8c0 7.5-6 13.5-13.5 13.5s-13.5-6-13.5-13.5 6-13.5 13.5-13.5 13.5 6 13.5 13.5" fill="#fde6dc"/><path clip-path="url(#ce)" d="m29.7 11.8c0 7.4-6 13.5-13.5 13.5-7.4 0-13.5-6-13.5-13.5 0-7.4 6-13.5 13.5-13.5s13.5 6 13.5 13.5" fill="#fde6dc"/><path clip-path="url(#cf)" d="m29.7 11.7c0 7.4-6 13.5-13.5 13.5s-13.5-6-13.5-13.5c0-7.4 6-13.5 13.5-13.5s13.5 6.1 13.5 13.5" fill="#fde6dc"/><path clip-path="url(#cg)" d="m29.6 11.7c0 7.4-6 13.4-13.4 13.4s-13.4-6-13.4-13.4 6-13.4 13.4-13.4 13.4 6 13.4 13.4" fill="#fde6dc"/><path clip-path="url(#ch)" d="m29.6 11.7c0 7.4-6 13.4-13.4 13.4s-13.4-6-13.4-13.4 6-13.4 13.4-13.4 13.4 6 13.4 13.4" fill="#fde8df"/><path clip-path="url(#ci)" d="m29.6 11.7c0 7.4-6 13.4-13.4 13.4-7.4-.1-13.4-6.1-13.4-13.4 0-7.4 6-13.4 13.4-13.4 7.4 0 13.4 6 13.4 13.4" fill="#fde8df"/><path clip-path="url(#cj)" d="m29.5 11.6c0 7.4-6 13.4-13.4 13.4-7.3 0-13.3-6-13.3-13.4s6-13.4 13.4-13.4c7.3.1 13.3 6.1 13.3 13.4" fill="#fde8df"/><path clip-path="url(#ck)" d="m29.5 11.6c0 7.4-6 13.3-13.3 13.3s-13.4-5.9-13.4-13.3 6-13.3 13.3-13.3 13.4 5.9 13.4 13.3" fill="#fdeae2"/><path clip-path="url(#cl)" d="m29.5 11.6c0 7.3-6 13.3-13.3 13.3s-13.3-6-13.3-13.3 6-13.3 13.3-13.3c7.3 0 13.3 5.9 13.3 13.3" fill="#fdeae2"/><path clip-path="url(#cm)" d="m29.4 11.6c0 7.3-5.9 13.3-13.3 13.3-7.3 0-13.3-5.9-13.3-13.3 0-7.3 5.9-13.3 13.3-13.3 7.4 0 13.3 5.9 13.3 13.3" fill="#fdeae2"/><path clip-path="url(#cn)" d="m29.4 11.5c0 7.3-5.9 13.3-13.3 13.3-7.3 0-13.3-5.9-13.3-13.3 0-7.3 5.9-13.3 13.3-13.3 7.3.1 13.3 6 13.3 13.3" fill="#fdeae2"/><path clip-path="url(#co)" d="m29.3 11.5c0 7.3-5.9 13.2-13.2 13.2s-13.2-5.9-13.2-13.2 5.9-13.2 13.2-13.2 13.2 5.9 13.2 13.2" fill="#fdece4"/><path clip-path="url(#cp)" d="m29.3 11.5c0 7.3-5.9 13.2-13.2 13.2s-13.2-5.9-13.2-13.2 5.9-13.2 13.2-13.2 13.2 5.9 13.2 13.2" fill="#fdece4"/><path clip-path="url(#cq)" d="m29.3 11.5c0 7.3-5.9 13.2-13.2 13.2s-13.2-5.9-13.2-13.2 5.9-13.2 13.2-13.2 13.2 5.9 13.2 13.2" fill="#fdece4"/><path clip-path="url(#cr)" d="m29.2 11.4c0 7.3-5.9 13.2-13.2 13.2s-13.1-5.9-13.1-13.2 5.9-13.2 13.2-13.2 13.1 6 13.1 13.2" fill="#fdece4"/><path clip-path="url(#cs)" d="m29.2 11.4c0 7.2-5.9 13.1-13.1 13.1-7.3 0-13.1-5.8-13.1-13.1 0-7.2 5.8-13.1 13.1-13.1 7.2 0 13.1 5.9 13.1 13.1" fill="#fdeee7"/><path clip-path="url(#ct)" d="m29.2 11.4c0 7.2-5.9 13.1-13.1 13.1-7.3 0-13.1-5.9-13.1-13.1s5.8-13.1 13.1-13.1c7.2 0 13.1 5.9 13.1 13.1" fill="#fdeee7"/><path clip-path="url(#cu)" d="m29.1 11.4c0 7.2-5.9 13.1-13.1 13.1-7.2-.1-13-5.9-13-13.1s5.8-13.1 13.1-13.1c7.2 0 13 5.9 13 13.1" fill="#fdeee7"/><path clip-path="url(#cv)" d="m29.1 11.4c0 7.2-5.8 13-13 13s-13-5.8-13-13 5.8-13 13-13c7.2-.1 13 5.7 13 13" fill="#fdeee7"/><path clip-path="url(#cw)" d="m29.1 11.3c0 7.2-5.8 13-13 13s-13-5.8-13-13 5.8-13 13-13c7.1 0 13 5.8 13 13" fill="#fef0ea"/><path clip-path="url(#cx)" d="m29 11.3c0 7.2-5.8 13-13 13s-13-5.8-13-13 5.8-13 13-13 13 5.8 13 13" fill="#fef0ea"/><path clip-path="url(#cy)" d="m29 11.3c0 7.2-5.8 13-13 13s-13-5.8-13-13 5.8-13 13-13 13 5.8 13 13" fill="#fef0ea"/><path clip-path="url(#cz)" d="m29 11.3c0 7.2-5.8 12.9-12.9 12.9s-12.9-5.8-12.9-12.9c-.1-7.2 5.7-13 12.8-13 7.2 0 13 5.8 13 13" fill="#fef0ea"/><path clip-path="url(#cA)" d="m28.9 11.2c0 7.1-5.8 12.9-12.9 12.9s-12.9-5.8-12.9-12.9 5.8-12.9 12.9-12.9 12.9 5.8 12.9 12.9" fill="#fef2ec"/><path clip-path="url(#cB)" d="m28.9 11.2c0 7.1-5.8 12.9-12.9 12.9s-12.9-5.8-12.9-12.9 5.8-12.9 12.9-12.9 12.9 5.8 12.9 12.9" fill="#fef2ec"/><path clip-path="url(#cC)" d="m28.8 11.2c0 7.1-5.8 12.9-12.9 12.9s-12.9-5.8-12.9-12.9c.1-7.1 5.9-12.9 13-12.9s12.8 5.8 12.8 12.9" fill="#fef2ec"/><path clip-path="url(#cD)" d="m28.8 11.2c0 7.1-5.7 12.8-12.8 12.8s-12.9-5.7-12.9-12.8 5.8-12.9 12.9-12.9 12.8 5.8 12.8 12.9" fill="#fef2ec"/><path clip-path="url(#cE)" d="m28.8 11.1c0 7.1-5.8 12.9-12.8 12.9-7.1 0-12.9-5.8-12.9-12.9 0-7 5.8-12.8 12.9-12.8 7 0 12.8 5.8 12.8 12.8" fill="#fef4ef"/><path clip-path="url(#cF)" d="m28.7 11.1c0 7.1-5.7 12.8-12.8 12.8s-12.8-5.7-12.8-12.8 5.7-12.8 12.8-12.8 12.8 5.8 12.8 12.8" fill="#fef4ef"/><path clip-path="url(#cG)" d="m28.7 11.1c0 7.1-5.7 12.8-12.8 12.8s-12.8-5.7-12.8-12.8c.1-7.1 5.8-12.8 12.8-12.8 7.1 0 12.8 5.7 12.8 12.8" fill="#fef4ef"/><path clip-path="url(#cH)" d="m28.7 11.1c0 7-5.7 12.7-12.7 12.7s-12.7-5.7-12.7-12.7 5.7-12.7 12.7-12.7c7-.1 12.7 5.6 12.7 12.7" fill="#fef4ef"/><path clip-path="url(#cI)" d="m28.6 11c0 7-5.7 12.7-12.7 12.7s-12.7-5.7-12.7-12.7 5.7-12.7 12.7-12.7 12.7 5.7 12.7 12.7" fill="#fef4ef"/><path clip-path="url(#cJ)" d="m28.6 11c0 7-5.7 12.7-12.7 12.7s-12.7-5.7-12.7-12.7 5.7-12.7 12.7-12.7 12.7 5.7 12.7 12.7" fill="#fef6f2"/><path clip-path="url(#cK)" d="m28.6 11c0 7-5.7 12.7-12.7 12.7s-12.7-5.7-12.7-12.7 5.7-12.7 12.7-12.7 12.7 5.7 12.7 12.7" fill="#fef6f2"/><path clip-path="url(#cL)" d="m28.5 11c0 7-5.7 12.6-12.6 12.6-7 0-12.7-5.6-12.7-12.6s5.7-12.6 12.6-12.6c7.1-.1 12.7 5.6 12.7 12.6" fill="#fef6f2"/><path clip-path="url(#cM)" d="m28.5 11c0 7-5.6 12.6-12.6 12.6s-12.6-5.6-12.6-12.6 5.6-12.6 12.6-12.6c6.9-.1 12.6 5.6 12.6 12.6" fill="#fef6f2"/><path clip-path="url(#cN)" d="m28.4 10.9c0 7-5.6 12.6-12.6 12.6s-12.6-5.6-12.6-12.6 5.6-12.6 12.6-12.6 12.6 5.7 12.6 12.6" fill="#fef6f2"/><path clip-path="url(#cO)" d="m28.4 10.9c0 6.9-5.6 12.6-12.6 12.6s-12.5-5.7-12.5-12.6 5.6-12.6 12.5-12.6 12.6 5.7 12.6 12.6" fill="#fef7f4"/><path clip-path="url(#cP)" d="m28.4 10.9c0 6.9-5.6 12.5-12.5 12.5s-12.5-5.6-12.5-12.5c-.1-6.9 5.5-12.6 12.4-12.6 7 0 12.6 5.7 12.6 12.6" fill="#fef7f4"/><path clip-path="url(#cQ)" d="m28.3 10.9c0 6.9-5.6 12.5-12.5 12.5s-12.5-5.6-12.5-12.5 5.6-12.5 12.5-12.5 12.5 5.5 12.5 12.5" fill="#fef7f4"/><path clip-path="url(#cR)" d="m28.3 10.8c0 6.9-5.6 12.5-12.5 12.5s-12.5-5.6-12.5-12.5 5.6-12.5 12.5-12.5 12.5 5.6 12.5 12.5" fill="#fef7f4"/><path clip-path="url(#cS)" d="m28.3 10.8c0 6.9-5.6 12.5-12.5 12.5s-12.5-5.6-12.5-12.5 5.6-12.5 12.5-12.5c6.9.1 12.5 5.6 12.5 12.5" fill="#fef7f4"/><path clip-path="url(#cT)" d="m28.2 10.8c0 6.9-5.6 12.4-12.4 12.4-6.9 0-12.4-5.6-12.4-12.4 0-6.9 5.6-12.4 12.4-12.4 6.9 0 12.4 5.5 12.4 12.4" fill="#fef7f4"/><path clip-path="url(#cU)" d="m28.2 10.8c0 6.9-5.6 12.4-12.4 12.4-6.9 0-12.4-5.6-12.4-12.4 0-6.9 5.6-12.4 12.4-12.4s12.4 5.5 12.4 12.4" fill="#fff9f7"/><path clip-path="url(#cV)" d="m28.2 10.7c0 6.8-5.5 12.4-12.4 12.4-6.8 0-12.4-5.5-12.4-12.4 0-6.8 5.5-12.4 12.4-12.4 6.8.1 12.4 5.6 12.4 12.4" fill="#fff9f7"/><path clip-path="url(#cW)" d="m28.1 10.7c0 6.8-5.5 12.4-12.4 12.4-6.8 0-12.4-5.5-12.4-12.4 0-6.8 5.5-12.4 12.4-12.4 6.9.1 12.4 5.6 12.4 12.4" fill="#fff9f7"/><path clip-path="url(#cX)" d="m28.1 10.7c0 6.8-5.5 12.3-12.3 12.3-6.9 0-12.4-5.5-12.4-12.3s5.5-12.3 12.3-12.3c6.9 0 12.4 5.5 12.4 12.3" fill="#fff9f7"/><path clip-path="url(#cY)" d="m28.1 10.7c0 6.8-5.5 12.3-12.3 12.3s-12.4-5.5-12.4-12.3 5.6-12.3 12.3-12.3c6.8 0 12.4 5.5 12.4 12.3" fill="#fff9f7"/><path clip-path="url(#cZ)" d="m28 10.6c0 6.8-5.5 12.3-12.3 12.3-6.7 0-12.2-5.5-12.2-12.3 0-6.7 5.5-12.2 12.2-12.2 6.8 0 12.3 5.5 12.3 12.2" fill="#fff9f7"/><path clip-path="url(#c0)" d="m28 10.6c0 6.8-5.5 12.3-12.3 12.3-6.7 0-12.2-5.5-12.2-12.3 0-6.7 5.5-12.2 12.2-12.2 6.8 0 12.3 5.5 12.3 12.2" fill="#fffbfa"/><path clip-path="url(#c1)" d="m27.9 10.6c0 6.8-5.5 12.2-12.2 12.2s-12.2-5.4-12.2-12.2 5.5-12.2 12.2-12.2c6.8 0 12.2 5.4 12.2 12.2" fill="#fffbfa"/><path clip-path="url(#c2)" d="m27.9 10.6c0 6.7-5.5 12.2-12.2 12.2s-12.2-5.5-12.2-12.2c0-6.8 5.5-12.2 12.2-12.2s12.2 5.4 12.2 12.2" fill="#fffbfa"/><path clip-path="url(#c3)" d="m27.9 10.6c0 6.7-5.5 12.2-12.2 12.2-6.7-.1-12.2-5.5-12.2-12.2 0-6.8 5.5-12.2 12.2-12.2s12.2 5.4 12.2 12.2" fill="#fffbfa"/><path clip-path="url(#c4)" d="m27.8 10.5c0 6.7-5.4 12.2-12.2 12.2s-12.1-5.5-12.1-12.2 5.5-12.1 12.2-12.1 12.1 5.4 12.1 12.1" fill="#fffbfa"/><path clip-path="url(#c5)" d="m27.8 10.5c0 6.7-5.4 12.1-12.1 12.1s-12.2-5.4-12.2-12.1 5.5-12.1 12.2-12.1 12.1 5.4 12.1 12.1" fill="#fffbfa"/><path clip-path="url(#c6)" d="m27.8 10.5c0 6.7-5.4 12.1-12.1 12.1s-12.1-5.4-12.1-12.1 5.4-12.1 12.1-12.1c6.6 0 12.1 5.4 12.1 12.1" fill="#fffbfa"/><path clip-path="url(#c7)" d="m27.7 10.5c0 6.7-5.4 12.1-12.1 12.1s-12-5.5-12-12.1c0-6.7 5.4-12.1 12.1-12.1s12 5.4 12 12.1" fill="#fffdfc"/><path clip-path="url(#c8)" d="m27.7 10.4c0 6.7-5.4 12-12 12-6.7 0-12-5.4-12-12 0-6.7 5.4-12 12-12 6.6 0 12 5.4 12 12" fill="#fffdfc"/><path clip-path="url(#c9)" d="m27.7 10.4c0 6.6-5.4 12-12 12s-12-5.4-12-12 5.4-12 12-12 12 5.4 12 12" fill="#fffdfc"/><path clip-path="url(#da)" d="m27.6 10.4c0 6.6-5.4 12-12 12s-12-5.4-12-12 5.4-12 12-12c6.6 0 12 5.4 12 12" fill="#fffdfc"/><path clip-path="url(#db)" d="m27.6 10.4c0 6.6-5.4 12-12 12s-12-5.4-12-12 5.4-12 12-12c6.6 0 12 5.4 12 12" fill="#fffdfc"/><path clip-path="url(#dc)" d="m27.5 10.3c0 6.6-5.3 11.9-11.9 11.9-6.6.1-11.9-5.3-11.9-11.9s5.3-11.9 11.9-11.9 11.9 5.3 11.9 11.9" fill="#fffdfc"/><path clip-path="url(#dd)" d="m27.5 10.3c0 6.6-5.3 11.9-11.9 11.9s-11.9-5.3-11.9-11.9 5.3-11.9 11.9-11.9 11.9 5.3 11.9 11.9" fill="#fffdfc"/><path clip-path="url(#de)" d="m27.5 10.3c0 6.6-5.3 11.9-11.9 11.9s-11.9-5.3-11.9-11.9 5.3-11.9 11.9-11.9 11.9 5.3 11.9 11.9" fill="#fffdfc"/><path clip-path="url(#df)" d="m27.4 10.3c0 6.6-5.3 11.9-11.9 11.9-6.5-.1-11.8-5.4-11.8-11.9 0-6.6 5.3-11.9 11.9-11.9 6.5 0 11.8 5.3 11.8 11.9" fill="#fffdfc"/><path clip-path="url(#dg)" d="m27.4 10.2c0 6.5-5.3 11.8-11.8 11.8s-11.9-5.2-11.9-11.8c0-6.5 5.3-11.8 11.9-11.8s11.8 5.3 11.8 11.8" fill="#fffdfc"/><g fill="#fff"><path clip-path="url(#dh)" d="m27.4 10.2c0 6.5-5.3 11.8-11.8 11.8-6.6 0-11.9-5.3-11.9-11.8s5.3-11.8 11.8-11.8c6.6 0 11.9 5.3 11.9 11.8"/><path clip-path="url(#di)" d="m27.3 10.2c0 6.5-5.3 11.8-11.8 11.8s-11.8-5.3-11.8-11.8 5.3-11.8 11.8-11.8c6.6 0 11.8 5.3 11.8 11.8"/><path clip-path="url(#dj)" d="m27.3 10.2c0 6.5-5.3 11.8-11.8 11.8-6.5-.1-11.7-5.3-11.7-11.8s5.2-11.8 11.7-11.8 11.8 5.3 11.8 11.8"/><path clip-path="url(#dk)" d="m27.3 10.2c0 6.5-5.3 11.7-11.7 11.7-6.6 0-11.8-5.3-11.8-11.7 0-6.5 5.2-11.8 11.7-11.8s11.8 5.3 11.8 11.8"/><path clip-path="url(#dl)" d="m27.2 10.1c0 6.5-5.2 11.7-11.7 11.7s-11.7-5.2-11.7-11.7c0-6.4 5.2-11.7 11.7-11.7s11.7 5.3 11.7 11.7"/><path clip-path="url(#dm)" d="m27.2 10.1c0 6.5-5.2 11.7-11.7 11.7s-11.7-5.2-11.7-11.7 5.2-11.7 11.7-11.7 11.7 5.2 11.7 11.7"/><path clip-path="url(#dn)" d="m27.2 10.1c0 6.4-5.2 11.7-11.7 11.7s-11.7-5.3-11.7-11.7c0-6.5 5.2-11.7 11.7-11.7s11.7 5.2 11.7 11.7"/><path clip-path="url(#do)" d="m27.1 10.1c0 6.4-5.2 11.6-11.6 11.6-6.5 0-11.7-5.2-11.7-11.6 0-6.5 5.2-11.7 11.7-11.7 6.4 0 11.6 5.2 11.6 11.7"/><path clip-path="url(#dp)" d="m27.1 10c0 6.4-5.2 11.6-11.6 11.6s-11.6-5.2-11.6-11.6 5.2-11.6 11.6-11.6 11.6 5.2 11.6 11.6"/><path clip-path="url(#dq)" d="m27 10c0 6.4-5.2 11.6-11.6 11.6s-11.5-5.2-11.5-11.6 5.2-11.6 11.6-11.6 11.5 5.2 11.5 11.6"/><path clip-path="url(#dr)" d="m27 10c0 6.4-5.2 11.6-11.6 11.6-6.3-.1-11.5-5.2-11.5-11.6s5.2-11.6 11.6-11.6c6.3 0 11.5 5.2 11.5 11.6"/></g><path d="m25.1 11.5c0 5.9-4.8 10.6-10.6 10.6-5.9 0-10.6-4.8-10.6-10.6 0-5.9 4.8-10.6 10.6-10.6 5.9 0 10.6 4.8 10.6 10.6" fill="#e3000b"/><path d="m19.8 18.5-4.9-3.9-2-5.8 5 3.7z" fill="#fff"/><path d="m19.3 18.8-6.2-.4-4.9-3.7 6.2.3z" fill="#fff"/><path d="m20.2 18.1-1.8-6 1.7-5.9 1.9 5.9z" fill="#fff"/></svg>