<svg enable-background="new 0 0 143.2 34.2" viewBox="0 0 143.2 34.2" xmlns="http://www.w3.org/2000/svg"><g fill="#fff"><path d="m34.3 17.1c0-9.4-7.7-17.1-17.2-17.1-9.4 0-17.1 7.7-17.1 17.1 0 9.5 7.7 17.1 17.1 17.1 9.5.1 17.2-7.6 17.2-17.1m-9-5.6c0 5.9-4.8 10.6-10.6 10.6-5.9.1-10.7-4.7-10.7-10.6 0-5.8 4.8-10.6 10.6-10.6 5.9 0 10.7 4.8 10.7 10.6m-4.9 6.6 1.8-6-2-5.8-1.7 5.9zm-.5.4-1.9-6-4.9-3.7 1.9 5.8zm-5.4-3.5-6.2-.3 4.9 3.7 6.3.4z"/><path d="m50.5 22.6c-.4.5-1.1 1-2.1 1h-2.7v-5.7h2.3c.7 0 1.4 0 2.2.7.6.5.9 1.3.9 2.1s-.3 1.5-.6 1.9m2.7-6.9c-2-1.4-4.5-1.4-6.2-1.4h-1.4v-4.3h7.4v-3.6h-12v20.7h6.3c1.8 0 4.4-.1 6.2-1.8 1.3-1 2.2-2.8 2.2-4.7 0-.8-.1-3.2-2.5-4.9"/><path d="m56.9 5.9c-1.4 0-2.5 1.1-2.5 2.6 0 1 .5 1.9 1.3 2.3-.4 1.2-.8 2-.8 2s3-1.9 3.4-2.2c.7-.5 1.1-1.3 1.1-2.1 0-1.5-1.1-2.6-2.5-2.6"/><path d="m77.1 21.7c-.2.6-.4 1.1-.7 1.5s-.6.6-1 .8-.8.2-1.2.2c-.5 0-.9-.1-1.3-.3s-.7-.4-1-.8-.5-.8-.6-1.5c-.2-.6-.2-1.4-.2-2.3s.1-1.7.2-2.4c.2-.7.4-1.2.7-1.5.3-.4.6-.7 1-.8.3-.1.7-.2 1.2-.2s.9.1 1.3.2c.4.2.7.4 1 .8s.5.9.6 1.5c.1.7.2 1.5.2 2.4 0 1-.1 1.8-.2 2.4m-2.9-10.8c-2.1 0-3.8.5-5 1.6-1.3 1.1-2.1 2.5-2.5 4.4h-3v-5.5h-4.7v15.8h4.7v-6.8h2.8c.2 2.4 1 4.2 2.3 5.4 1.4 1.3 3.2 1.9 5.4 1.9 2.5 0 4.5-.7 5.8-2.2 1.4-1.5 2.1-3.6 2.1-6.2s-.7-4.7-2.1-6.2-3.3-2.2-5.8-2.2"/><path d="m82.4 15.2h4.3v11.9h4.3v-11.9h4.2v-3.7h-12.8z"/><path d="m101 21.2v-9.7h-4.1v15.6h4.1l6.7-9.7v9.7h4.1v-15.6h-4.1z"/><path d="m130.8 11.4h-5.4l-5.6 6v-5.9h-4.3v15.6h4.3v-5.8l.5-.7 5.3 6.4h5.5l-7.3-8.6z"/><path d="m139.7 14.8c1.5 0 2.6.5 3.5 1.4v-4.4c-1.2-.6-2.6-1-4.2-1-1.5 0-3.7.3-5.5 2-1.6 1.4-2.7 3.7-2.7 6.4 0 3 1.3 4.9 2.4 6.1 1.4 1.4 3.5 2.3 5.9 2.3 1.8 0 3.1-.5 4-1v-4.4c-1.2 1.1-2.4 1.4-3.4 1.4-2.5.2-4.3-1.7-4.3-4.3 0-2.3 1.5-4.5 4.3-4.5"/></g></svg>