<svg xmlns="http://www.w3.org/2000/svg" xmlns:xlink="http://www.w3.org/1999/xlink" viewBox="0 0 155.48 37.62"><defs><radialGradient id="a" cx="25.3" cy="20.45" fx="18.06969552858146" fy="3.965421401731035" r="18" gradientTransform="translate(40.2 -8.47) rotate(78.3)" gradientUnits="userSpaceOnUse"><stop offset="0.64" stop-color="#fff"/><stop offset="0.67" stop-color="#fefafa"/><stop offset="0.72" stop-color="#fdeaeb"/><stop offset="0.77" stop-color="#fad0d3"/><stop offset="0.82" stop-color="#f6acb1"/><stop offset="0.88" stop-color="#f17e85"/><stop offset="0.94" stop-color="#ea4650"/><stop offset="1" stop-color="#e30613"/></radialGradient></defs><path d="M65.85,3.64a2.79,2.79,0,0,1,2.79,2.87,2.89,2.89,0,0,1-1.13,2.34c-.46.34-3.84,2.48-3.84,2.48s.36-1,.86-2.27a2.86,2.86,0,0,1-1.47-2.55A2.79,2.79,0,0,1,65.85,3.64Z" transform="translate(-7.3 -2.45)" fill="#e30613"/><path d="M48.11,4.2H61.57V8.33H53.16v4.84h1.61c1.91,0,4.73,0,7,1.53a6.59,6.59,0,0,1,2.78,5.53,7.16,7.16,0,0,1-2.4,5.34c-2.06,1.8-4.91,2-7,2h-7Zm5,19.33h3a3,3,0,0,0,2.36-1.1,3.45,3.45,0,0,0,.71-2.16,2.86,2.86,0,0,0-1.06-2.37,3.42,3.42,0,0,0-2.46-.73H53.16Z" transform="translate(-7.3 -2.45)" fill="#306e32"/><path d="M76.67,19.93H73.51v7.6H68.27V9.82h5.24V16h3.36A8.2,8.2,0,0,1,79.65,11a8.6,8.6,0,0,1,5.63-1.76,8.35,8.35,0,0,1,6.48,2.52,9.81,9.81,0,0,1,2.31,6.89,9.75,9.75,0,0,1-2.32,6.89,8.37,8.37,0,0,1-6.47,2.52,8.51,8.51,0,0,1-6-2.1A8.88,8.88,0,0,1,76.67,19.93Zm11,3.06a5.08,5.08,0,0,0,.73-1.63,10.71,10.71,0,0,0,.26-2.64,11.49,11.49,0,0,0-.26-2.63,4.69,4.69,0,0,0-.7-1.68,2.58,2.58,0,0,0-1.07-.91,3.85,3.85,0,0,0-2.7-.05,2.68,2.68,0,0,0-1.11.88,4.37,4.37,0,0,0-.74,1.72,11.44,11.44,0,0,0-.27,2.67,10.47,10.47,0,0,0,.26,2.6,4.9,4.9,0,0,0,.68,1.62,2.68,2.68,0,0,0,1.07.89,3.34,3.34,0,0,0,1.46.3,3.57,3.57,0,0,0,1.32-.26A2.51,2.51,0,0,0,87.67,23Z" transform="translate(-7.3 -2.45)" fill="#306e32"/><path d="M104.12,14.11V27.53H99.29V14.11H94.54V9.87h14.33v4.24Z" transform="translate(-7.3 -2.45)" fill="#306e32"/><path d="M115.34,9.87V20.76l7.59-10.89h4.63V27.53h-4.63V16.64l-7.59,10.89h-4.63V9.87Z" transform="translate(-7.3 -2.45)" fill="#306e32"/><path d="M136.31,9.87v6.85l6.41-6.85h6L141,17.74l8.15,9.79H143L137,20.23l-.71.73v6.57h-4.83V9.87Z" transform="translate(-7.3 -2.45)" fill="#306e32"/><path d="M162.78,15.25a5.47,5.47,0,0,0-4-1.55,4.68,4.68,0,0,0-4.82,5,4.84,4.84,0,0,0,5,5,5.5,5.5,0,0,0,3.8-1.55V27a9.66,9.66,0,0,1-11-1.47A9.2,9.2,0,0,1,149,18.76a9.58,9.58,0,0,1,3-7.18,8.94,8.94,0,0,1,6.17-2.28,9.88,9.88,0,0,1,4.63,1.06Z" transform="translate(-7.3 -2.45)" fill="#306e32"/><circle cx="25.3" cy="20.45" r="18" transform="translate(-7.15 38.63) rotate(-78.3)" fill="url(#a)"/><circle cx="22.59" cy="14.62" r="11.22" transform="translate(-11.61 12.73) rotate(-34.1)" fill="#e30613"/><polygon points="20.85 19.47 15.67 15.37 13.66 9.23 18.84 13.16 20.85 19.47" fill="#fff"/><polygon points="20.37 19.86 13.77 19.39 8.65 15.46 15.15 15.77 20.37 19.86" fill="#fff"/><polygon points="21.33 19.08 19.37 12.77 21.17 6.57 23.24 12.73 21.33 19.08" fill="#fff"/><path d="M47.68,37.5h.57a3.93,3.93,0,0,0,.22-.54c.07-.23.13-.49.19-.77s.11-.58.15-.89a7.5,7.5,0,0,0,.06-.93v-1H52.4V37.5h.67v2.19H52.3V38.21H48.44v1.48h-.76Zm3.92,0V34h-2v.42a7.19,7.19,0,0,1,0,.92,7.35,7.35,0,0,1-.14.86,6.18,6.18,0,0,1-.18.74,5,5,0,0,1-.19.53Z" transform="translate(-7.3 -2.45)" fill="#1d1d1b"/><path d="M53.87,33.32h.8v4l2.31-4h1v4.89h-.8v-4l-2.31,4h-1Z" transform="translate(-7.3 -2.45)" fill="#1d1d1b"/><path d="M61.29,38.31a2.57,2.57,0,0,1-1-.18,2,2,0,0,1-.72-.51,2.27,2.27,0,0,1-.43-.78,3.2,3.2,0,0,1-.15-1,3.77,3.77,0,0,1,.14-1,2.42,2.42,0,0,1,.43-.83,2.19,2.19,0,0,1,.72-.56,2.47,2.47,0,0,1,1-.2,2.78,2.78,0,0,1,.78.1,2,2,0,0,1,.64.3,1.68,1.68,0,0,1,.46.53,2.07,2.07,0,0,1,.23.75h-.84a1.21,1.21,0,0,0-.39-.72,1.24,1.24,0,0,0-.82-.25,1.42,1.42,0,0,0-.72.16,1.27,1.27,0,0,0-.47.42,1.74,1.74,0,0,0-.25.61,3.38,3.38,0,0,0-.08.72,3,3,0,0,0,.08.66,2.1,2.1,0,0,0,.25.57,1.3,1.3,0,0,0,.44.4,1.34,1.34,0,0,0,.66.15,1.29,1.29,0,0,0,.93-.31,1.43,1.43,0,0,0,.41-.88h.82a2.24,2.24,0,0,1-.67,1.41A2.14,2.14,0,0,1,61.29,38.31Z" transform="translate(-7.3 -2.45)" fill="#1d1d1b"/><path d="M65.57,34H63.82v-.71h4.3V34H66.38v4.18h-.81Z" transform="translate(-7.3 -2.45)" fill="#1d1d1b"/><path d="M68.84,33.32h.81V34h0a1.25,1.25,0,0,1,.63-.59,2.34,2.34,0,0,1,.93-.18,2.19,2.19,0,0,1,1,.21,1.83,1.83,0,0,1,.7.56,2.28,2.28,0,0,1,.42.82,3.1,3.1,0,0,1,.14,1,3.54,3.54,0,0,1-.13,1,2.27,2.27,0,0,1-.42.8,1.88,1.88,0,0,1-.7.54,2.15,2.15,0,0,1-1,.2,1.94,1.94,0,0,1-.4,0,1.8,1.8,0,0,1-.44-.12,1.53,1.53,0,0,1-.41-.23,1.42,1.42,0,0,1-.33-.36h0v2.51h-.81Zm2.32,4.29a1.35,1.35,0,0,0,.69-.16A1.21,1.21,0,0,0,72.3,37a1.74,1.74,0,0,0,.25-.61,3.26,3.26,0,0,0,.07-.7,2.44,2.44,0,0,0-.09-.66,1.88,1.88,0,0,0-.27-.59,1.31,1.31,0,0,0-.47-.4,1.48,1.48,0,0,0-.68-.15,1.35,1.35,0,0,0-.69.16,1.24,1.24,0,0,0-.46.42,1.66,1.66,0,0,0-.26.59,2.51,2.51,0,0,0-.08.67,3.1,3.1,0,0,0,.08.69,1.83,1.83,0,0,0,.27.6,1.38,1.38,0,0,0,.48.41A1.52,1.52,0,0,0,71.16,37.61Z" transform="translate(-7.3 -2.45)" fill="#1d1d1b"/><path d="M74.47,33.32h.8v4l2.31-4h1v4.89H77.8v-4l-2.3,4h-1Z" transform="translate(-7.3 -2.45)" fill="#1d1d1b"/><path d="M82.05,38.31a2.33,2.33,0,0,1-1.53-.48,2.28,2.28,0,0,1-.73-1.49,6,6,0,0,1-.06-.89c0-.23,0-.48,0-.73a6.36,6.36,0,0,1,.08-.75,5.65,5.65,0,0,1,.17-.71,2.45,2.45,0,0,1,.29-.61,2,2,0,0,1,.78-.74,3,3,0,0,1,1.17-.29c.31,0,.56-.05.77-.09s.33-.11.35-.23h.81a1.13,1.13,0,0,1-.17.57.78.78,0,0,1-.39.29,2.46,2.46,0,0,1-.63.14l-.86.07a1.77,1.77,0,0,0-.71.19,1.5,1.5,0,0,0-.51.43,2.39,2.39,0,0,0-.35.63,4.47,4.47,0,0,0-.19.8h0a1.94,1.94,0,0,1,.65-.8,1.84,1.84,0,0,1,1.06-.31,2.15,2.15,0,0,1,1.63.64,2.63,2.63,0,0,1,.6,1.86,3.22,3.22,0,0,1-.17,1.08,2.17,2.17,0,0,1-.47.78,1.86,1.86,0,0,1-.72.48A2.52,2.52,0,0,1,82.05,38.31Zm0-.68a1.33,1.33,0,0,0,.55-.12,1.38,1.38,0,0,0,.46-.34,1.79,1.79,0,0,0,.32-.56,2.37,2.37,0,0,0,.12-.78,2.14,2.14,0,0,0-.39-1.36A1.35,1.35,0,0,0,82,34a1.3,1.3,0,0,0-1.08.5,2.08,2.08,0,0,0-.41,1.36,2,2,0,0,0,.4,1.31A1.36,1.36,0,0,0,82.06,37.63Z" transform="translate(-7.3 -2.45)" fill="#1d1d1b"/><path d="M85.38,33.32h.8v1.87h1.74a1.61,1.61,0,0,1,1.15.4,1.39,1.39,0,0,1,.44,1.1,1.46,1.46,0,0,1-.42,1.1,1.52,1.52,0,0,1-1.13.42H85.38Zm2.28,4.18c.68,0,1-.27,1-.81s-.33-.81-1-.81H86.18V37.5Z" transform="translate(-7.3 -2.45)" fill="#1d1d1b"/><path d="M94.52,38.31a2.45,2.45,0,0,1-.93-.17,2.29,2.29,0,0,1-.7-.48,2.38,2.38,0,0,1-.46-.73,3,3,0,0,1-.19-.92h-1v2.2h-.81V33.32h.81v2h1a2.88,2.88,0,0,1,.23-.85,2.23,2.23,0,0,1,.46-.66,2.05,2.05,0,0,1,.67-.44,2.28,2.28,0,0,1,.89-.16,2.16,2.16,0,0,1,1,.2,2.1,2.1,0,0,1,.71.54,2.27,2.27,0,0,1,.44.81,3.29,3.29,0,0,1,.16,1,3.22,3.22,0,0,1-.16,1,2.27,2.27,0,0,1-.44.81,2.1,2.1,0,0,1-.71.54A2.3,2.3,0,0,1,94.52,38.31Zm0-.7a1.3,1.3,0,0,0,.55-.12,1.31,1.31,0,0,0,.46-.35,1.87,1.87,0,0,0,.3-.58,2.89,2.89,0,0,0,0-1.58,1.87,1.87,0,0,0-.3-.58,1.23,1.23,0,0,0-.46-.36,1.3,1.3,0,0,0-.55-.12A1.39,1.39,0,0,0,94,34a1.17,1.17,0,0,0-.44.36,1.88,1.88,0,0,0-.31.58,2.69,2.69,0,0,0-.11.79,2.07,2.07,0,0,0,.4,1.37A1.28,1.28,0,0,0,94.52,37.61Z" transform="translate(-7.3 -2.45)" fill="#1d1d1b"/><path d="M101.6,38.21H97.79V33.32h.8V37.5h2.31V33.32h.8V37.5h.66v2.19h-.76Z" transform="translate(-7.3 -2.45)" fill="#1d1d1b"/><path d="M103.17,33.32h.8v4l2.31-4h1v4.89h-.81v-4l-2.3,4h-1Z" transform="translate(-7.3 -2.45)" fill="#1d1d1b"/><path d="M109.59,36.3a1.35,1.35,0,0,1-.85-.47,1.53,1.53,0,0,1-.33-1,1.47,1.47,0,0,1,.41-1.09,1.54,1.54,0,0,1,1.12-.41h2.48v4.89h-.8V36.33h-1.07l-1.49,1.88H108Zm2-.66V34H110.2a1,1,0,0,0-.74.22.89.89,0,0,0,0,1.17,1,1,0,0,0,.74.22Z" transform="translate(-7.3 -2.45)" fill="#1d1d1b"/><path d="M116.35,33.32h.81v2.34l2.24-2.34h1.07l-2,1.93,2.22,3h-1l-1.77-2.4-.76.74v1.66h-.81Z" transform="translate(-7.3 -2.45)" fill="#1d1d1b"/><path d="M123.48,38.31a2.48,2.48,0,0,1-1-.19,2.15,2.15,0,0,1-.75-.54,2.29,2.29,0,0,1-.45-.81,3.22,3.22,0,0,1-.15-1,3.29,3.29,0,0,1,.15-1,2.29,2.29,0,0,1,.45-.81,2.15,2.15,0,0,1,.75-.54,2.7,2.7,0,0,1,2,0,2.07,2.07,0,0,1,.75.54,2.29,2.29,0,0,1,.45.81,3.29,3.29,0,0,1,.15,1,3.22,3.22,0,0,1-.15,1,2.29,2.29,0,0,1-.45.81,2.07,2.07,0,0,1-.75.54A2.48,2.48,0,0,1,123.48,38.31Zm0-.7a1.45,1.45,0,0,0,.59-.12,1.42,1.42,0,0,0,.49-.35,1.55,1.55,0,0,0,.32-.58,2.66,2.66,0,0,0,0-1.58,1.55,1.55,0,0,0-.32-.58,1.33,1.33,0,0,0-.49-.36,1.45,1.45,0,0,0-.59-.12,1.48,1.48,0,0,0-.59.12,1.33,1.33,0,0,0-.49.36,1.71,1.71,0,0,0-.32.58,2.66,2.66,0,0,0,0,1.58,1.71,1.71,0,0,0,.32.58,1.42,1.42,0,0,0,.49.35A1.48,1.48,0,0,0,123.48,37.61Z" transform="translate(-7.3 -2.45)" fill="#1d1d1b"/><path d="M128.87,38.31a2.57,2.57,0,0,1-1-.18,2,2,0,0,1-.72-.51,2.27,2.27,0,0,1-.43-.78,3.2,3.2,0,0,1-.15-1,3.77,3.77,0,0,1,.14-1,2.42,2.42,0,0,1,.43-.83,2.09,2.09,0,0,1,.72-.56,2.47,2.47,0,0,1,1-.2,2.78,2.78,0,0,1,.78.1,2,2,0,0,1,.64.3,1.68,1.68,0,0,1,.46.53,2.07,2.07,0,0,1,.23.75h-.84a1.21,1.21,0,0,0-.39-.72,1.24,1.24,0,0,0-.82-.25,1.42,1.42,0,0,0-.72.16,1.2,1.2,0,0,0-.47.42,1.74,1.74,0,0,0-.25.61,3.38,3.38,0,0,0-.08.72,3,3,0,0,0,.08.66,2.1,2.1,0,0,0,.25.57,1.3,1.3,0,0,0,.44.4,1.34,1.34,0,0,0,.66.15,1.29,1.29,0,0,0,.93-.31,1.43,1.43,0,0,0,.41-.88H131a2.24,2.24,0,0,1-.67,1.41A2.14,2.14,0,0,1,128.87,38.31Z" transform="translate(-7.3 -2.45)" fill="#1d1d1b"/><path d="M132,33.32h1.15l1.49,4h0l1.48-4h1.15v4.89h-.8V34.33L135,38.21h-.74l-1.48-3.88v3.88H132Z" transform="translate(-7.3 -2.45)" fill="#1d1d1b"/><path d="M140.6,38.31a2.56,2.56,0,0,1-1-.19,1.94,1.94,0,0,1-.73-.53,2.25,2.25,0,0,1-.44-.81,3.38,3.38,0,0,1-.14-1,2.88,2.88,0,0,1,.17-1,2.35,2.35,0,0,1,.47-.8,2.11,2.11,0,0,1,.73-.53,2.17,2.17,0,0,1,.92-.19,2,2,0,0,1,1.09.27,2.35,2.35,0,0,1,.69.68,2.65,2.65,0,0,1,.35.91,3.88,3.88,0,0,1,.09.94h-3.66a2.08,2.08,0,0,0,.07.61,1.41,1.41,0,0,0,.28.51,1.36,1.36,0,0,0,.48.35,1.6,1.6,0,0,0,.69.13,1.46,1.46,0,0,0,.84-.23,1.19,1.19,0,0,0,.43-.72h.79A1.93,1.93,0,0,1,142,37.9,2.2,2.2,0,0,1,140.6,38.31Zm1.31-3a1.63,1.63,0,0,0-.12-.54,1.37,1.37,0,0,0-.3-.44,1.3,1.3,0,0,0-.43-.29,1.26,1.26,0,0,0-.55-.11,1.32,1.32,0,0,0-.57.11,1.42,1.42,0,0,0-.43.29,1.57,1.57,0,0,0-.28.44,1.63,1.63,0,0,0-.12.54Z" transform="translate(-7.3 -2.45)" fill="#1d1d1b"/><path d="M144.83,34h-1.75v-.71h4.3V34h-1.75v4.18h-.8Z" transform="translate(-7.3 -2.45)" fill="#1d1d1b"/><path d="M148.07,33.32h.8v4l2.31-4h1v4.89h-.8v-4l-2.31,4h-1Z" transform="translate(-7.3 -2.45)" fill="#1d1d1b"/><path d="M153.47,33.32h.8v2.34l2.24-2.34h1.07l-2,1.93,2.22,3h-1L155,35.81l-.77.74v1.66h-.8Z" transform="translate(-7.3 -2.45)" fill="#1d1d1b"/><path d="M158.49,33.32h.8v4l2.31-4h1v4.89h-.81v-4l-2.3,4h-1Z" transform="translate(-7.3 -2.45)" fill="#1d1d1b"/></svg>