<svg width="0" height="0" class="hidden">
  <symbol xmlns="http://www.w3.org/2000/svg" viewBox="0 0 10 18" id="ic_arr_hor">
    <path d="M9 17L1.70711 9.70711C1.31658 9.31658 1.31658 8.68342 1.70711 8.29289L9 1" stroke="currentColor" stroke-linecap="round" fill="none"></path>
  </symbol>
  <symbol xmlns="http://www.w3.org/2000/svg" viewBox="0 0 6 10" id="ic_arr_hor2">
    <path d="M1 1L4.29289 4.29289C4.68342 4.68342 4.68342 5.31658 4.29289 5.70711L1 9" stroke="currentColor" stroke-width="2" stroke-linecap="round" fill="none"></path>
  </symbol>
  <symbol xmlns="http://www.w3.org/2000/svg" viewBox="0 0 18 10" id="ic_arr_ver">
    <path d="M17 1L9.70711 8.29289C9.31658 8.68342 8.68342 8.68342 8.29289 8.29289L1 0.999999" stroke="currentColor" stroke-linecap="round" fill="none"></path>
  </symbol>
  <symbol xmlns="http://www.w3.org/2000/svg" viewBox="0 0 16 17" id="ic_calendar">
    <path fill-rule="evenodd" clip-rule="evenodd" d="M6 2.5C6.55228 2.5 7 2.94772 7 3.5V4.5H9V3.5C9 2.94772 9.44772 2.5 10 2.5C10.5523 2.5 11 2.94772 11 3.5V4.5H12C13.1046 4.5 14 5.39543 14 6.5V12.5C14 13.6046 13.1046 14.5 12 14.5H4C2.89543 14.5 2 13.6046 2 12.5V6.5C2 5.39543 2.89543 4.5 4 4.5H5V3.5C5 2.94772 5.44772 2.5 6 2.5ZM4 6.5H12V7.5H4V6.5ZM4 9.5V12.5H12V9.5H4Z" fill="currentColor"></path>
  </symbol>
  <symbol xmlns="http://www.w3.org/2000/svg" viewBox="0 0 33 32" id="ic_cart">
    <path d="M25.1495 20.0001L28.9275 8.66675H8.48284L7.14951 4.66675H3.33551V6.00008H6.18818L10.6208 19.2987L7.64284 26.0001H26.0022V24.6667H9.69484L11.7688 20.0001H25.1495ZM27.0768 10.0001L24.1882 18.6667H11.8162L8.92751 10.0001H27.0768Z" fill="currentColor"></path>
    <path d="M13.3355 29.3334C14.0718 29.3334 14.6688 28.7365 14.6688 28.0001C14.6688 27.2637 14.0718 26.6667 13.3355 26.6667C12.5991 26.6667 12.0021 27.2637 12.0021 28.0001C12.0021 28.7365 12.5991 29.3334 13.3355 29.3334Z" fill="currentColor"></path>
    <path d="M21.3355 29.3334C22.0718 29.3334 22.6688 28.7365 22.6688 28.0001C22.6688 27.2637 22.0718 26.6667 21.3355 26.6667C20.5991 26.6667 20.0021 27.2637 20.0021 28.0001C20.0021 28.7365 20.5991 29.3334 21.3355 29.3334Z" fill="currentColor"></path>
  </symbol>
  <symbol xmlns="http://www.w3.org/2000/svg" viewBox="0 0 12 12" id="ic_close">
    <path fill-rule="evenodd" clip-rule="evenodd" d="M1.54835 0.605418C1.288 0.345069 0.86589 0.345069 0.60554 0.605418C0.345191 0.865768 0.345191 1.28788 0.60554 1.54823L5.05723 5.99992L0.605582 10.4516C0.345232 10.7119 0.345232 11.134 0.605582 11.3944C0.865931 11.6547 1.28804 11.6547 1.54839 11.3944L6.00004 6.94273L10.4517 11.3944C10.712 11.6547 11.1342 11.6547 11.3945 11.3944C11.6548 11.134 11.6548 10.7119 11.3945 10.4516L6.94285 5.99992L11.3945 1.54823C11.6549 1.28788 11.6549 0.865768 11.3945 0.605418C11.1342 0.345069 10.7121 0.345069 10.4517 0.605418L6.00004 5.05711L1.54835 0.605418Z" fill="currentColor"></path>
  </symbol>
  <symbol xmlns="http://www.w3.org/2000/svg" viewBox="0 0 14 13" id="ic_heart">
    <path d="M1.10912 1.167C-0.369709 2.723 -0.369707 5.24577 1.10912 6.80177L6.99998 13L12.8909 6.80176C14.3697 5.24576 14.3697 2.72299 12.8909 1.167C11.412 -0.389 9.01438 -0.388998 7.53555 1.167L7 1.73049L6.46445 1.167C4.98562 -0.388993 2.58796 -0.388993 1.10912 1.167Z" fill="currentColor"></path>
  </symbol>
  <symbol xmlns="http://www.w3.org/2000/svg" viewBox="0 0 16 16" id="ic_location">
    <path fill-rule="evenodd" clip-rule="evenodd" d="M8.00003 14C8.00003 14 12.6154 10.3077 12.6154 6.61538C12.6154 4.06638 10.549 2 8.00003 2C5.45102 2 3.38464 4.06638 3.38464 6.61538C3.38464 10.3077 8.00003 14 8.00003 14ZM8.00005 9.18276C9.42021 9.18276 10.5715 8.03149 10.5715 6.61133C10.5715 5.19117 9.42021 4.0399 8.00005 4.0399C6.57989 4.0399 5.42862 5.19117 5.42862 6.61133C5.42862 8.03149 6.57989 9.18276 8.00005 9.18276Z" fill="currentColor"></path>
  </symbol>
  <symbol xmlns="http://www.w3.org/2000/svg" viewBox="0 0 32 32" id="ic_menu">
    <path d="M7 9H25" stroke="currentColor" stroke-width="2" stroke-linecap="round" fill="none"></path>
    <path d="M7 23H25" stroke="currentColor" stroke-width="2" stroke-linecap="round" fill="none"></path>
    <path d="M7 16H25" stroke="currentColor" stroke-width="2" stroke-linecap="round" fill="none"></path>
  </symbol>
  <symbol xmlns="http://www.w3.org/2000/svg" viewBox="0 0 16 16" id="ic_phone">
    <rect x="4" y="2" width="8" height="12" rx="2" fill="currentColor"></rect>
    <rect x="5" y="3" width="6" height="9" rx="1" fill="#F8F8F8"></rect>
  </symbol>
  <symbol xmlns="http://www.w3.org/2000/svg" viewBox="0 0 14 15" id="ic_plus">
    <path fill-rule="evenodd" clip-rule="evenodd" d="M8 1.5C8 0.947715 7.55228 0.5 7 0.5C6.44772 0.5 6 0.947716 6 1.5V6.5H1C0.447715 6.5 0 6.94772 0 7.5C0 8.05228 0.447716 8.5 1 8.5H6V13.5C6 14.0523 6.44771 14.5 7 14.5C7.55228 14.5 8 14.0523 8 13.5V8.5H13C13.5523 8.5 14 8.05228 14 7.5C14 6.94772 13.5523 6.5 13 6.5H8V1.5Z" fill="currentColor"></path>
  </symbol>
  <symbol xmlns="http://www.w3.org/2000/svg" viewBox="0 0 33 32" id="ic_search">
    <path d="M12.6681 21.3334C15.0054 21.3334 17.1367 20.4681 18.7741 19.0487L27.3347 27.6094L28.2774 26.6667L19.7167 18.1061C21.1361 16.4687 22.0014 14.3374 22.0014 12.0001C22.0014 6.84542 17.8227 2.66675 12.6681 2.66675C7.51341 2.66675 3.33475 6.84542 3.33475 12.0001C3.33475 17.1547 7.51341 21.3334 12.6681 21.3334ZM12.6681 4.00008C17.0794 4.00008 20.6681 7.58875 20.6681 12.0001C20.6681 16.4114 17.0794 20.0001 12.6681 20.0001C8.25675 20.0001 4.66808 16.4114 4.66808 12.0001C4.66808 7.58875 8.25675 4.00008 12.6681 4.00008Z" fill="currentColor"></path>
  </symbol>
  <symbol xmlns="http://www.w3.org/2000/svg" viewBox="0 0 16 16" id="ic_site">
    <path fill-rule="evenodd" clip-rule="evenodd" d="M9.06734 2.66318C9.95158 1.77894 11.3852 1.77894 12.2695 2.66318L13.3368 3.73056C14.2211 4.61481 14.2211 6.04845 13.3368 6.93269L11.7358 8.53376C10.8557 9.41384 9.43141 9.41799 8.54621 8.54621C9.41793 9.43142 9.41376 10.8557 8.53371 11.7358L6.93266 13.3368C6.04842 14.2211 4.61479 14.2211 3.73055 13.3368L2.66318 12.2694C1.77894 11.3852 1.77894 9.95155 2.66318 9.06731L4.26423 7.46624C5.14425 6.58622 6.56843 6.58201 7.45364 7.45364C6.58207 6.56841 6.58629 5.14426 7.46629 4.26425L9.06734 2.66318ZM11.2021 3.73056C10.9073 3.43581 10.4295 3.43581 10.1347 3.73056L8.53366 5.33163C8.23893 5.62636 8.23891 6.10422 8.53362 6.39897L9.60101 5.33157C9.89575 5.03682 10.3736 5.03682 10.6684 5.33157C10.9631 5.62632 10.9631 6.1042 10.6684 6.39895L9.60099 7.46634C9.89573 7.76109 10.3737 7.76113 10.6684 7.46638L12.2695 5.86532C12.5642 5.57057 12.5642 5.09269 12.2695 4.79794L11.2021 3.73056ZM6.39897 8.53362L5.33153 9.60108C5.03678 9.89583 5.03678 10.3737 5.33153 10.6685C5.62627 10.9632 6.10415 10.9632 6.3989 10.6685L7.46634 9.60099C7.76109 9.89574 7.76109 10.3736 7.46634 10.6684L5.86529 12.2694C5.57054 12.5642 5.09266 12.5642 4.79792 12.2694L3.73055 11.2021C3.4358 10.9073 3.4358 10.4294 3.73055 10.1347L5.3316 8.53362C5.62635 8.23887 6.10423 8.23887 6.39897 8.53362Z" fill="currentColor"></path>
  </symbol>
  <symbol xmlns="http://www.w3.org/2000/svg" viewBox="0 0 16 16" id="ic_star">
    <path d="M7.04894 2.92705C7.4408 1.72104 7.63673 1.11803 8 1.11803C8.36327 1.11803 8.5592 1.72104 8.95106 2.92705L9.5716 4.83688C9.6799 5.17021 9.73406 5.33688 9.86549 5.43237C9.99692 5.52786 10.1722 5.52786 10.5227 5.52786H12.5308C13.7988 5.52786 14.4329 5.52786 14.5451 5.87336C14.6574 6.21885 14.1444 6.59153 13.1186 7.33688L11.494 8.51722C11.2104 8.72323 11.0686 8.82624 11.0184 8.98075C10.9682 9.13525 11.0224 9.30192 11.1307 9.63525L11.7512 11.5451C12.1431 12.7511 12.339 13.3541 12.0451 13.5676C11.7512 13.7812 11.2383 13.4085 10.2124 12.6631L8.58778 11.4828C8.30423 11.2768 8.16246 11.1738 8 11.1738C7.83754 11.1738 7.69577 11.2768 7.41221 11.4828L5.78761 12.6631C4.76172 13.4085 4.24877 13.7812 3.95488 13.5676C3.66099 13.3541 3.85692 12.7511 4.24878 11.5451L4.86932 9.63526C4.97762 9.30192 5.03178 9.13525 4.98157 8.98075C4.93137 8.82624 4.7896 8.72323 4.50604 8.51722L2.88144 7.33688C1.85555 6.59152 1.3426 6.21885 1.45486 5.87336C1.56712 5.52786 2.20116 5.52786 3.46923 5.52786H5.47735C5.82783 5.52786 6.00308 5.52786 6.13451 5.43237C6.26594 5.33688 6.3201 5.17021 6.4284 4.83688L7.04894 2.92705Z" fill="currentColor"></path>
  </symbol>
  <symbol xmlns="http://www.w3.org/2000/svg" viewBox="0 0 32 32" id="ic_telegram">
    <path d="M0 16C0 24.8366 7.16344 32 16 32C24.8366 32 32 24.8366 32 16C32 7.16344 24.8366 0 16 0C7.16344 0 0 7.16344 0 16Z" fill="currentColor"></path>
    <path d="M8.09992 15.7083C12.3949 13.8371 15.2589 12.6034 16.6919 12.0074C20.7834 10.3056 21.6335 10.01 22.1877 10.0001C22.3095 9.99805 22.582 10.0283 22.7586 10.1715C22.9076 10.2924 22.9486 10.4558 22.9683 10.5705C22.9879 10.6851 23.0123 10.9464 22.9929 11.1505C22.7712 13.4801 21.8118 19.1335 21.3237 21.7427C21.1172 22.8468 20.7105 23.217 20.3168 23.2532C19.4613 23.3319 18.8116 22.6878 17.9829 22.1446C16.6862 21.2946 15.9537 20.7654 14.695 19.936C13.2404 18.9774 14.1834 18.4506 15.0124 17.5896C15.2293 17.3643 18.999 13.9355 19.0719 13.6244C19.0811 13.5855 19.0895 13.4405 19.0034 13.3639C18.9172 13.2874 18.7901 13.3136 18.6983 13.3344C18.5683 13.3639 16.4968 14.7331 12.4839 17.4419C11.8959 17.8457 11.3633 18.0424 10.8862 18.0321C10.3601 18.0207 9.34822 17.7346 8.59598 17.4901C7.67333 17.1902 6.94002 17.0316 7.00388 16.5223C7.03714 16.257 7.40248 15.9856 8.09992 15.7083Z" fill="white"></path>
  </symbol>
  <symbol xmlns="http://www.w3.org/2000/svg" viewBox="0 0 16 17" id="ic_time">
    <path fill-rule="evenodd" clip-rule="evenodd" d="M8 14.5C11.3137 14.5 14 11.8137 14 8.5C14 5.18629 11.3137 2.5 8 2.5C4.68629 2.5 2 5.18629 2 8.5C2 11.8137 4.68629 14.5 8 14.5ZM8.5 5.5C8.5 5.22386 8.27614 5 8 5C7.72386 5 7.5 5.22386 7.5 5.5V8.08579C7.5 8.48361 7.65804 8.86514 7.93934 9.14645L9.64645 10.8536C9.84171 11.0488 10.1583 11.0488 10.3536 10.8536C10.5488 10.6583 10.5488 10.3417 10.3536 10.1464L8.64645 8.43934C8.55268 8.34557 8.5 8.21839 8.5 8.08579V5.5Z" fill="currentColor"></path>
  </symbol>
  <symbol xmlns="http://www.w3.org/2000/svg" viewBox="0 0 11 14" id="ic_video_play">
    <path d="M9.67425 6.15634L1.53688 0.978012C0.87115 0.554368 0 1.03258 0 1.82167V12.1783C0 12.9674 0.871153 13.4456 1.53688 13.022L9.67425 7.84366C10.2917 7.45071 10.2917 6.54929 9.67425 6.15634Z" fill="currentColor"></path>
  </symbol>
  <symbol xmlns="http://www.w3.org/2000/svg" viewBox="0 0 32 32" id="ic_whatsapp">
    <path d="M0 16C0 24.8366 7.16344 32 16 32C24.8366 32 32 24.8366 32 16C32 7.16344 24.8366 0 16 0C7.16344 0 0 7.16344 0 16Z" fill="currentColor"></path>
    <path fill-rule="evenodd" clip-rule="evenodd" d="M21.6 10.3C20.1 8.8 18.1 8 16 8C11.6 8 8 11.6 8 16C8 17.4 8.40001 18.8 9.10001 20L8 24L12.2 22.9C13.4 23.5 14.7 23.9 16 23.9C20.4 23.9 24 20.3 24 15.9C24 13.8 23.1 11.8 21.6 10.3ZM16 22.6C14.8 22.6 13.6 22.3 12.6 21.7L12.4 21.6L9.89999 22.3L10.6 19.9L10.4 19.6C9.69999 18.5 9.39999 17.3 9.39999 16.1C9.39999 12.5 12.4 9.5 16 9.5C17.8 9.5 19.4 10.2 20.7 11.4C22 12.7 22.6 14.3 22.6 16.1C22.6 19.6 19.7 22.6 16 22.6ZM19.6 17.6C19.4 17.5 18.4 17 18.2 17C18 16.9 17.9 16.9 17.8 17.1C17.7 17.3 17.3 17.7 17.2 17.9C17.1 18 17 18 16.8 18C16.6 17.9 16 17.7 15.2 17C14.6 16.5 14.2 15.8 14.1 15.6C14 15.4 14.1 15.3 14.2 15.2C14.3 15.1 14.4 15 14.5 14.9C14.6 14.8 14.6 14.7 14.7 14.6C14.8 14.5 14.7 14.4 14.7 14.3C14.7 14.2 14.3 13.2 14.1 12.8C14 12.5 13.8 12.5 13.7 12.5C13.6 12.5 13.5 12.5 13.3 12.5C13.2 12.5 13 12.5 12.8 12.7C12.6 12.9 12.1 13.4 12.1 14.4C12.1 15.4 12.8 16.3 12.9 16.5C13 16.6 14.3 18.7 16.3 19.5C18 20.2 18.3 20 18.7 20C19.1 20 19.9 19.5 20 19.1C20.2 18.6 20.2 18.2 20.1 18.2C20 17.7 19.8 17.7 19.6 17.6Z" fill="white"></path>
  </symbol>
</svg>