<svg width="153" height="26" viewBox="0 0 153 26" fill="none" xmlns="http://www.w3.org/2000/svg">
<g id="map.yandex" clip-path="url(#clip0_957_5557)">
<path id="Vector" d="M10.1746 0C4.55515 0 0 4.65608 0 10.4C0 13.2709 1.13802 15.8704 2.9786 17.7523C4.81969 19.6352 9.15711 22.36 9.41147 25.22C9.4496 25.6487 9.75334 26 10.1746 26C10.5958 26 10.8995 25.6487 10.9377 25.22C11.192 22.36 15.5294 19.6352 17.3705 17.7523C19.2111 15.8704 20.3491 13.2709 20.3491 10.4C20.3491 4.65608 15.794 0 10.1746 0Z" fill="url(#paint0_linear_957_5557)"/>
<path id="Vector_2" d="M10.1746 14.0405C12.1414 14.0405 13.7357 12.4108 13.7357 10.4005C13.7357 8.39018 12.1414 6.7605 10.1746 6.7605C8.20788 6.7605 6.61353 8.39018 6.61353 10.4005C6.61353 12.4108 8.20788 14.0405 10.1746 14.0405Z" fill="white"/>
<path id="Vector_3" d="M38.0961 19.2421H40.7831V3.46667H36.8748C32.9442 3.46667 30.879 5.53223 30.879 8.57383C30.879 11.0026 32.0115 12.4326 34.0323 13.9079L30.5237 19.2421H33.4327L37.341 13.2724L35.9864 12.3418C34.3432 11.2068 33.5437 10.3216 33.5437 8.41493C33.5437 6.73525 34.6984 5.60034 36.8969 5.60034H38.0961V19.2421ZM73.382 18.4703V16.2686C72.5604 16.836 71.1835 17.3354 69.8956 17.3354C67.9637 17.3354 67.2308 16.4048 67.1198 14.4981H73.493V13.0681C73.493 9.09588 71.7832 7.59779 69.1406 7.59779C65.9206 7.59779 64.3884 10.1173 64.3884 13.5675C64.3884 17.5397 66.2982 19.4691 69.6735 19.4691C71.3612 19.4691 72.6048 19.0151 73.382 18.4703ZM89.9036 19.4691C91.1249 19.4691 91.991 19.2421 92.6349 18.7654V16.5637C91.9688 17.0403 91.1693 17.3354 90.059 17.3354C88.1715 17.3354 87.3943 15.8373 87.3943 13.4767C87.3943 11.0026 88.3492 9.73144 90.0813 9.73144C91.1027 9.73144 92.1021 10.0946 92.6349 10.4351V8.14255C92.0798 7.82478 91.1027 7.59779 89.7926 7.59779C86.4171 7.59779 84.6628 10.0719 84.6628 13.5448C84.6628 17.3581 86.3728 19.4691 89.9036 19.4691ZM49.1771 7.82478V12.3418H45.6463V7.82478H43.0037V19.2421H45.6463V14.4754H49.1771V19.2421H51.8196V7.82478H49.1771ZM63.7444 17.1084H62.5675V7.82478H54.8619V8.80081C54.8619 11.5927 54.6842 15.2018 53.7516 17.1084H52.93V21.8524H55.3726V19.2421H61.3017V21.8524H63.7444V17.1084ZM81.8204 19.2421H84.8183L80.5768 13.0907L84.3076 7.82478H81.6427L77.9121 13.0907V7.82478H75.2695V19.2421H77.9121V13.6356L81.8204 19.2421ZM69.0962 9.73144C70.4063 9.73144 70.806 10.8437 70.806 12.2737V12.5006H67.1198C67.1864 10.6848 67.8304 9.73144 69.0962 9.73144ZM59.925 17.1084H56.1942C56.9271 15.3833 57.127 12.2737 57.127 10.2989V9.95843H59.925V17.1084Z" fill="black"/>
<path id="Vector_4" d="M106.272 19.2421H109.403L103.895 10.9345L109.047 3.46667H106.383L101.386 10.7302V3.46667H98.6992V19.2421H101.386V11.8424L106.272 19.2421Z" fill="black"/>
<path id="Vector_5" d="M118.312 11.4565C118.312 8.68732 116.936 7.64319 114.138 7.64319C112.383 7.64319 111.007 8.21065 110.207 8.68732V10.9345C110.918 10.3897 112.472 9.79954 113.827 9.79954C115.093 9.79954 115.67 10.2535 115.67 11.4792V12.1148H115.248C111.206 12.1148 109.408 13.4767 109.408 15.7919C109.408 18.1072 110.784 19.4009 112.828 19.4009C114.382 19.4009 115.048 18.8789 115.559 18.3342H115.67C115.692 18.6293 115.781 19.0151 115.87 19.2421H118.446C118.357 18.3114 118.312 17.3807 118.312 16.4502V11.4565ZM115.67 16.5183C115.337 17.0177 114.715 17.4262 113.782 17.4262C112.672 17.4262 112.117 16.7453 112.117 15.7238C112.117 14.3846 113.027 13.9079 115.292 13.9079H115.67V16.5183Z" fill="black"/>
<path id="Vector_6" d="M122.802 7.82477H120.359V22.5333H123.002V17.9028C123.668 18.9244 124.645 19.4691 125.777 19.4691C128.353 19.4691 130.13 17.3581 130.13 13.5221C130.13 9.70873 128.398 7.59778 125.911 7.59778C124.667 7.59778 123.646 8.18794 122.935 9.30017L122.802 7.82477ZM125.111 17.3354C123.712 17.3354 123.002 16.1778 123.002 13.5448C123.002 10.8891 123.757 9.73143 125.244 9.73143C126.688 9.73143 127.398 10.8891 127.398 13.5221C127.398 16.1778 126.643 17.3354 125.111 17.3354Z" fill="black"/>
<path id="Vector_7" d="M139.341 9.95842V7.82477H130.48V9.95842H133.588V19.2421H136.231V9.95842H139.341Z" fill="black"/>
<path id="Vector_8" d="M140.826 7.82477V19.2421H144.846C147.445 19.2421 149.288 17.8802 149.288 15.2018C149.288 12.6595 147.644 11.3203 144.891 11.3203H143.469V7.82477H140.826ZM150.264 7.82477V19.2421H152.907V7.82477H150.264ZM144.69 17.1084H143.469V13.4539H144.757C145.889 13.4539 146.556 13.976 146.556 15.2925C146.556 16.609 145.823 17.1084 144.69 17.1084Z" fill="black"/>
</g>
<defs>
<linearGradient id="paint0_linear_957_5557" x1="10.1746" y1="0" x2="10.1746" y2="26" gradientUnits="userSpaceOnUse">
<stop stop-color="#FF6122"/>
<stop offset="1" stop-color="#F22411"/>
</linearGradient>
<clipPath id="clip0_957_5557">
<rect width="153" height="26" fill="white"/>
</clipPath>
</defs>
</svg>
